<svg id="svg" version="1.1" xmlns="http://www.w3.org/2000/svg" xmlns:xlink="http://www.w3.org/1999/xlink" width="400" height="311.43552311435525" viewBox="0, 0, 400,311.43552311435525"><g id="svgg"><path id="path0" d="M325.935 3.010 C 325.626 3.134,325.545 10.525,325.545 38.499 L 325.545 73.832 361.371 73.832 L 397.196 73.832 397.196 38.318 L 397.196 2.804 361.760 2.828 C 342.270 2.842,326.149 2.924,325.935 3.010 M216.491 68.431 C 216.289 68.964,216.208 74.963,216.266 85.176 L 216.355 101.090 232.944 101.171 L 249.533 101.252 249.533 84.615 C 249.533 69.733,249.481 67.960,249.040 67.790 C 248.769 67.686,241.406 67.601,232.677 67.601 L 216.807 67.601 216.491 68.431 M230.296 109.877 L 229.595 110.012 229.595 126.172 C 229.595 138.556,229.684 142.386,229.975 142.566 C 230.322 142.780,262.337 142.747,262.555 142.532 C 262.906 142.186,262.593 110.146,262.237 109.920 C 261.836 109.665,231.606 109.625,230.296 109.877 M304.121 111.449 C 303.806 112.224,303.840 167.805,304.155 168.120 C 304.670 168.635,360.742 168.423,361.074 167.905 C 361.389 167.414,361.481 112.176,361.169 111.363 C 360.873 110.592,304.433 110.677,304.121 111.449 M162.205 159.706 C 161.696 160.215,161.971 187.152,162.487 187.350 C 163.608 187.780,189.629 187.557,189.996 187.114 C 190.250 186.808,190.327 182.892,190.268 173.173 L 190.187 159.657 176.301 159.576 C 168.664 159.532,162.321 159.590,162.205 159.706 " stroke="none" fill="#04c3d2" fill-rule="evenodd"></path><path id="path1" d="M323.598 0.738 L 322.741 1.474 322.741 38.473 L 322.741 75.472 323.412 76.054 C 324.425 76.932,398.900 76.968,399.566 76.090 C 400.145 75.328,400.204 0.952,399.626 0.374 C 399.340 0.087,390.527 0.000,361.854 0.000 L 324.455 0.001 323.598 0.738 M397.196 38.318 L 397.196 73.832 361.371 73.832 L 325.545 73.832 325.545 38.499 C 325.545 10.525,325.626 3.134,325.935 3.010 C 326.149 2.924,342.270 2.842,361.760 2.828 L 397.196 2.804 397.196 38.318 M274.931 5.579 C 274.828 5.906,274.538 6.252,274.287 6.348 C 273.454 6.667,273.621 42.360,274.458 43.077 C 275.172 43.688,311.526 43.930,311.526 43.323 C 311.526 43.163,311.807 42.944,312.150 42.835 C 313.117 42.528,313.132 6.698,312.165 6.391 C 311.832 6.285,311.472 5.925,311.366 5.592 C 311.067 4.649,275.230 4.637,274.931 5.579 M309.134 8.178 C 309.624 8.537,309.658 9.804,309.583 24.611 L 309.502 40.654 293.322 40.735 C 280.585 40.798,277.090 40.732,276.894 40.423 C 276.317 39.514,276.592 8.467,277.181 8.125 C 278.037 7.626,308.451 7.676,309.134 8.178 M266.098 51.500 C 265.368 52.276,265.057 56.698,265.732 56.698 C 265.937 56.698,266.044 63.811,266.044 77.414 C 266.044 91.018,265.937 98.131,265.732 98.131 C 265.062 98.131,265.370 102.429,266.100 103.269 L 266.779 104.050 292.212 104.050 L 317.645 104.050 318.324 103.269 L 319.003 102.487 319.003 77.723 C 319.003 61.422,318.897 52.960,318.692 52.960 C 318.520 52.960,318.380 52.710,318.380 52.406 C 318.380 50.724,319.269 50.779,291.951 50.779 L 266.775 50.779 266.098 51.500 M315.812 77.492 L 315.892 100.935 292.214 100.935 L 268.536 100.935 268.536 77.412 L 268.536 53.890 292.134 53.970 L 315.732 54.050 315.812 77.492 M46.417 57.913 C 46.417 58.068,45.576 58.292,44.548 58.411 C 43.520 58.531,42.679 58.748,42.679 58.895 C 42.679 59.042,42.172 59.257,41.551 59.373 C 40.346 59.599,35.826 63.780,35.826 64.668 C 35.826 64.911,35.696 65.109,35.539 65.109 C 35.381 65.109,35.153 65.565,35.032 66.121 C 34.912 66.678,34.655 67.234,34.462 67.356 C 34.205 67.520,34.091 91.168,34.032 156.842 C 33.979 215.681,33.847 246.106,33.643 246.106 C 33.473 246.106,33.333 246.257,33.333 246.441 C 33.333 246.626,32.913 247.197,32.399 247.711 C 31.885 248.225,31.464 248.772,31.464 248.927 C 31.464 249.082,30.763 249.902,29.907 250.749 C 29.050 251.597,28.349 252.413,28.349 252.562 C 28.349 252.711,27.934 253.177,27.428 253.597 C 26.921 254.017,26.500 254.552,26.493 254.784 C 26.486 255.017,25.709 255.942,24.766 256.840 C 23.824 257.739,23.053 258.624,23.053 258.808 C 23.053 259.197,21.257 261.059,20.882 261.059 C 20.742 261.059,20.540 261.410,20.433 261.838 C 20.325 262.266,20.100 262.617,19.932 262.617 C 19.764 262.617,19.626 262.826,19.626 263.081 C 19.626 263.337,18.995 264.139,18.224 264.865 C 17.453 265.590,16.822 266.304,16.822 266.450 C 16.822 266.596,16.192 267.347,15.421 268.118 C 14.650 268.889,14.019 269.658,14.019 269.827 C 14.019 269.997,13.528 270.598,12.928 271.164 C 12.329 271.729,11.833 272.316,11.828 272.467 C 11.822 272.618,11.261 273.298,10.582 273.979 C 9.902 274.660,9.346 275.319,9.346 275.444 C 9.346 275.569,8.855 276.147,8.255 276.730 C 7.656 277.312,7.159 277.985,7.151 278.225 C 7.143 278.464,6.779 278.941,6.342 279.283 C 4.725 280.552,3.138 282.363,2.956 283.148 C 2.848 283.609,2.174 284.395,1.384 284.979 L -0.000 286.001 -0.000 288.969 C -0.000 292.160,0.549 296.262,0.977 296.262 C 1.121 296.262,1.327 296.814,1.435 297.488 C 1.543 298.163,1.889 298.992,2.205 299.331 C 2.520 299.670,2.870 300.309,2.981 300.752 C 3.092 301.195,3.308 301.558,3.461 301.558 C 3.613 301.558,3.738 301.757,3.738 302.001 C 3.738 302.245,4.157 302.841,4.668 303.325 C 5.643 304.248,6.907 305.490,8.339 306.931 C 8.807 307.402,9.365 307.788,9.579 307.788 C 9.794 307.788,9.969 307.917,9.969 308.075 C 9.969 308.233,10.389 308.454,10.903 308.567 C 11.417 308.680,11.838 308.871,11.838 308.992 C 11.838 309.357,13.602 310.280,14.300 310.280 C 14.659 310.280,14.953 310.400,14.953 310.545 C 14.953 311.293,30.805 311.371,184.268 311.369 C 335.442 311.367,352.960 311.286,352.960 310.587 C 352.960 310.463,353.554 310.283,354.280 310.185 C 355.040 310.083,355.808 309.752,356.089 309.406 C 356.357 309.074,356.913 308.696,357.324 308.566 C 357.735 308.436,358.248 308.172,358.464 307.981 C 359.425 307.129,359.801 306.854,360.004 306.854 C 360.380 306.854,362.617 304.277,362.617 303.842 C 362.617 303.614,362.750 303.427,362.913 303.427 C 363.460 303.427,365.106 301.408,365.108 300.734 C 365.108 300.367,365.319 299.986,365.576 299.887 C 365.833 299.789,366.044 299.493,366.044 299.231 C 366.044 298.969,366.184 298.754,366.355 298.754 C 366.526 298.754,366.667 298.275,366.667 297.690 C 366.667 297.104,366.821 296.574,367.009 296.511 C 367.197 296.448,367.426 295.455,367.519 294.304 C 367.611 293.154,367.808 292.212,367.955 292.212 C 368.103 292.212,368.224 290.950,368.224 289.408 C 368.224 287.747,368.097 286.604,367.913 286.604 C 367.741 286.604,367.600 286.359,367.598 286.059 C 367.597 285.759,367.037 285.023,366.355 284.424 C 365.673 283.824,365.113 283.193,365.110 283.022 C 365.108 282.850,364.511 282.055,363.783 281.254 C 362.004 279.294,361.682 278.887,361.682 278.590 C 361.682 278.225,358.913 275.389,358.556 275.389 C 358.391 275.389,358.255 275.158,358.255 274.876 C 358.255 274.593,357.765 273.885,357.165 273.303 C 356.565 272.721,356.075 272.050,356.075 271.813 C 356.075 271.576,355.802 271.295,355.468 271.189 C 355.134 271.083,354.774 270.723,354.668 270.389 C 354.562 270.055,354.344 269.782,354.185 269.782 C 354.025 269.782,353.894 269.621,353.894 269.424 C 353.894 269.227,353.403 268.590,352.804 268.007 C 352.204 267.425,351.713 266.810,351.713 266.642 C 351.713 266.474,351.012 265.657,350.156 264.827 C 349.299 263.997,348.598 263.180,348.598 263.013 C 348.598 262.846,347.827 261.991,346.885 261.114 C 345.942 260.237,345.171 259.287,345.171 259.003 C 345.171 258.719,344.330 257.648,343.302 256.623 C 342.274 255.598,341.433 254.618,341.433 254.444 C 341.433 254.270,340.732 253.449,339.875 252.619 C 339.019 251.789,338.318 250.976,338.318 250.812 C 338.318 250.649,337.897 250.095,337.383 249.581 C 336.869 249.067,336.449 248.545,336.449 248.422 C 336.449 248.299,336.028 247.796,335.514 247.305 L 334.579 246.412 334.579 214.016 C 334.579 182.035,334.571 181.612,333.956 180.997 C 333.030 180.070,311.631 180.021,310.796 180.944 C 310.327 181.462,310.280 183.437,310.280 202.906 C 310.280 214.851,310.161 224.299,310.009 224.299 C 309.860 224.299,309.649 224.967,309.541 225.783 C 309.415 226.734,309.065 227.568,308.566 228.106 C 308.138 228.567,307.788 229.089,307.788 229.266 C 307.788 229.751,306.770 230.841,306.317 230.841 C 306.098 230.841,305.919 230.981,305.919 231.153 C 305.919 231.324,305.709 231.464,305.452 231.464 C 305.195 231.464,304.984 231.604,304.984 231.776 C 304.984 231.947,304.784 232.087,304.539 232.087 C 304.295 232.087,303.849 232.333,303.549 232.632 C 302.701 233.481,65.821 233.481,64.884 232.632 C 64.552 232.333,63.977 232.087,63.605 232.087 C 63.233 232.087,62.928 231.947,62.928 231.776 C 62.928 231.604,62.718 231.464,62.461 231.464 C 62.204 231.464,61.994 231.335,61.994 231.178 C 61.994 231.021,61.450 230.326,60.785 229.634 C 60.120 228.942,59.478 227.985,59.358 227.509 C 59.239 227.032,58.977 226.540,58.776 226.416 C 58.226 226.076,58.250 82.193,58.801 82.009 C 59.015 81.938,59.190 81.677,59.190 81.428 C 59.190 81.180,59.400 80.897,59.657 80.798 C 59.914 80.699,60.125 80.349,60.125 80.019 C 60.125 79.689,60.335 79.339,60.592 79.240 C 60.849 79.142,61.059 78.866,61.059 78.627 C 61.059 78.388,61.269 78.193,61.526 78.193 C 61.783 78.193,61.994 78.056,61.994 77.888 C 61.994 77.719,62.334 77.497,62.750 77.392 C 63.166 77.288,63.582 77.005,63.675 76.763 C 63.768 76.522,64.260 76.324,64.769 76.324 C 65.279 76.324,65.782 76.184,65.888 76.012 C 66.015 75.806,89.152 75.701,134.286 75.701 C 202.077 75.701,202.496 75.697,203.115 75.078 C 204.079 74.114,204.079 59.219,203.115 58.255 C 202.435 57.575,46.417 57.234,46.417 57.913 M200.779 66.667 L 200.779 72.430 132.555 72.586 C 74.780 72.718,64.163 72.809,63.240 73.181 C 59.373 74.742,56.312 78.336,55.565 82.191 C 55.037 84.918,54.946 223.445,55.470 226.281 C 56.312 230.833,59.303 234.224,63.639 235.543 C 65.525 236.117,68.752 236.132,184.269 236.135 L 302.962 236.137 305.077 235.370 C 308.559 234.107,310.145 232.640,311.892 229.066 L 312.928 226.947 313.018 205.218 L 313.108 183.489 322.446 183.489 L 331.784 183.489 331.771 215.883 L 331.759 248.276 335.353 252.565 C 337.330 254.924,339.682 257.743,340.580 258.831 C 341.477 259.919,342.913 261.622,343.769 262.617 C 344.626 263.611,346.062 265.315,346.960 266.403 C 347.858 267.490,350.641 270.833,353.144 273.832 C 355.648 276.830,358.445 280.195,359.361 281.308 C 360.277 282.422,361.803 284.245,362.753 285.358 C 365.117 288.129,365.632 289.163,365.163 290.193 C 364.962 290.634,364.798 291.462,364.798 292.034 C 364.798 294.396,362.583 299.067,360.165 301.804 C 356.932 305.464,353.145 307.477,348.002 308.270 C 344.241 308.851,24.689 308.964,20.800 308.386 C 11.072 306.942,3.840 299.679,2.909 290.420 L 2.714 288.473 4.238 286.800 C 5.077 285.880,6.565 284.163,7.546 282.984 C 8.526 281.805,10.839 279.037,12.686 276.832 C 14.533 274.628,16.316 272.455,16.648 272.004 C 16.980 271.553,17.821 270.545,18.517 269.764 C 19.213 268.983,20.623 267.309,21.651 266.044 C 22.679 264.779,25.176 261.773,27.199 259.364 C 29.222 256.955,31.606 254.091,32.495 252.998 C 33.384 251.906,34.636 250.420,35.277 249.696 L 36.441 248.381 36.523 159.938 C 36.601 74.999,36.627 71.428,37.178 69.806 C 38.564 65.720,42.065 62.399,46.262 61.188 C 47.190 60.920,67.058 60.838,124.143 60.866 L 200.779 60.903 200.779 66.667 M213.932 65.736 C 213.321 66.449,213.080 102.804,213.686 102.804 C 213.846 102.804,214.066 103.084,214.174 103.427 C 214.369 104.041,214.646 104.050,232.866 104.050 C 251.086 104.050,251.363 104.041,251.558 103.427 C 251.666 103.084,251.886 102.804,252.046 102.804 C 252.652 102.804,252.411 66.449,251.800 65.736 C 251.274 65.121,250.913 65.109,232.866 65.109 C 214.819 65.109,214.458 65.121,213.932 65.736 M249.040 67.790 C 249.481 67.960,249.533 69.733,249.533 84.615 L 249.533 101.252 232.944 101.171 L 216.355 101.090 216.266 85.176 C 216.208 74.963,216.289 68.964,216.491 68.431 L 216.807 67.601 232.677 67.601 C 241.406 67.601,248.769 67.686,249.040 67.790 M227.336 107.783 L 226.480 108.683 226.481 126.070 L 226.483 143.458 227.556 144.626 L 228.629 145.794 231.916 145.794 C 233.899 145.794,235.202 145.671,235.202 145.483 C 235.202 145.281,239.097 145.171,246.262 145.171 L 257.321 145.171 257.321 163.482 C 257.321 181.442,257.333 181.803,257.947 182.330 C 258.525 182.824,259.988 182.866,276.498 182.866 L 294.422 182.866 295.186 182.042 L 295.950 181.217 295.950 163.316 L 295.950 145.415 295.249 144.675 L 294.548 143.936 280.218 143.931 L 265.888 143.927 265.991 141.745 C 266.059 140.325,265.977 139.564,265.758 139.564 C 265.306 139.564,265.281 112.896,265.732 112.617 C 266.525 112.127,266.081 108.738,265.098 107.778 L 264.153 106.854 246.173 106.869 L 228.193 106.884 227.336 107.783 M301.471 109.038 C 300.568 110.093,300.651 169.499,301.558 170.405 C 302.172 171.019,302.596 171.028,332.385 171.028 L 362.589 171.028 363.381 170.235 L 364.174 169.442 364.174 139.416 C 364.174 112.535,364.123 109.339,363.685 108.901 C 362.819 108.035,302.215 108.169,301.471 109.038 M262.237 109.920 C 262.593 110.146,262.906 142.186,262.555 142.532 C 262.337 142.747,230.322 142.780,229.975 142.566 C 229.684 142.386,229.595 138.556,229.595 126.172 L 229.595 110.012 230.296 109.877 C 231.606 109.625,261.836 109.665,262.237 109.920 M361.169 111.363 C 361.481 112.176,361.389 167.414,361.074 167.905 C 360.742 168.423,304.670 168.635,304.155 168.120 C 303.840 167.805,303.806 112.224,304.121 111.449 C 304.433 110.677,360.873 110.592,361.169 111.363 M177.740 118.862 L 176.947 119.654 176.947 132.706 C 176.947 141.071,176.835 145.827,176.636 145.950 C 175.862 146.428,176.284 149.853,177.235 150.803 L 178.145 151.713 193.587 151.713 C 209.009 151.713,209.031 151.712,209.811 151.034 L 210.592 150.355 210.592 135.143 L 210.592 119.932 209.701 119.000 L 208.811 118.069 193.672 118.069 L 178.533 118.069 177.740 118.862 M207.321 135.047 L 207.321 148.754 193.536 148.835 C 185.954 148.880,179.749 148.810,179.746 148.679 C 179.732 147.975,179.720 121.900,179.734 121.570 C 179.747 121.259,182.619 121.194,193.536 121.258 L 207.321 121.340 207.321 135.047 M292.835 163.318 L 292.835 179.907 276.750 179.846 C 267.903 179.813,260.473 179.712,260.239 179.622 C 259.795 179.452,259.568 148.353,260.002 147.222 C 260.171 146.781,261.917 146.729,276.513 146.729 L 292.835 146.729 292.835 163.318 M204.907 153.928 L 204.050 154.854 204.050 170.130 L 204.050 185.406 204.960 186.317 L 205.871 187.227 221.313 187.227 C 236.735 187.227,236.756 187.226,237.537 186.548 L 238.318 185.869 238.318 170.214 C 238.318 154.970,238.302 154.554,237.711 154.366 C 237.377 154.260,237.017 153.901,236.911 153.567 C 236.723 152.975,236.319 152.960,221.241 152.981 L 205.763 153.002 204.907 153.928 M235.013 156.256 C 235.117 156.527,235.202 162.907,235.202 170.434 L 235.202 184.118 221.106 184.037 L 207.009 183.956 206.928 170.433 C 206.855 158.181,206.896 156.856,207.366 156.337 C 208.109 155.515,234.699 155.438,235.013 156.256 M160.202 157.234 L 159.502 158.043 159.502 173.547 C 159.502 187.227,159.559 189.110,159.991 189.542 C 160.802 190.353,191.582 190.276,192.319 189.461 C 192.785 188.947,192.834 187.393,192.825 173.496 L 192.815 158.100 192.061 157.243 L 191.307 156.386 176.105 156.405 L 160.903 156.425 160.202 157.234 M190.268 173.173 C 190.327 182.892,190.250 186.808,189.996 187.114 C 189.629 187.557,163.608 187.780,162.487 187.350 C 161.971 187.152,161.696 160.215,162.205 159.706 C 162.321 159.590,168.664 159.532,176.301 159.576 L 190.187 159.657 190.268 173.173 M139.052 276.519 C 138.855 276.600,137.594 278.016,136.248 279.666 C 134.902 281.317,133.590 282.893,133.333 283.169 C 133.076 283.445,132.356 284.295,131.733 285.059 C 131.109 285.823,130.303 286.785,129.942 287.196 C 128.472 288.869,125.608 288.785,184.160 288.785 C 243.889 288.785,239.429 288.945,237.980 286.849 C 237.591 286.286,236.632 285.102,235.848 284.218 C 235.065 283.334,233.653 281.677,232.710 280.536 C 231.768 279.395,230.555 277.981,230.016 277.393 L 229.034 276.324 184.221 276.349 C 159.574 276.362,139.248 276.439,139.052 276.519 M227.592 279.573 C 227.837 279.818,228.037 280.110,228.037 280.224 C 228.037 280.337,228.668 281.043,229.439 281.792 C 230.210 282.541,230.841 283.355,230.841 283.600 C 230.841 283.845,231.051 284.126,231.308 284.225 C 231.565 284.323,231.776 284.619,231.776 284.881 C 231.776 285.144,231.916 285.358,232.087 285.358 C 232.259 285.358,232.399 285.498,232.399 285.670 C 232.399 285.876,216.044 285.981,183.956 285.981 C 157.313 285.981,135.520 285.876,135.527 285.748 C 135.534 285.619,135.955 285.170,136.462 284.750 C 136.969 284.330,137.383 283.868,137.383 283.724 C 137.383 283.580,137.558 283.259,137.773 283.009 C 137.987 282.760,138.512 282.153,138.941 281.660 C 139.369 281.167,140.000 280.402,140.343 279.960 L 140.966 279.157 184.057 279.142 C 221.000 279.130,227.211 279.191,227.592 279.573 M156.155 295.528 C 153.650 296.763,153.317 299.901,155.547 301.260 C 156.840 302.049,210.375 302.228,212.237 301.450 C 215.166 300.226,214.714 296.208,211.550 295.328 C 209.453 294.746,157.360 294.934,156.155 295.528 M209.034 297.819 C 209.034 297.991,209.385 298.131,209.813 298.131 C 210.915 298.131,210.781 298.638,209.618 298.871 C 208.369 299.121,159.577 299.119,158.645 298.869 C 157.858 298.658,157.691 298.131,158.411 298.131 C 158.668 298.131,158.879 297.991,158.879 297.819 C 158.879 297.614,167.445 297.508,183.956 297.508 C 200.467 297.508,209.034 297.614,209.034 297.819 " stroke="none" fill="#070804" fill-rule="evenodd"></path><path id="path2" d="M277.181 8.125 C 276.592 8.467,276.317 39.514,276.894 40.423 C 277.090 40.732,280.585 40.798,293.322 40.735 L 309.502 40.654 309.583 24.611 C 309.658 9.804,309.624 8.537,309.134 8.178 C 308.451 7.676,278.037 7.626,277.181 8.125 M268.536 77.412 L 268.536 100.935 292.214 100.935 L 315.892 100.935 315.812 77.492 L 315.732 54.050 292.134 53.970 L 268.536 53.890 268.536 77.412 M46.262 61.188 C 42.065 62.399,38.564 65.720,37.178 69.806 C 36.627 71.428,36.601 74.999,36.523 159.938 L 36.441 248.381 35.277 249.696 C 34.636 250.420,33.384 251.906,32.495 252.998 C 31.606 254.091,29.222 256.955,27.199 259.364 C 25.176 261.773,22.679 264.779,21.651 266.044 C 20.623 267.309,19.213 268.983,18.517 269.764 C 17.821 270.545,16.980 271.553,16.648 272.004 C 16.316 272.455,14.533 274.628,12.686 276.832 C 10.839 279.037,8.526 281.805,7.546 282.984 C 6.565 284.163,5.077 285.880,4.238 286.800 L 2.714 288.473 2.909 290.420 C 3.840 299.679,11.072 306.942,20.800 308.386 C 24.689 308.964,344.241 308.851,348.002 308.270 C 353.145 307.477,356.932 305.464,360.165 301.804 C 362.583 299.067,364.798 294.396,364.798 292.034 C 364.798 291.462,364.962 290.634,365.163 290.193 C 365.632 289.163,365.117 288.129,362.753 285.358 C 361.803 284.245,360.277 282.422,359.361 281.308 C 358.445 280.195,355.648 276.830,353.144 273.832 C 350.641 270.833,347.858 267.490,346.960 266.403 C 346.062 265.315,344.626 263.611,343.769 262.617 C 342.913 261.622,341.477 259.919,340.580 258.831 C 339.682 257.743,337.330 254.924,335.353 252.565 L 331.759 248.276 331.771 215.883 L 331.784 183.489 322.446 183.489 L 313.108 183.489 313.018 205.218 L 312.928 226.947 311.892 229.066 C 310.145 232.640,308.559 234.107,305.077 235.370 L 302.962 236.137 184.269 236.135 C 68.752 236.132,65.525 236.117,63.639 235.543 C 59.303 234.224,56.312 230.833,55.470 226.281 C 54.946 223.445,55.037 84.918,55.565 82.191 C 56.312 78.336,59.373 74.742,63.240 73.181 C 64.163 72.809,74.780 72.718,132.555 72.586 L 200.779 72.430 200.779 66.667 L 200.779 60.903 124.143 60.866 C 67.058 60.838,47.190 60.920,46.262 61.188 M179.734 121.570 C 179.720 121.900,179.732 147.975,179.746 148.679 C 179.749 148.810,185.954 148.880,193.536 148.835 L 207.321 148.754 207.321 135.047 L 207.321 121.340 193.536 121.258 C 182.619 121.194,179.747 121.259,179.734 121.570 M260.748 147.008 L 259.969 147.224 259.888 163.340 C 259.821 176.783,259.879 179.484,260.236 179.621 C 260.472 179.711,267.903 179.813,276.750 179.846 L 292.835 179.907 292.835 163.318 L 292.835 146.729 277.181 146.760 C 268.571 146.777,261.176 146.889,260.748 147.008 M207.366 156.337 C 206.896 156.856,206.855 158.181,206.928 170.433 L 207.009 183.956 221.106 184.037 L 235.202 184.118 235.202 170.434 C 235.202 162.907,235.117 156.527,235.013 156.256 C 234.699 155.438,208.109 155.515,207.366 156.337 M230.016 277.393 C 230.555 277.981,231.768 279.395,232.710 280.536 C 233.653 281.677,235.065 283.334,235.848 284.218 C 236.632 285.102,237.591 286.286,237.980 286.849 C 239.429 288.945,243.889 288.785,184.160 288.785 C 125.608 288.785,128.472 288.869,129.942 287.196 C 130.303 286.785,131.109 285.823,131.733 285.059 C 132.356 284.295,133.076 283.445,133.333 283.169 C 133.590 282.893,134.902 281.317,136.248 279.666 C 137.594 278.016,138.855 276.600,139.052 276.519 C 139.248 276.439,159.574 276.362,184.221 276.349 L 229.034 276.324 230.016 277.393 M211.550 295.328 C 214.714 296.208,215.166 300.226,212.237 301.450 C 210.375 302.228,156.840 302.049,155.547 301.260 C 153.317 299.901,153.650 296.763,156.155 295.528 C 157.360 294.934,209.453 294.746,211.550 295.328 " stroke="none" fill="#fbd304" fill-rule="evenodd"></path></g></svg>