<svg id="svg" version="1.1" xmlns="http://www.w3.org/2000/svg" xmlns:xlink="http://www.w3.org/1999/xlink" width="400" height="406.27450980392155" viewBox="0, 0, 400,406.27450980392155"><g id="svgg"><path id="path0" d="M316.400 7.576 C 316.400 8.003,316.220 8.464,316.000 8.600 C 315.780 8.736,315.600 9.647,315.600 10.624 C 315.600 11.601,315.420 12.400,315.200 12.400 C 314.980 12.400,314.800 13.174,314.800 14.120 C 314.800 15.066,314.637 16.011,314.439 16.220 C 314.240 16.429,313.981 17.410,313.862 18.400 C 313.744 19.390,313.449 21.190,313.207 22.400 C 312.965 23.610,312.664 25.185,312.540 25.900 C 312.415 26.615,312.152 27.200,311.956 27.200 C 311.760 27.200,311.600 27.486,311.600 27.836 C 311.600 28.543,310.078 29.966,309.300 29.987 C 309.025 29.994,308.800 30.180,308.800 30.400 C 308.800 30.620,308.260 30.800,307.600 30.800 C 306.940 30.800,306.400 30.980,306.400 31.200 C 306.400 31.420,305.860 31.600,305.200 31.600 C 304.540 31.600,304.000 31.780,304.000 32.000 C 304.000 32.220,303.640 32.400,303.200 32.400 C 302.760 32.400,302.400 32.580,302.400 32.800 C 302.400 33.020,301.860 33.200,301.200 33.200 C 300.540 33.200,300.000 33.380,300.000 33.600 C 300.000 33.820,299.640 34.000,299.200 34.000 C 298.760 34.000,298.400 34.180,298.400 34.400 C 298.400 34.620,298.040 34.800,297.600 34.800 C 297.160 34.800,296.800 34.980,296.800 35.200 C 296.800 35.420,296.440 35.600,296.000 35.600 C 295.560 35.600,295.200 35.780,295.200 36.000 C 295.200 36.220,294.840 36.400,294.400 36.400 C 293.960 36.400,293.600 36.580,293.600 36.800 C 293.600 37.020,292.790 37.200,291.800 37.200 C 290.810 37.200,290.000 37.020,290.000 36.800 C 290.000 36.580,289.680 36.400,289.288 36.400 C 288.897 36.400,288.317 36.040,288.000 35.600 C 287.683 35.160,287.143 34.800,286.800 34.800 C 286.457 34.800,285.917 34.440,285.600 34.000 C 285.283 33.560,284.743 33.200,284.400 33.200 C 284.057 33.200,283.517 32.840,283.200 32.400 C 282.883 31.960,282.343 31.600,282.000 31.600 C 281.657 31.600,281.117 31.240,280.800 30.800 C 280.483 30.360,279.903 30.000,279.512 30.000 C 279.120 30.000,278.800 29.823,278.800 29.608 C 278.800 29.392,278.305 29.093,277.700 28.944 C 277.095 28.794,276.309 28.341,275.953 27.936 C 275.597 27.531,275.052 27.200,274.741 27.200 C 274.431 27.200,273.917 26.840,273.600 26.400 C 273.043 25.628,270.800 25.240,270.800 25.917 C 270.800 26.322,268.396 28.818,267.264 29.588 C 266.390 30.183,266.063 31.600,266.800 31.600 C 267.020 31.600,267.200 32.140,267.200 32.800 C 267.200 33.460,267.380 34.000,267.600 34.000 C 267.820 34.000,268.000 34.900,268.000 36.000 C 268.000 37.100,268.180 38.000,268.400 38.000 C 268.620 38.000,268.800 38.900,268.800 40.000 C 268.800 41.100,268.954 42.000,269.141 42.000 C 269.329 42.000,269.595 43.327,269.732 44.949 C 269.869 46.571,270.165 48.383,270.391 48.975 C 270.616 49.568,270.800 50.850,270.800 51.826 C 270.800 52.802,270.980 53.600,271.200 53.600 C 271.420 53.600,271.600 53.960,271.600 54.400 C 271.600 54.933,271.867 55.200,272.400 55.200 C 272.840 55.200,273.200 55.380,273.200 55.600 C 273.200 55.820,273.549 56.000,273.976 56.000 C 274.403 56.000,274.864 56.180,275.000 56.400 C 275.136 56.620,275.591 56.800,276.011 56.800 C 276.432 56.800,277.417 57.160,278.200 57.600 C 278.983 58.040,279.979 58.400,280.412 58.400 C 280.845 58.400,281.200 58.580,281.200 58.800 C 281.200 59.020,281.560 59.200,282.000 59.200 C 282.440 59.200,282.800 59.380,282.800 59.600 C 282.800 59.820,283.160 60.000,283.600 60.000 C 284.040 60.000,284.400 59.820,284.400 59.600 C 284.400 59.380,284.720 59.200,285.112 59.200 C 285.503 59.200,286.083 58.840,286.400 58.400 C 286.717 57.960,287.257 57.600,287.600 57.600 C 287.943 57.600,288.483 57.240,288.800 56.800 C 289.117 56.360,289.567 56.000,289.800 56.000 C 290.033 56.000,290.483 55.640,290.800 55.200 C 291.117 54.760,291.657 54.400,292.000 54.400 C 292.343 54.400,292.883 54.040,293.200 53.600 C 293.517 53.160,294.057 52.800,294.400 52.800 C 294.743 52.800,295.283 52.440,295.600 52.000 C 295.917 51.560,296.457 51.200,296.800 51.200 C 297.143 51.200,297.683 50.840,298.000 50.400 C 298.317 49.960,298.820 49.600,299.117 49.600 C 299.414 49.600,299.927 49.330,300.257 49.000 C 300.587 48.670,301.204 48.400,301.629 48.400 C 302.053 48.400,302.400 48.220,302.400 48.000 C 302.400 47.780,302.760 47.600,303.200 47.600 C 303.640 47.600,304.000 47.420,304.000 47.200 C 304.000 46.980,304.439 46.800,304.976 46.800 C 305.513 46.800,306.064 46.620,306.200 46.400 C 306.336 46.180,306.977 46.000,307.624 46.000 C 308.271 46.000,308.800 45.820,308.800 45.600 C 308.800 45.380,309.250 45.200,309.800 45.200 C 310.350 45.200,310.800 45.020,310.800 44.800 C 310.800 44.580,311.520 44.400,312.400 44.400 C 313.280 44.400,314.000 44.220,314.000 44.000 C 314.000 43.780,314.900 43.600,316.000 43.600 C 317.100 43.600,318.000 43.420,318.000 43.200 C 318.000 42.952,320.125 42.800,323.576 42.800 C 326.863 42.800,329.254 42.964,329.400 43.200 C 329.536 43.420,330.357 43.600,331.224 43.600 C 332.091 43.600,332.800 43.780,332.800 44.000 C 332.800 44.220,333.181 44.400,333.647 44.400 C 334.697 44.400,339.751 46.088,339.933 46.499 C 340.007 46.665,340.412 46.800,340.833 46.800 C 341.255 46.800,341.600 46.980,341.600 47.200 C 341.600 47.420,341.960 47.600,342.400 47.600 C 342.840 47.600,343.200 47.780,343.200 48.000 C 343.200 48.220,343.547 48.400,343.971 48.400 C 344.396 48.400,345.013 48.670,345.343 49.000 C 345.673 49.330,346.153 49.600,346.411 49.600 C 346.668 49.600,347.383 50.140,348.000 50.800 C 348.617 51.460,349.253 52.000,349.414 52.000 C 349.815 52.000,354.800 57.138,354.800 57.551 C 354.800 57.732,355.340 58.446,356.000 59.137 C 356.660 59.828,357.200 60.540,357.200 60.721 C 357.200 60.901,357.525 61.398,357.922 61.825 C 358.320 62.251,358.903 63.185,359.220 63.900 C 359.536 64.615,359.931 65.200,360.098 65.200 C 360.264 65.200,360.400 65.560,360.400 66.000 C 360.400 66.440,360.580 66.800,360.800 66.800 C 361.020 66.800,361.200 67.160,361.200 67.600 C 361.200 68.040,361.380 68.400,361.600 68.400 C 361.820 68.400,362.000 68.940,362.000 69.600 C 362.000 70.260,362.180 70.800,362.400 70.800 C 362.620 70.800,362.800 71.340,362.800 72.000 C 362.800 72.660,362.980 73.200,363.200 73.200 C 363.420 73.200,363.600 73.740,363.600 74.400 C 363.600 75.060,363.780 75.600,364.000 75.600 C 364.237 75.600,364.400 77.056,364.400 79.167 C 364.400 81.629,364.555 82.806,364.900 82.967 C 365.300 83.153,365.300 83.247,364.900 83.433 C 364.552 83.596,364.400 84.806,364.400 87.410 C 364.400 89.474,364.221 91.264,364.000 91.400 C 363.780 91.536,363.600 92.256,363.600 93.000 C 363.600 93.744,363.420 94.464,363.200 94.600 C 362.980 94.736,362.800 95.467,362.800 96.224 C 362.800 96.981,362.620 97.600,362.400 97.600 C 362.180 97.600,362.000 97.960,362.000 98.400 C 362.000 98.840,361.820 99.200,361.600 99.200 C 361.380 99.200,361.200 99.560,361.200 100.000 C 361.200 100.440,361.020 100.800,360.800 100.800 C 360.580 100.800,360.400 101.340,360.400 102.000 C 360.400 102.660,360.220 103.200,360.000 103.200 C 359.780 103.200,359.600 103.520,359.600 103.912 C 359.600 104.303,359.240 104.883,358.800 105.200 C 358.360 105.517,358.000 105.967,358.000 106.200 C 358.000 106.433,357.640 106.883,357.200 107.200 C 356.760 107.517,356.400 108.011,356.400 108.297 C 356.400 108.583,355.413 109.804,354.207 111.010 C 351.427 113.791,351.124 114.823,352.657 116.299 C 353.286 116.905,354.055 117.895,354.368 118.500 C 354.680 119.105,355.085 119.600,355.268 119.600 C 355.450 119.600,355.600 120.050,355.600 120.600 C 355.600 121.150,355.780 121.600,356.000 121.600 C 356.220 121.600,356.400 122.500,356.400 123.600 C 356.400 124.700,356.580 125.600,356.800 125.600 C 357.036 125.600,357.200 127.010,357.200 129.029 C 357.200 132.492,357.608 133.600,358.883 133.600 C 359.180 133.600,359.683 133.960,360.000 134.400 C 360.317 134.840,360.857 135.200,361.200 135.200 C 361.543 135.200,362.083 135.560,362.400 136.000 C 362.717 136.440,363.257 136.800,363.600 136.800 C 363.943 136.800,364.483 137.160,364.800 137.600 C 365.117 138.040,365.657 138.400,366.000 138.400 C 366.343 138.400,366.883 138.760,367.200 139.200 C 367.517 139.640,368.057 140.000,368.400 140.000 C 368.743 140.000,369.283 140.360,369.600 140.800 C 369.917 141.240,370.392 141.600,370.655 141.600 C 370.918 141.600,371.193 141.767,371.267 141.970 C 371.884 143.686,373.560 142.846,377.568 138.813 C 382.149 134.203,381.993 134.530,380.400 132.863 C 379.740 132.172,379.200 131.375,379.200 131.092 C 379.200 130.809,378.840 130.317,378.400 130.000 C 377.960 129.683,377.600 129.143,377.600 128.800 C 377.600 128.457,377.240 127.917,376.800 127.600 C 376.360 127.283,376.000 126.795,376.000 126.515 C 376.000 126.236,375.640 125.782,375.200 125.507 C 374.760 125.232,374.400 124.731,374.400 124.392 C 374.400 124.054,374.040 123.517,373.600 123.200 C 373.160 122.883,372.800 122.343,372.800 122.000 C 372.800 121.657,372.440 121.117,372.000 120.800 C 371.560 120.483,371.200 119.903,371.200 119.512 C 371.200 119.120,371.038 118.800,370.840 118.800 C 370.642 118.800,370.309 117.810,370.100 116.600 C 369.701 114.279,370.180 110.000,370.840 110.000 C 371.038 110.000,371.200 109.640,371.200 109.200 C 371.200 108.760,371.380 108.400,371.600 108.400 C 371.820 108.400,372.000 108.040,372.000 107.600 C 372.000 107.160,372.180 106.800,372.400 106.800 C 372.620 106.800,372.800 106.530,372.800 106.200 C 372.800 105.870,372.980 105.600,373.200 105.600 C 373.420 105.600,373.600 105.150,373.600 104.600 C 373.600 104.050,373.780 103.600,374.000 103.600 C 374.220 103.600,374.400 103.161,374.400 102.624 C 374.400 102.087,374.580 101.536,374.800 101.400 C 375.020 101.264,375.200 100.724,375.200 100.200 C 375.200 99.676,375.380 99.136,375.600 99.000 C 375.820 98.864,376.000 98.397,376.000 97.963 C 376.000 96.814,378.565 94.400,379.787 94.400 C 380.344 94.400,380.800 94.220,380.800 94.000 C 380.800 93.780,381.700 93.600,382.800 93.600 C 383.900 93.600,384.800 93.420,384.800 93.200 C 384.800 92.980,385.700 92.800,386.800 92.800 C 387.900 92.800,388.800 92.620,388.800 92.400 C 388.800 92.180,389.610 92.000,390.600 92.000 C 391.590 92.000,392.400 91.820,392.400 91.600 C 392.400 91.380,393.300 91.200,394.400 91.200 C 395.500 91.200,396.400 91.020,396.400 90.800 C 396.400 90.580,397.101 90.400,397.957 90.400 C 399.970 90.400,400.000 90.300,400.000 83.567 L 400.000 78.000 398.600 78.000 C 397.830 78.000,397.200 77.820,397.200 77.600 C 397.200 77.380,396.300 77.200,395.200 77.200 C 394.100 77.200,393.200 77.020,393.200 76.800 C 393.200 76.580,392.300 76.400,391.200 76.400 C 390.100 76.400,389.200 76.220,389.200 76.000 C 389.200 75.780,388.401 75.600,387.424 75.600 C 386.447 75.600,385.536 75.420,385.400 75.200 C 385.264 74.980,384.364 74.800,383.400 74.800 C 382.436 74.800,381.536 74.620,381.400 74.400 C 381.264 74.180,380.753 74.000,380.265 74.000 C 379.776 74.000,379.117 73.640,378.800 73.200 C 378.483 72.760,377.903 72.400,377.512 72.400 C 377.067 72.400,376.800 72.100,376.800 71.600 C 376.800 71.160,376.620 70.800,376.400 70.800 C 376.180 70.800,376.000 70.440,376.000 70.000 C 376.000 69.560,375.820 69.200,375.600 69.200 C 375.380 69.200,375.200 68.750,375.200 68.200 C 375.200 67.650,375.020 67.200,374.800 67.200 C 374.580 67.200,374.400 66.660,374.400 66.000 C 374.400 65.340,374.220 64.800,374.000 64.800 C 373.780 64.800,373.600 64.260,373.600 63.600 C 373.600 62.940,373.420 62.400,373.200 62.400 C 372.980 62.400,372.800 62.040,372.800 61.600 C 372.800 61.160,372.620 60.800,372.400 60.800 C 372.180 60.800,372.000 60.440,372.000 60.000 C 372.000 59.560,371.820 59.200,371.600 59.200 C 371.380 59.200,371.200 58.840,371.200 58.400 C 371.200 57.960,371.044 57.600,370.853 57.600 C 369.389 57.600,369.756 49.058,371.240 48.587 C 371.658 48.455,372.000 48.038,372.000 47.661 C 372.000 47.285,372.360 46.717,372.800 46.400 C 373.240 46.083,373.600 45.543,373.600 45.200 C 373.600 44.857,373.960 44.317,374.400 44.000 C 374.840 43.683,375.200 43.143,375.200 42.800 C 375.200 42.457,375.560 41.917,376.000 41.600 C 376.440 41.283,376.800 40.743,376.800 40.400 C 376.800 40.057,377.160 39.517,377.600 39.200 C 378.040 38.883,378.400 38.343,378.400 38.000 C 378.400 37.657,378.760 37.117,379.200 36.800 C 379.640 36.483,380.000 35.903,380.000 35.512 C 380.000 35.120,380.180 34.800,380.400 34.800 C 381.587 34.800,380.648 32.502,378.766 30.800 C 377.671 29.810,375.975 28.235,374.998 27.300 C 373.355 25.728,371.600 25.057,371.600 26.000 C 371.600 26.220,371.342 26.400,371.027 26.400 C 370.712 26.400,370.340 26.760,370.200 27.200 C 370.060 27.640,369.598 28.000,369.173 28.000 C 368.748 28.000,368.400 28.177,368.400 28.392 C 368.400 28.608,367.905 28.907,367.300 29.056 C 366.695 29.206,365.909 29.659,365.553 30.064 C 365.197 30.469,364.652 30.800,364.341 30.800 C 364.031 30.800,363.517 31.160,363.200 31.600 C 362.883 32.040,362.343 32.400,362.000 32.400 C 361.657 32.400,361.117 32.760,360.800 33.200 C 360.483 33.640,359.943 34.000,359.600 34.000 C 359.257 34.000,358.717 34.360,358.400 34.800 C 358.083 35.240,357.503 35.600,357.112 35.600 C 356.720 35.600,356.400 35.780,356.400 36.000 C 356.400 36.220,356.040 36.400,355.600 36.400 C 355.160 36.400,354.800 36.580,354.800 36.800 C 354.800 37.020,354.080 37.200,353.200 37.200 C 352.320 37.200,351.600 37.020,351.600 36.800 C 351.600 36.580,351.150 36.400,350.600 36.400 C 350.050 36.400,349.600 36.220,349.600 36.000 C 349.600 35.780,349.240 35.600,348.800 35.600 C 348.360 35.600,348.000 35.420,348.000 35.200 C 348.000 34.980,347.640 34.800,347.200 34.800 C 346.760 34.800,346.400 34.620,346.400 34.400 C 346.400 34.180,346.040 34.000,345.600 34.000 C 345.160 34.000,344.800 33.820,344.800 33.600 C 344.800 33.380,344.440 33.200,344.000 33.200 C 343.560 33.200,343.200 33.020,343.200 32.800 C 343.200 32.580,342.660 32.400,342.000 32.400 C 341.340 32.400,340.800 32.220,340.800 32.000 C 340.800 31.780,340.260 31.600,339.600 31.600 C 338.940 31.600,338.400 31.420,338.400 31.200 C 338.400 30.980,338.128 30.800,337.796 30.800 C 336.903 30.800,333.624 29.067,333.611 28.588 C 333.605 28.362,333.240 27.917,332.800 27.600 C 332.243 27.198,332.000 26.565,332.000 25.512 C 332.000 24.680,331.820 24.000,331.600 24.000 C 331.380 24.000,331.200 23.100,331.200 22.000 C 331.200 20.900,331.041 20.000,330.848 20.000 C 330.654 20.000,330.367 18.290,330.210 16.201 C 330.054 14.111,329.762 12.300,329.563 12.177 C 329.363 12.054,329.200 11.153,329.200 10.176 C 329.200 9.199,329.020 8.400,328.800 8.400 C 328.580 8.400,328.400 8.040,328.400 7.600 C 328.400 6.836,328.133 6.800,322.400 6.800 C 316.727 6.800,316.400 6.842,316.400 7.576 M237.900 36.157 C 237.515 36.449,237.200 36.973,237.200 37.320 C 237.200 37.668,237.020 38.064,236.800 38.200 C 236.580 38.336,236.400 39.236,236.400 40.200 C 236.400 41.164,236.220 42.064,236.000 42.200 C 235.780 42.336,235.600 43.236,235.600 44.200 C 235.600 45.164,235.420 46.064,235.200 46.200 C 234.980 46.336,234.800 47.211,234.800 48.144 C 234.800 49.077,234.638 50.011,234.441 50.220 C 234.244 50.429,233.983 51.320,233.861 52.200 C 233.740 53.080,233.441 54.790,233.197 56.000 C 232.953 57.210,232.655 58.965,232.536 59.900 C 232.417 60.835,232.158 61.600,231.960 61.600 C 231.762 61.600,231.600 61.960,231.600 62.400 C 231.600 62.840,231.420 63.200,231.200 63.200 C 230.980 63.200,230.800 63.560,230.800 64.000 C 230.800 64.440,230.570 64.800,230.288 64.800 C 230.007 64.800,229.517 65.160,229.200 65.600 C 228.861 66.070,228.165 66.400,227.512 66.400 C 226.900 66.400,226.400 66.580,226.400 66.800 C 226.400 67.020,226.011 67.200,225.535 67.200 C 224.576 67.200,220.591 68.286,219.505 68.843 C 219.123 69.040,218.538 69.200,218.205 69.200 C 217.872 69.200,217.600 69.380,217.600 69.600 C 217.600 69.820,217.240 70.000,216.800 70.000 C 216.360 70.000,216.000 70.180,216.000 70.400 C 216.000 70.620,215.640 70.800,215.200 70.800 C 214.760 70.800,214.400 70.980,214.400 71.200 C 214.400 71.420,214.040 71.600,213.600 71.600 C 213.160 71.600,212.800 71.746,212.800 71.925 C 212.800 72.104,212.170 72.498,211.400 72.800 C 210.630 73.102,210.000 73.496,210.000 73.675 C 210.000 73.854,209.190 74.000,208.200 74.000 C 207.210 74.000,206.400 73.854,206.400 73.675 C 206.400 73.496,205.770 73.102,205.000 72.800 C 204.230 72.498,203.600 72.104,203.600 71.925 C 203.600 71.746,203.280 71.600,202.888 71.600 C 202.497 71.600,201.917 71.240,201.600 70.800 C 201.283 70.360,200.743 70.000,200.400 70.000 C 200.057 70.000,199.517 69.640,199.200 69.200 C 198.883 68.760,198.325 68.400,197.961 68.400 C 197.596 68.400,197.074 68.130,196.800 67.800 C 196.526 67.470,196.004 67.200,195.639 67.200 C 195.275 67.200,194.717 66.840,194.400 66.400 C 194.083 65.960,193.543 65.600,193.200 65.600 C 192.857 65.600,192.317 65.240,192.000 64.800 C 191.683 64.360,191.115 64.000,190.739 64.000 C 190.362 64.000,189.940 63.640,189.800 63.200 C 189.660 62.760,189.238 62.400,188.861 62.400 C 188.485 62.400,187.917 62.040,187.600 61.600 C 187.283 61.160,186.743 60.800,186.400 60.800 C 186.057 60.800,185.517 60.440,185.200 60.000 C 183.813 58.076,182.460 58.791,176.622 64.528 C 171.380 69.680,169.645 72.400,171.600 72.400 C 171.820 72.400,172.000 72.720,172.000 73.112 C 172.000 73.503,172.360 74.083,172.800 74.400 C 173.240 74.717,173.600 75.257,173.600 75.600 C 173.600 75.943,173.960 76.483,174.400 76.800 C 174.840 77.117,175.200 77.657,175.200 78.000 C 175.200 78.343,175.560 78.883,176.000 79.200 C 176.440 79.517,176.800 80.057,176.800 80.400 C 176.800 80.743,177.160 81.283,177.600 81.600 C 178.040 81.917,178.400 82.407,178.400 82.688 C 178.400 82.970,178.580 83.200,178.800 83.200 C 179.020 83.200,179.200 83.470,179.200 83.800 C 179.200 84.130,179.380 84.400,179.600 84.400 C 179.820 84.400,180.000 84.670,180.000 85.000 C 180.000 85.330,180.180 85.600,180.400 85.600 C 180.620 85.600,180.800 85.870,180.800 86.200 C 180.800 86.530,180.980 86.800,181.200 86.800 C 181.420 86.800,181.600 87.030,181.600 87.312 C 181.600 87.593,181.960 88.083,182.400 88.400 C 182.840 88.717,183.200 89.257,183.200 89.600 C 183.200 89.943,183.560 90.483,184.000 90.800 C 184.440 91.117,184.800 91.697,184.800 92.088 C 184.800 92.480,184.980 92.800,185.200 92.800 C 185.420 92.800,185.600 93.160,185.600 93.600 C 185.600 94.040,185.780 94.400,186.000 94.400 C 186.220 94.400,186.400 94.940,186.400 95.600 C 186.400 96.260,186.220 96.800,186.000 96.800 C 185.780 96.800,185.600 97.340,185.600 98.000 C 185.600 98.660,185.420 99.200,185.200 99.200 C 184.980 99.200,184.800 99.560,184.800 100.000 C 184.800 100.440,184.620 100.800,184.400 100.800 C 184.180 100.800,184.000 101.160,184.000 101.600 C 184.000 102.040,183.820 102.400,183.600 102.400 C 183.380 102.400,183.200 102.760,183.200 103.200 C 183.200 103.640,183.020 104.000,182.800 104.000 C 182.580 104.000,182.400 104.360,182.400 104.800 C 182.400 105.240,182.220 105.600,182.000 105.600 C 181.780 105.600,181.600 105.870,181.600 106.200 C 181.600 106.530,181.420 106.800,181.200 106.800 C 180.980 106.800,180.800 107.340,180.800 108.000 C 180.800 108.660,180.620 109.200,180.400 109.200 C 180.180 109.200,180.000 109.549,180.000 109.976 C 180.000 110.403,179.820 110.864,179.600 111.000 C 179.380 111.136,179.200 111.676,179.200 112.200 C 179.200 112.724,179.020 113.264,178.800 113.400 C 178.580 113.536,178.400 113.961,178.400 114.344 C 178.400 115.219,177.501 117.193,177.100 117.197 C 176.935 117.199,176.800 117.560,176.800 118.000 C 176.800 118.533,176.533 118.800,176.000 118.800 C 175.560 118.800,175.200 118.980,175.200 119.200 C 175.200 119.420,174.840 119.600,174.400 119.600 C 173.960 119.600,173.600 119.780,173.600 120.000 C 173.600 120.220,172.981 120.400,172.224 120.400 C 171.467 120.400,170.736 120.580,170.600 120.800 C 170.464 121.020,169.553 121.200,168.576 121.200 C 167.599 121.200,166.800 121.380,166.800 121.600 C 166.800 121.820,165.900 122.000,164.800 122.000 C 163.700 122.000,162.800 122.180,162.800 122.400 C 162.800 122.620,161.900 122.800,160.800 122.800 C 159.700 122.800,158.800 122.980,158.800 123.200 C 158.800 123.420,157.900 123.600,156.800 123.600 C 155.700 123.600,154.800 123.780,154.800 124.000 C 154.800 124.220,153.900 124.400,152.800 124.400 C 151.700 124.400,150.800 124.580,150.800 124.800 C 150.800 125.020,150.427 125.200,149.971 125.200 C 148.140 125.200,148.000 125.838,148.000 134.200 C 148.000 142.909,148.080 143.200,150.491 143.200 C 151.233 143.200,152.011 143.362,152.220 143.559 C 152.633 143.949,153.758 144.147,159.700 144.873 C 161.845 145.135,163.600 145.496,163.600 145.675 C 163.600 145.854,164.500 146.000,165.600 146.000 C 166.700 146.000,167.600 146.180,167.600 146.400 C 167.600 146.620,168.500 146.800,169.600 146.800 C 170.700 146.800,171.600 146.980,171.600 147.200 C 171.600 147.420,172.230 147.600,173.000 147.600 C 173.770 147.600,174.400 147.780,174.400 148.000 C 174.400 148.220,174.678 148.400,175.018 148.400 C 175.358 148.400,176.078 148.842,176.618 149.382 C 177.158 149.922,177.600 150.642,177.600 150.982 C 177.600 151.322,177.780 151.600,178.000 151.600 C 178.220 151.600,178.400 152.140,178.400 152.800 C 178.400 153.460,178.580 154.000,178.800 154.000 C 179.020 154.000,179.200 154.540,179.200 155.200 C 179.200 155.860,179.380 156.400,179.600 156.400 C 179.820 156.400,180.000 156.839,180.000 157.376 C 180.000 157.913,180.180 158.464,180.400 158.600 C 180.620 158.736,180.800 159.287,180.800 159.824 C 180.800 160.361,180.980 160.800,181.200 160.800 C 181.420 160.800,181.600 161.160,181.600 161.600 C 181.600 162.040,181.780 162.400,182.000 162.400 C 182.220 162.400,182.400 162.760,182.400 163.200 C 182.400 163.640,182.580 164.000,182.800 164.000 C 183.020 164.000,183.200 164.360,183.200 164.800 C 183.200 165.240,183.380 165.600,183.600 165.600 C 183.820 165.600,184.000 165.960,184.000 166.400 C 184.000 166.840,184.180 167.200,184.400 167.200 C 184.620 167.200,184.800 167.560,184.800 168.000 C 184.800 168.440,184.980 168.800,185.200 168.800 C 185.420 168.800,185.600 169.160,185.600 169.600 C 185.600 170.040,185.780 170.400,186.000 170.400 C 186.220 170.400,186.400 170.940,186.400 171.600 C 186.400 172.260,186.220 172.800,186.000 172.800 C 185.780 172.800,185.600 173.340,185.600 174.000 C 185.600 174.660,185.420 175.200,185.200 175.200 C 184.980 175.200,184.800 175.520,184.800 175.912 C 184.800 176.303,184.440 176.883,184.000 177.200 C 183.560 177.517,183.200 178.057,183.200 178.400 C 183.200 178.743,182.840 179.283,182.400 179.600 C 181.960 179.917,181.600 180.457,181.600 180.800 C 181.600 181.143,181.240 181.683,180.800 182.000 C 180.360 182.317,180.000 182.805,180.000 183.085 C 180.000 183.364,179.640 183.818,179.200 184.093 C 178.760 184.368,178.400 184.869,178.400 185.208 C 178.400 185.546,178.040 186.083,177.600 186.400 C 177.160 186.717,176.800 187.257,176.800 187.600 C 176.800 187.943,176.440 188.483,176.000 188.800 C 175.560 189.117,175.200 189.657,175.200 190.000 C 175.200 190.343,174.840 190.883,174.400 191.200 C 173.960 191.517,173.600 192.057,173.600 192.400 C 173.600 192.743,173.240 193.283,172.800 193.600 C 172.360 193.917,172.000 194.420,172.000 194.717 C 172.000 195.014,171.730 195.527,171.400 195.857 C 170.250 197.008,170.836 197.880,176.421 203.322 C 182.472 209.218,183.809 209.930,185.200 208.000 C 185.517 207.560,186.057 207.200,186.400 207.200 C 186.743 207.200,187.283 206.840,187.600 206.400 C 187.917 205.960,188.485 205.600,188.861 205.600 C 189.238 205.600,189.660 205.240,189.800 204.800 C 189.940 204.360,190.402 204.000,190.827 204.000 C 191.252 204.000,191.600 203.823,191.600 203.608 C 191.600 203.392,192.095 203.093,192.700 202.944 C 193.305 202.794,194.091 202.341,194.447 201.936 C 194.803 201.531,195.348 201.200,195.659 201.200 C 195.969 201.200,196.483 200.840,196.800 200.400 C 197.117 199.960,197.625 199.600,197.928 199.600 C 198.231 199.600,198.983 199.060,199.600 198.400 C 200.217 197.740,200.969 197.200,201.272 197.200 C 201.575 197.200,202.083 196.840,202.400 196.400 C 202.717 195.960,203.297 195.600,203.688 195.600 C 204.080 195.600,204.400 195.420,204.400 195.200 C 204.400 194.980,204.760 194.800,205.200 194.800 C 205.640 194.800,206.000 194.620,206.000 194.400 C 206.000 194.180,206.900 194.000,208.000 194.000 C 209.100 194.000,210.000 194.180,210.000 194.400 C 210.000 194.620,210.360 194.800,210.800 194.800 C 211.240 194.800,211.600 194.980,211.600 195.200 C 211.600 195.420,211.945 195.600,212.367 195.600 C 212.788 195.600,213.193 195.735,213.267 195.900 C 213.487 196.395,218.454 198.800,219.256 198.800 C 219.665 198.800,220.000 198.980,220.000 199.200 C 220.000 199.420,220.540 199.600,221.200 199.600 C 221.860 199.600,222.400 199.780,222.400 200.000 C 222.400 200.220,222.940 200.400,223.600 200.400 C 224.260 200.400,224.800 200.580,224.800 200.800 C 224.800 201.020,225.340 201.200,226.000 201.200 C 226.660 201.200,227.200 201.380,227.200 201.600 C 227.200 201.820,227.560 202.000,228.000 202.000 C 228.440 202.000,228.800 202.180,228.800 202.400 C 228.800 202.620,229.157 202.800,229.593 202.800 C 230.617 202.800,232.400 206.222,232.400 208.187 C 232.400 208.964,232.580 209.600,232.800 209.600 C 233.020 209.600,233.200 210.500,233.200 211.600 C 233.200 212.700,233.380 213.600,233.600 213.600 C 233.820 213.600,234.000 214.500,234.000 215.600 C 234.000 216.700,234.180 217.600,234.400 217.600 C 234.620 217.600,234.800 218.399,234.800 219.376 C 234.800 220.353,234.980 221.264,235.200 221.400 C 235.420 221.536,235.600 222.447,235.600 223.424 C 235.600 224.401,235.780 225.200,236.000 225.200 C 236.220 225.200,236.400 226.100,236.400 227.200 C 236.400 228.300,236.580 229.200,236.800 229.200 C 237.020 229.200,237.200 229.740,237.200 230.400 L 237.200 231.600 246.200 231.600 L 255.200 231.600 255.200 229.600 C 255.200 228.500,255.380 227.600,255.600 227.600 C 255.820 227.600,256.000 226.700,256.000 225.600 C 256.000 224.500,256.180 223.600,256.400 223.600 C 256.620 223.600,256.800 222.700,256.800 221.600 C 256.800 220.500,256.980 219.600,257.200 219.600 C 257.420 219.600,257.600 218.801,257.600 217.824 C 257.600 216.847,257.780 215.936,258.000 215.800 C 258.220 215.664,258.400 214.753,258.400 213.776 C 258.400 212.799,258.580 212.000,258.800 212.000 C 259.020 212.000,259.200 211.100,259.200 210.000 C 259.200 208.900,259.380 208.000,259.600 208.000 C 259.820 208.000,260.000 207.460,260.000 206.800 C 260.000 206.140,260.180 205.600,260.400 205.600 C 260.620 205.600,260.800 205.317,260.800 204.971 C 260.800 203.825,265.013 201.200,266.851 201.200 C 267.237 201.200,267.664 201.020,267.800 200.800 C 267.936 200.580,268.487 200.400,269.024 200.400 C 269.561 200.400,270.000 200.220,270.000 200.000 C 270.000 199.780,270.540 199.600,271.200 199.600 C 271.860 199.600,272.400 199.420,272.400 199.200 C 272.400 198.980,272.760 198.800,273.200 198.800 C 273.640 198.800,274.000 198.620,274.000 198.400 C 274.000 198.180,274.360 198.000,274.800 198.000 C 275.240 198.000,275.600 197.820,275.600 197.600 C 275.600 197.380,275.960 197.200,276.400 197.200 C 276.840 197.200,277.200 197.020,277.200 196.800 C 277.200 196.580,277.560 196.400,278.000 196.400 C 278.440 196.400,278.800 196.220,278.800 196.000 C 278.800 195.780,279.160 195.600,279.600 195.600 C 280.040 195.600,280.400 195.420,280.400 195.200 C 280.400 194.980,280.839 194.800,281.376 194.800 C 281.913 194.800,282.464 194.620,282.600 194.400 C 282.736 194.180,283.557 194.000,284.424 194.000 C 285.291 194.000,286.000 194.180,286.000 194.400 C 286.000 194.620,286.360 194.800,286.800 194.800 C 287.240 194.800,287.600 194.980,287.600 195.200 C 287.600 195.420,287.960 195.600,288.400 195.600 C 288.840 195.600,289.200 195.780,289.200 196.000 C 289.200 196.220,289.470 196.400,289.800 196.400 C 290.130 196.400,290.400 196.538,290.400 196.706 C 290.400 196.874,291.120 197.456,292.000 198.000 C 292.880 198.544,293.600 199.126,293.600 199.294 C 293.600 199.462,293.825 199.600,294.100 199.600 C 294.375 199.601,295.123 200.051,295.762 200.600 C 296.401 201.150,297.049 201.600,297.201 201.600 C 297.353 201.600,297.893 201.960,298.400 202.400 C 298.907 202.840,299.615 203.200,299.973 203.200 C 300.331 203.200,300.883 203.560,301.200 204.000 C 301.517 204.440,302.057 204.800,302.400 204.800 C 302.743 204.800,303.283 205.160,303.600 205.600 C 303.917 206.040,304.457 206.400,304.800 206.400 C 305.143 206.400,305.683 206.760,306.000 207.200 C 306.317 207.640,306.897 208.000,307.288 208.000 C 307.680 208.000,308.000 208.180,308.000 208.400 C 308.000 209.548,309.913 208.508,312.598 205.900 C 314.239 204.305,316.835 201.830,318.366 200.400 C 321.366 197.597,321.885 196.271,320.400 195.200 C 319.960 194.883,319.600 194.343,319.600 194.000 C 319.600 193.657,319.240 193.117,318.800 192.800 C 318.360 192.483,318.000 191.943,318.000 191.600 C 318.000 191.257,317.640 190.717,317.200 190.400 C 316.760 190.083,316.400 189.543,316.400 189.200 C 316.400 188.857,316.040 188.317,315.600 188.000 C 315.160 187.683,314.800 187.143,314.800 186.800 C 314.800 186.457,314.440 185.917,314.000 185.600 C 313.560 185.283,313.200 184.833,313.200 184.600 C 313.200 184.367,312.840 183.917,312.400 183.600 C 311.960 183.283,311.600 182.769,311.600 182.459 C 311.600 182.148,311.269 181.603,310.864 181.247 C 310.459 180.891,310.006 180.105,309.856 179.500 C 309.707 178.895,309.408 178.400,309.192 178.400 C 308.977 178.400,308.800 178.080,308.800 177.688 C 308.800 177.297,308.440 176.717,308.000 176.400 C 307.560 176.083,307.200 175.503,307.200 175.112 C 307.200 174.720,307.020 174.400,306.800 174.400 C 306.578 174.400,306.400 173.333,306.400 172.000 C 306.400 170.667,306.578 169.600,306.800 169.600 C 307.020 169.600,307.200 169.240,307.200 168.800 C 307.200 168.360,307.380 168.000,307.600 168.000 C 307.820 168.000,308.000 167.640,308.000 167.200 C 308.000 166.760,308.180 166.400,308.400 166.400 C 308.620 166.400,308.800 166.040,308.800 165.600 C 308.800 165.160,308.972 164.800,309.182 164.800 C 309.392 164.800,309.682 164.168,309.827 163.396 C 309.972 162.623,310.250 161.893,310.445 161.772 C 310.640 161.651,310.800 161.113,310.800 160.576 C 310.800 160.039,310.980 159.600,311.200 159.600 C 311.420 159.600,311.600 159.060,311.600 158.400 C 311.600 157.740,311.780 157.200,312.000 157.200 C 312.220 157.200,312.400 156.840,312.400 156.400 C 312.400 155.960,312.580 155.600,312.800 155.600 C 313.020 155.600,313.200 155.060,313.200 154.400 C 313.200 153.740,313.380 153.200,313.600 153.200 C 313.820 153.200,314.000 152.744,314.000 152.187 C 314.000 151.060,316.379 148.400,317.387 148.400 C 317.724 148.400,318.000 148.220,318.000 148.000 C 318.000 147.780,318.540 147.600,319.200 147.600 C 319.860 147.600,320.400 147.420,320.400 147.200 C 320.400 146.980,321.300 146.800,322.400 146.800 C 323.500 146.800,324.400 146.620,324.400 146.400 C 324.400 146.180,325.300 146.000,326.400 146.000 C 327.500 146.000,328.400 145.837,328.400 145.637 C 328.400 145.438,330.110 145.146,332.200 144.990 C 334.290 144.833,336.000 144.546,336.000 144.352 C 336.000 144.159,336.900 144.000,338.000 144.000 C 339.100 144.000,340.000 143.820,340.000 143.600 C 340.000 143.380,340.900 143.200,342.000 143.200 L 344.000 143.200 344.000 134.200 L 344.000 125.200 342.800 125.200 C 342.140 125.200,341.600 125.020,341.600 124.800 C 341.600 124.580,340.700 124.400,339.600 124.400 C 338.500 124.400,337.600 124.220,337.600 124.000 C 337.600 123.780,336.700 123.600,335.600 123.600 C 334.500 123.600,333.600 123.420,333.600 123.200 C 333.600 122.980,332.700 122.800,331.600 122.800 C 330.500 122.800,329.600 122.620,329.600 122.400 C 329.600 122.180,328.801 122.000,327.824 122.000 C 326.847 122.000,325.936 121.820,325.800 121.600 C 325.664 121.380,324.753 121.200,323.776 121.200 C 322.799 121.200,322.000 121.020,322.000 120.800 C 322.000 120.580,321.100 120.400,320.000 120.400 C 318.900 120.400,318.000 120.220,318.000 120.000 C 318.000 119.780,317.724 119.600,317.387 119.600 C 316.379 119.600,314.000 116.940,314.000 115.813 C 314.000 115.256,313.820 114.800,313.600 114.800 C 313.380 114.800,313.200 114.260,313.200 113.600 C 313.200 112.940,313.020 112.400,312.800 112.400 C 312.580 112.400,312.400 111.961,312.400 111.424 C 312.400 110.887,312.220 110.336,312.000 110.200 C 311.780 110.064,311.600 109.513,311.600 108.976 C 311.600 108.439,311.420 108.000,311.200 108.000 C 310.980 108.000,310.800 107.640,310.800 107.200 C 310.800 106.760,310.636 106.400,310.435 106.400 C 310.234 106.400,309.949 105.680,309.800 104.800 C 309.651 103.920,309.366 103.200,309.165 103.200 C 308.964 103.200,308.800 102.840,308.800 102.400 C 308.800 101.960,308.620 101.600,308.400 101.600 C 308.180 101.600,308.000 101.240,308.000 100.800 C 308.000 100.360,307.820 100.000,307.600 100.000 C 307.380 100.000,307.200 99.640,307.200 99.200 C 307.200 98.760,307.020 98.400,306.800 98.400 C 306.578 98.400,306.400 97.333,306.400 96.000 C 306.400 94.667,306.578 93.600,306.800 93.600 C 307.020 93.600,307.200 93.240,307.200 92.800 C 307.200 92.360,307.380 92.000,307.600 92.000 C 307.820 92.000,308.000 91.706,308.000 91.347 C 308.000 90.988,308.331 90.403,308.736 90.047 C 309.141 89.691,309.594 88.905,309.744 88.300 C 309.893 87.695,310.192 87.200,310.408 87.200 C 310.623 87.200,310.800 86.970,310.800 86.688 C 310.800 86.407,311.160 85.917,311.600 85.600 C 312.040 85.283,312.400 84.743,312.400 84.400 C 312.400 84.057,312.760 83.517,313.200 83.200 C 313.640 82.883,314.000 82.343,314.000 82.000 C 314.000 81.657,314.360 81.117,314.800 80.800 C 315.240 80.483,315.600 79.943,315.600 79.600 C 315.600 79.257,315.960 78.717,316.400 78.400 C 316.840 78.083,317.200 77.543,317.200 77.200 C 317.200 76.857,317.560 76.317,318.000 76.000 C 318.440 75.683,318.800 75.143,318.800 74.800 C 318.800 74.457,319.160 73.917,319.600 73.600 C 320.040 73.283,320.400 72.703,320.400 72.312 C 320.400 71.920,320.580 71.600,320.800 71.600 C 321.741 71.600,321.057 70.094,319.527 68.800 C 318.617 68.030,316.013 65.555,313.741 63.300 C 310.013 59.600,308.000 58.303,308.000 59.600 C 308.000 59.820,307.680 60.000,307.288 60.000 C 306.897 60.000,306.317 60.360,306.000 60.800 C 305.683 61.240,305.143 61.600,304.800 61.600 C 304.457 61.600,303.917 61.960,303.600 62.400 C 303.283 62.840,302.743 63.200,302.400 63.200 C 302.057 63.200,301.517 63.560,301.200 64.000 C 300.883 64.440,300.343 64.800,300.000 64.800 C 299.657 64.800,299.117 65.160,298.800 65.600 C 298.483 66.040,297.903 66.400,297.512 66.400 C 297.120 66.400,296.800 66.567,296.800 66.771 C 296.800 66.975,296.080 67.460,295.200 67.848 C 294.320 68.236,293.600 68.699,293.600 68.877 C 293.600 69.055,293.364 69.200,293.075 69.200 C 292.787 69.200,292.164 69.560,291.692 70.000 C 291.220 70.440,290.686 70.800,290.505 70.800 C 290.324 70.800,289.917 71.160,289.600 71.600 C 289.283 72.040,288.703 72.400,288.312 72.400 C 287.920 72.400,287.600 72.580,287.600 72.800 C 287.600 73.020,287.240 73.200,286.800 73.200 C 286.360 73.200,286.000 73.380,286.000 73.600 C 286.000 73.820,285.280 74.000,284.400 74.000 C 283.520 74.000,282.800 73.820,282.800 73.600 C 282.800 73.380,282.440 73.200,282.000 73.200 C 281.560 73.200,281.200 73.020,281.200 72.800 C 281.200 72.580,280.840 72.400,280.400 72.400 C 279.960 72.400,279.600 72.220,279.600 72.000 C 279.600 71.780,279.240 71.600,278.800 71.600 C 278.360 71.600,278.000 71.464,278.000 71.298 C 278.000 71.132,277.415 70.793,276.700 70.546 C 274.473 69.775,272.608 69.009,272.400 68.780 C 272.089 68.439,267.995 67.200,267.178 67.200 C 266.776 67.200,266.336 67.020,266.200 66.800 C 266.064 66.580,265.513 66.400,264.976 66.400 C 264.439 66.400,264.000 66.220,264.000 66.000 C 264.000 65.780,263.722 65.600,263.382 65.600 C 262.582 65.600,260.800 63.818,260.800 63.018 C 260.800 62.678,260.620 62.400,260.400 62.400 C 260.180 62.400,260.000 61.860,260.000 61.200 C 260.000 60.540,259.820 60.000,259.600 60.000 C 259.380 60.000,259.200 59.100,259.200 58.000 C 259.200 56.900,259.020 56.000,258.800 56.000 C 258.580 56.000,258.400 55.100,258.400 54.000 C 258.400 52.900,258.220 52.000,258.000 52.000 C 257.780 52.000,257.600 51.190,257.600 50.200 C 257.600 49.210,257.420 48.400,257.200 48.400 C 256.980 48.400,256.800 47.500,256.800 46.400 C 256.800 45.300,256.620 44.400,256.400 44.400 C 256.180 44.400,256.000 43.500,256.000 42.400 C 256.000 41.300,255.820 40.400,255.600 40.400 C 255.380 40.400,255.200 39.577,255.200 38.571 C 255.200 35.622,255.129 35.598,246.329 35.613 C 240.536 35.622,238.425 35.759,237.900 36.157 M253.420 85.559 C 253.629 85.756,254.520 86.014,255.400 86.131 C 258.587 86.554,261.600 87.287,261.600 87.640 C 261.600 87.838,262.140 88.000,262.800 88.000 C 263.460 88.000,264.000 88.180,264.000 88.400 C 264.000 88.620,264.360 88.800,264.800 88.800 C 265.240 88.800,265.600 88.980,265.600 89.200 C 265.600 89.420,265.960 89.600,266.400 89.600 C 266.840 89.600,267.200 89.780,267.200 90.000 C 267.200 90.220,267.560 90.400,268.000 90.400 C 268.440 90.400,268.800 90.580,268.800 90.800 C 268.800 91.020,269.160 91.200,269.600 91.200 C 270.040 91.200,270.400 91.380,270.400 91.600 C 270.400 91.820,270.630 92.000,270.912 92.000 C 271.193 92.000,271.683 92.360,272.000 92.800 C 272.317 93.240,272.806 93.600,273.086 93.600 C 273.367 93.600,274.515 94.500,275.639 95.600 C 276.762 96.700,277.851 97.600,278.059 97.600 C 278.524 97.600,280.400 99.439,280.400 99.894 C 280.400 100.076,281.300 101.169,282.400 102.322 C 283.500 103.475,284.400 104.595,284.400 104.809 C 284.400 105.024,284.580 105.200,284.800 105.200 C 285.020 105.200,285.200 105.470,285.200 105.800 C 285.200 106.130,285.380 106.400,285.600 106.400 C 285.820 106.400,286.000 106.630,286.000 106.912 C 286.000 107.193,286.360 107.683,286.800 108.000 C 287.240 108.317,287.600 108.897,287.600 109.288 C 287.600 109.680,287.780 110.000,288.000 110.000 C 288.220 110.000,288.400 110.360,288.400 110.800 C 288.400 111.240,288.580 111.600,288.800 111.600 C 289.020 111.600,289.200 111.960,289.200 112.400 C 289.200 112.840,289.380 113.200,289.600 113.200 C 289.820 113.200,290.000 113.416,290.000 113.680 C 290.000 114.612,291.381 118.800,291.689 118.800 C 291.860 118.800,292.000 119.419,292.000 120.176 C 292.000 120.933,292.180 121.664,292.400 121.800 C 292.620 121.936,292.800 122.847,292.800 123.824 C 292.800 124.801,292.988 125.600,293.217 125.600 C 293.779 125.600,293.465 139.462,292.837 142.400 C 292.578 143.610,292.264 145.187,292.139 145.904 C 292.014 146.621,291.751 147.306,291.556 147.427 C 291.360 147.548,291.200 148.076,291.200 148.600 C 291.200 149.124,291.036 149.654,290.835 149.778 C 290.634 149.903,290.348 150.723,290.200 151.602 C 290.051 152.481,289.766 153.200,289.565 153.200 C 289.364 153.200,289.200 153.560,289.200 154.000 C 289.200 154.440,289.020 154.800,288.800 154.800 C 288.580 154.800,288.400 155.160,288.400 155.600 C 288.400 156.040,288.220 156.400,288.000 156.400 C 287.780 156.400,287.600 156.720,287.600 157.112 C 287.600 157.503,287.240 158.083,286.800 158.400 C 286.360 158.717,286.000 159.257,286.000 159.600 C 286.000 159.943,285.640 160.483,285.200 160.800 C 284.760 161.117,284.396 161.652,284.391 161.988 C 284.386 162.325,283.666 163.219,282.791 163.976 C 281.916 164.733,281.200 165.588,281.200 165.876 C 281.200 166.164,281.055 166.400,280.877 166.400 C 280.447 166.400,278.259 168.201,276.138 170.300 C 275.194 171.235,274.186 172.000,273.899 172.000 C 273.612 172.000,273.117 172.360,272.800 172.800 C 272.483 173.240,272.021 173.600,271.774 173.600 C 271.526 173.600,270.998 173.960,270.600 174.400 C 270.202 174.840,269.634 175.200,269.338 175.200 C 269.042 175.200,268.800 175.380,268.800 175.600 C 268.800 175.820,268.440 176.000,268.000 176.000 C 267.560 176.000,267.200 176.180,267.200 176.400 C 267.200 176.620,266.840 176.800,266.400 176.800 C 265.960 176.800,265.600 176.980,265.600 177.200 C 265.600 177.420,265.240 177.600,264.800 177.600 C 264.360 177.600,264.000 177.780,264.000 178.000 C 264.000 178.220,263.460 178.400,262.800 178.400 C 262.140 178.400,261.600 178.580,261.600 178.800 C 261.600 179.020,261.060 179.200,260.400 179.200 C 259.740 179.200,259.200 179.380,259.200 179.600 C 259.200 179.820,258.581 180.000,257.824 180.000 C 257.067 180.000,256.336 180.180,256.200 180.400 C 256.064 180.620,255.153 180.800,254.176 180.800 C 253.199 180.800,252.400 180.980,252.400 181.200 C 252.400 181.451,249.867 181.600,245.600 181.600 C 241.333 181.600,238.800 181.451,238.800 181.200 C 238.800 180.978,237.733 180.800,236.400 180.800 C 235.067 180.800,234.000 180.622,234.000 180.400 C 234.000 180.180,233.280 180.000,232.400 180.000 C 231.520 180.000,230.800 179.820,230.800 179.600 C 230.800 179.380,230.440 179.200,230.000 179.200 C 229.560 179.200,229.200 179.020,229.200 178.800 C 229.200 178.580,228.750 178.400,228.200 178.400 C 227.650 178.400,227.200 178.220,227.200 178.000 C 227.200 177.780,226.840 177.600,226.400 177.600 C 225.960 177.600,225.600 177.420,225.600 177.200 C 225.600 176.980,225.240 176.800,224.800 176.800 C 224.360 176.800,224.000 176.620,224.000 176.400 C 224.000 176.180,223.640 176.000,223.200 176.000 C 222.760 176.000,222.400 175.820,222.400 175.600 C 222.400 175.380,222.040 175.200,221.600 175.200 C 221.160 175.200,220.800 175.020,220.800 174.800 C 220.800 174.580,220.512 174.400,220.160 174.400 C 219.809 174.400,219.017 173.860,218.400 173.200 C 217.783 172.540,217.067 172.000,216.808 172.000 C 216.549 172.000,215.646 171.280,214.800 170.400 C 213.954 169.520,213.048 168.800,212.785 168.800 C 212.266 168.800,209.200 165.609,209.200 165.069 C 209.200 164.886,208.480 164.046,207.600 163.200 C 206.720 162.354,206.000 161.418,206.000 161.120 C 206.000 160.821,205.640 160.317,205.200 160.000 C 204.760 159.683,204.400 159.143,204.400 158.800 C 204.400 158.457,204.040 157.917,203.600 157.600 C 203.160 157.283,202.800 156.703,202.800 156.312 C 202.800 155.920,202.620 155.600,202.400 155.600 C 202.180 155.600,202.000 155.240,202.000 154.800 C 202.000 154.360,201.820 154.000,201.600 154.000 C 201.380 154.000,201.200 153.640,201.200 153.200 C 201.200 152.760,201.020 152.400,200.800 152.400 C 200.580 152.400,200.400 151.860,200.400 151.200 C 200.400 150.540,200.220 150.000,200.000 150.000 C 199.780 150.000,199.600 149.460,199.600 148.800 C 199.600 148.140,199.420 147.600,199.200 147.600 C 198.980 147.600,198.800 147.060,198.800 146.400 C 198.800 145.740,198.620 145.200,198.400 145.200 C 198.180 145.200,198.000 144.390,198.000 143.400 C 198.000 142.410,197.820 141.600,197.600 141.600 C 197.360 141.600,197.200 140.011,197.200 137.633 C 197.200 134.851,197.051 133.597,196.700 133.433 C 196.300 133.247,196.300 133.153,196.700 132.967 C 197.051 132.803,197.200 131.549,197.200 128.767 C 197.200 126.389,197.360 124.800,197.600 124.800 C 197.820 124.800,198.000 124.001,198.000 123.024 C 198.000 122.047,198.180 121.136,198.400 121.000 C 198.620 120.864,198.800 120.324,198.800 119.800 C 198.800 119.276,198.980 118.736,199.200 118.600 C 199.420 118.464,199.600 117.924,199.600 117.400 C 199.600 116.876,199.780 116.336,200.000 116.200 C 200.220 116.064,200.400 115.513,200.400 114.976 C 200.400 114.439,200.580 114.000,200.800 114.000 C 201.020 114.000,201.200 113.640,201.200 113.200 C 201.200 112.760,201.380 112.400,201.600 112.400 C 201.820 112.400,202.000 112.040,202.000 111.600 C 202.000 111.160,202.180 110.800,202.400 110.800 C 202.620 110.800,202.800 110.440,202.800 110.000 C 202.800 109.560,202.980 109.200,203.200 109.200 C 203.420 109.200,203.600 108.880,203.600 108.488 C 203.600 108.097,203.960 107.517,204.400 107.200 C 204.840 106.883,205.200 106.465,205.200 106.272 C 205.200 106.079,205.740 105.417,206.400 104.800 C 207.060 104.183,207.600 103.476,207.600 103.228 C 207.600 102.980,208.141 102.197,208.803 101.489 C 213.173 96.807,214.812 95.200,215.217 95.200 C 215.471 95.200,216.183 94.660,216.800 94.000 C 217.417 93.340,218.209 92.800,218.560 92.800 C 218.912 92.800,219.200 92.620,219.200 92.400 C 219.200 92.180,219.520 92.000,219.912 92.000 C 220.303 92.000,220.883 91.640,221.200 91.200 C 221.517 90.760,222.097 90.400,222.488 90.400 C 222.880 90.400,223.200 90.220,223.200 90.000 C 223.200 89.780,223.560 89.600,224.000 89.600 C 224.440 89.600,224.800 89.420,224.800 89.200 C 224.800 88.980,225.239 88.800,225.776 88.800 C 226.313 88.800,226.864 88.620,227.000 88.400 C 227.136 88.180,227.597 88.000,228.024 88.000 C 228.451 88.000,228.800 87.833,228.800 87.629 C 228.800 87.425,229.790 87.134,231.000 86.983 C 232.210 86.832,233.200 86.549,233.200 86.354 C 233.200 86.159,234.100 86.000,235.200 86.000 C 236.300 86.000,237.200 85.820,237.200 85.600 C 237.200 85.092,252.884 85.052,253.420 85.559 M353.002 150.798 C 352.603 151.239,352.407 151.600,352.567 151.600 C 352.988 151.600,354.128 150.395,353.912 150.179 C 353.811 150.078,353.402 150.356,353.002 150.798 M307.488 299.733 C 307.042 300.866,307.115 301.445,307.638 300.922 C 307.878 300.682,308.008 300.151,307.926 299.742 C 307.782 299.026,307.766 299.026,307.488 299.733 M40.400 328.824 C 40.400 329.804,40.558 330.349,40.800 330.200 C 41.020 330.064,41.200 329.333,41.200 328.576 C 41.200 327.819,41.020 327.200,40.800 327.200 C 40.580 327.200,40.400 327.931,40.400 328.824 " stroke="none" fill="#04c2d2" fill-rule="evenodd"></path><path id="path1" d="M197.806 0.269 C 195.389 0.357,193.238 0.602,193.026 0.814 C 192.813 1.027,190.696 1.200,188.320 1.200 C 185.707 1.200,184.000 1.358,184.000 1.600 C 184.000 1.829,182.800 2.000,181.200 2.000 C 179.600 2.000,178.400 2.171,178.400 2.400 C 178.400 2.633,177.067 2.800,175.200 2.800 C 173.333 2.800,172.000 2.967,172.000 3.200 C 172.000 3.426,170.867 3.600,169.400 3.600 C 167.933 3.600,166.800 3.774,166.800 4.000 C 166.800 4.222,165.733 4.400,164.400 4.400 C 163.067 4.400,162.000 4.578,162.000 4.800 C 162.000 5.022,160.941 5.200,159.624 5.200 C 158.317 5.200,157.136 5.380,157.000 5.600 C 156.864 5.820,155.773 6.000,154.576 6.000 C 153.379 6.000,152.400 6.145,152.400 6.322 C 152.400 6.499,151.635 6.688,150.700 6.742 C 149.765 6.796,148.940 7.011,148.867 7.220 C 148.793 7.429,147.848 7.600,146.767 7.600 C 145.685 7.600,144.800 7.780,144.800 8.000 C 144.800 8.220,143.900 8.400,142.800 8.400 C 141.700 8.400,140.800 8.554,140.800 8.742 C 140.800 8.931,139.316 9.209,137.503 9.360 C 135.689 9.511,134.033 9.807,133.823 10.017 C 133.612 10.228,132.666 10.400,131.720 10.400 C 130.774 10.400,130.000 10.580,130.000 10.800 C 130.000 11.020,129.280 11.200,128.400 11.200 C 127.520 11.200,126.800 11.380,126.800 11.600 C 126.800 11.820,126.080 12.000,125.200 12.000 C 124.320 12.000,123.600 12.180,123.600 12.400 C 123.600 12.620,123.006 12.800,122.280 12.800 C 121.554 12.800,120.789 12.971,120.579 13.181 C 120.370 13.390,119.535 13.606,118.725 13.661 C 117.915 13.715,117.341 13.904,117.449 14.080 C 117.558 14.256,116.996 14.400,116.200 14.400 C 115.337 14.400,114.853 14.561,115.000 14.800 C 115.144 15.033,114.737 15.200,114.024 15.200 C 113.351 15.200,112.800 15.380,112.800 15.600 C 112.800 15.820,112.260 16.000,111.600 16.000 C 110.940 16.000,110.400 16.180,110.400 16.400 C 110.400 16.620,110.040 16.800,109.600 16.800 C 109.160 16.800,108.800 16.980,108.800 17.200 C 108.800 17.420,108.260 17.600,107.600 17.600 C 106.940 17.600,106.400 17.780,106.400 18.000 C 106.400 18.220,106.040 18.400,105.600 18.400 C 105.160 18.400,104.800 18.580,104.800 18.800 C 104.800 19.020,104.260 19.200,103.600 19.200 C 102.940 19.200,102.400 19.380,102.400 19.600 C 102.400 19.820,102.040 20.000,101.600 20.000 C 101.160 20.000,100.800 20.180,100.800 20.400 C 100.800 20.620,100.440 20.800,100.000 20.800 C 99.560 20.800,99.200 20.980,99.200 21.200 C 99.200 21.420,98.840 21.600,98.400 21.600 C 97.960 21.600,97.600 21.780,97.600 22.000 C 97.600 22.220,97.240 22.400,96.800 22.400 C 96.360 22.400,96.000 22.580,96.000 22.800 C 96.000 23.020,95.640 23.200,95.200 23.200 C 94.760 23.200,94.400 23.380,94.400 23.600 C 94.400 23.820,94.040 24.000,93.600 24.000 C 93.160 24.000,92.800 24.180,92.800 24.400 C 92.800 24.620,92.440 24.800,92.000 24.800 C 91.560 24.800,91.200 24.980,91.200 25.200 C 91.200 25.420,90.970 25.600,90.688 25.600 C 90.407 25.600,89.917 25.960,89.600 26.400 C 89.283 26.840,88.703 27.200,88.312 27.200 C 87.920 27.200,87.600 27.380,87.600 27.600 C 87.600 27.820,87.240 28.000,86.800 28.000 C 86.360 28.000,86.000 28.166,86.000 28.368 C 86.000 28.571,85.495 28.847,84.878 28.983 C 84.260 29.119,83.501 29.583,83.189 30.015 C 82.878 30.447,82.379 30.800,82.080 30.800 C 81.782 30.800,80.846 31.520,80.000 32.400 C 79.154 33.280,78.265 34.000,78.024 34.000 C 77.783 34.000,76.414 35.125,74.982 36.500 C 73.550 37.875,71.757 39.540,70.997 40.200 C 70.238 40.860,69.612 41.637,69.608 41.926 C 69.604 42.215,68.700 43.329,67.600 44.400 C 66.500 45.471,65.600 46.590,65.600 46.886 C 65.600 47.181,65.220 47.688,64.756 48.012 C 63.131 49.144,61.600 50.726,61.600 51.272 C 61.600 51.575,61.240 52.083,60.800 52.400 C 60.360 52.717,60.000 53.180,60.000 53.429 C 60.000 53.678,59.460 54.446,58.800 55.137 C 58.140 55.828,57.600 56.625,57.600 56.908 C 57.600 57.191,57.240 57.683,56.800 58.000 C 56.360 58.317,56.000 58.857,56.000 59.200 C 56.000 59.543,55.640 60.083,55.200 60.400 C 54.760 60.717,54.400 61.297,54.400 61.688 C 54.400 62.080,54.220 62.400,54.000 62.400 C 53.780 62.400,53.600 62.694,53.600 63.053 C 53.600 63.412,53.228 64.029,52.774 64.423 C 52.319 64.817,51.972 65.249,52.002 65.382 C 52.095 65.801,51.019 68.000,50.720 68.000 C 50.564 68.000,50.318 68.630,50.174 69.400 C 50.029 70.170,49.751 70.800,49.555 70.800 C 49.360 70.800,49.200 71.160,49.200 71.600 C 49.200 72.040,49.020 72.400,48.800 72.400 C 48.580 72.400,48.400 72.760,48.400 73.200 C 48.400 73.640,48.220 74.000,48.000 74.000 C 47.780 74.000,47.600 74.360,47.600 74.800 C 47.600 75.240,47.420 75.600,47.200 75.600 C 46.980 75.600,46.800 76.140,46.800 76.800 C 46.800 77.460,46.620 78.000,46.400 78.000 C 46.180 78.000,46.000 78.360,46.000 78.800 C 46.000 79.240,45.820 79.600,45.600 79.600 C 45.380 79.600,45.200 80.140,45.200 80.800 C 45.200 81.460,45.020 82.000,44.800 82.000 C 44.580 82.000,44.400 82.360,44.400 82.800 C 44.400 83.240,44.220 83.600,44.000 83.600 C 43.780 83.600,43.600 84.140,43.600 84.800 C 43.600 85.460,43.420 86.000,43.200 86.000 C 42.980 86.000,42.800 86.450,42.800 87.000 C 42.800 87.550,42.620 88.000,42.400 88.000 C 42.180 88.000,42.000 88.529,42.000 89.176 C 42.000 89.823,41.820 90.464,41.600 90.600 C 41.380 90.736,41.200 91.467,41.200 92.224 C 41.200 92.981,41.020 93.600,40.800 93.600 C 40.580 93.600,40.400 94.140,40.400 94.800 C 40.400 95.460,40.220 96.000,40.000 96.000 C 39.780 96.000,39.600 96.720,39.600 97.600 C 39.600 98.480,39.420 99.200,39.200 99.200 C 38.980 99.200,38.800 99.920,38.800 100.800 C 38.800 101.680,38.620 102.400,38.400 102.400 C 38.180 102.400,38.000 103.120,38.000 104.000 C 38.000 104.880,37.820 105.600,37.600 105.600 C 37.380 105.600,37.200 106.219,37.200 106.976 C 37.200 107.733,37.020 108.464,36.800 108.600 C 36.580 108.736,36.400 109.276,36.400 109.800 C 36.400 110.324,36.220 110.864,36.000 111.000 C 35.780 111.136,35.600 111.687,35.600 112.224 C 35.600 112.761,35.420 113.200,35.200 113.200 C 34.980 113.200,34.800 113.740,34.800 114.400 C 34.800 115.060,34.653 115.600,34.472 115.600 C 34.292 115.600,33.900 116.500,33.600 117.600 C 33.300 118.700,32.908 119.600,32.728 119.600 C 32.547 119.600,32.400 120.140,32.400 120.800 C 32.400 121.460,32.220 122.000,32.000 122.000 C 31.780 122.000,31.600 122.360,31.600 122.800 C 31.600 123.240,31.459 123.600,31.287 123.600 C 31.115 123.600,30.934 124.085,30.885 124.678 C 30.836 125.270,30.639 125.855,30.448 125.978 C 30.257 126.100,29.768 127.325,29.361 128.700 C 28.955 130.075,28.483 131.200,28.311 131.200 C 28.140 131.200,28.000 131.560,28.000 132.000 C 28.000 132.440,27.820 132.800,27.600 132.800 C 27.380 132.800,27.200 133.340,27.200 134.000 C 27.200 134.660,27.020 135.200,26.800 135.200 C 26.580 135.200,26.400 135.560,26.400 136.000 C 26.400 136.440,26.220 136.800,26.000 136.800 C 25.780 136.800,25.600 137.520,25.600 138.400 C 25.600 139.280,25.420 140.000,25.200 140.000 C 24.974 140.000,24.800 141.133,24.800 142.600 C 24.800 144.067,24.974 145.200,25.200 145.200 C 25.420 145.200,25.600 145.642,25.600 146.181 C 25.600 147.333,26.382 149.200,26.864 149.200 C 27.049 149.200,27.200 149.463,27.200 149.785 C 27.200 150.450,28.850 152.309,34.700 158.237 C 36.955 160.521,38.800 162.663,38.800 162.995 C 38.800 163.328,38.980 163.600,39.200 163.600 C 39.420 163.600,39.600 163.870,39.600 164.200 C 39.600 164.530,39.780 164.800,40.000 164.800 C 40.233 164.800,40.400 166.133,40.400 168.000 C 40.400 169.867,40.233 171.200,40.000 171.200 C 39.780 171.200,39.600 171.560,39.600 172.000 C 39.600 172.440,39.420 172.800,39.200 172.800 C 38.980 172.800,38.801 173.025,38.802 173.300 C 38.804 173.806,32.422 186.831,31.992 187.200 C 31.577 187.556,30.229 190.589,30.330 190.941 C 30.384 191.129,30.061 191.600,29.614 191.988 C 29.166 192.376,28.800 192.988,28.800 193.347 C 28.800 193.706,28.620 194.000,28.400 194.000 C 28.180 194.000,28.000 194.360,28.000 194.800 C 28.000 195.240,27.820 195.600,27.600 195.600 C 27.380 195.600,27.200 195.920,27.200 196.312 C 27.200 196.703,26.840 197.283,26.400 197.600 C 25.960 197.917,25.600 198.497,25.600 198.888 C 25.600 199.280,25.420 199.600,25.200 199.600 C 24.980 199.600,24.800 199.920,24.800 200.312 C 24.800 200.703,24.440 201.283,24.000 201.600 C 23.560 201.917,23.200 202.367,23.200 202.600 C 23.200 202.833,22.840 203.283,22.400 203.600 C 21.960 203.917,21.600 204.457,21.600 204.800 C 21.600 205.143,21.240 205.683,20.800 206.000 C 20.360 206.317,20.000 206.897,20.000 207.288 C 20.000 207.680,19.850 208.000,19.668 208.000 C 19.485 208.000,19.081 208.495,18.770 209.100 C 18.460 209.705,17.889 210.491,17.503 210.847 C 17.116 211.203,16.800 211.748,16.800 212.059 C 16.800 212.369,16.440 212.883,16.000 213.200 C 15.560 213.517,15.200 214.025,15.200 214.328 C 15.200 214.631,14.660 215.383,14.000 216.000 C 13.340 216.617,12.800 217.327,12.800 217.579 C 12.800 217.830,12.331 218.505,11.758 219.078 C 11.185 219.651,10.538 220.633,10.319 221.260 C 10.101 221.887,9.759 222.400,9.561 222.400 C 9.362 222.400,9.200 222.598,9.200 222.840 C 9.200 223.081,8.660 223.783,8.000 224.400 C 7.340 225.017,6.800 225.719,6.800 225.960 C 6.800 226.202,6.620 226.400,6.400 226.400 C 6.180 226.400,6.000 226.630,6.000 226.912 C 6.000 227.193,5.640 227.683,5.200 228.000 C 4.760 228.317,4.400 228.809,4.400 229.092 C 4.400 229.375,3.860 230.172,3.200 230.863 C 2.540 231.554,2.000 232.362,2.000 232.659 C 2.000 232.957,1.820 233.200,1.600 233.200 C 1.380 233.200,1.200 233.545,1.200 233.967 C 1.200 234.388,0.975 234.808,0.700 234.900 C 0.343 235.019,0.200 236.257,0.200 239.240 L 0.200 243.413 3.294 246.506 C 4.995 248.208,6.620 249.600,6.905 249.600 C 7.190 249.600,7.683 249.960,8.000 250.400 C 8.317 250.840,8.897 251.200,9.288 251.200 C 9.680 251.200,10.000 251.380,10.000 251.600 C 10.000 251.820,10.268 252.000,10.597 252.000 C 10.925 252.000,11.418 252.360,11.693 252.800 C 11.968 253.240,12.394 253.600,12.640 253.600 C 13.228 253.600,18.161 256.113,18.333 256.500 C 18.407 256.665,18.697 256.800,18.979 256.800 C 19.261 256.800,20.538 257.790,21.818 259.000 C 23.097 260.210,24.292 261.200,24.472 261.200 C 24.652 261.200,24.800 261.740,24.800 262.400 C 24.800 263.060,24.980 263.600,25.200 263.600 C 25.440 263.600,25.600 265.200,25.600 267.600 C 25.600 270.000,25.440 271.600,25.200 271.600 C 24.980 271.600,24.800 272.140,24.800 272.800 C 24.800 273.460,24.620 274.000,24.400 274.000 C 24.180 274.000,24.000 274.360,24.000 274.800 C 24.000 275.240,23.820 275.600,23.600 275.600 C 23.380 275.600,23.200 275.960,23.200 276.400 C 23.200 276.840,23.020 277.200,22.800 277.200 C 22.580 277.200,22.400 277.560,22.400 278.000 C 22.400 278.440,22.220 278.800,22.000 278.800 C 21.780 278.800,21.600 279.160,21.600 279.600 C 21.600 280.040,21.420 280.400,21.200 280.400 C 20.980 280.400,20.800 280.670,20.800 281.000 C 20.800 281.330,20.620 281.600,20.400 281.600 C 20.180 281.600,20.000 281.960,20.000 282.400 C 20.000 282.840,19.820 283.200,19.600 283.200 C 19.380 283.200,19.200 283.560,19.200 284.000 C 19.200 284.440,19.020 284.800,18.800 284.800 C 18.580 284.800,18.400 285.149,18.400 285.576 C 18.400 286.003,18.220 286.464,18.000 286.600 C 16.708 287.398,19.856 292.800,21.613 292.800 C 21.854 292.800,22.929 293.700,24.000 294.800 C 25.071 295.900,26.134 296.800,26.361 296.800 C 28.091 296.800,30.061 300.105,28.800 300.893 C 28.360 301.168,28.000 301.709,28.000 302.096 C 28.000 302.483,27.820 302.800,27.600 302.800 C 27.380 302.800,27.200 303.070,27.200 303.400 C 27.200 303.730,27.020 304.000,26.800 304.000 C 26.580 304.000,26.400 304.450,26.400 305.000 C 26.400 305.550,26.220 306.000,26.000 306.000 C 25.774 306.000,25.600 307.139,25.600 308.618 C 25.600 311.301,26.633 313.200,28.094 313.200 C 28.385 313.200,28.883 313.560,29.200 314.000 C 29.517 314.440,30.007 314.800,30.288 314.800 C 30.570 314.800,30.800 314.980,30.800 315.200 C 30.800 315.420,31.160 315.600,31.600 315.600 C 32.040 315.600,32.400 315.750,32.400 315.932 C 32.400 316.115,32.895 316.519,33.500 316.830 C 34.105 317.140,34.873 317.689,35.206 318.050 C 35.539 318.410,36.150 318.771,36.563 318.853 C 36.976 318.934,37.514 319.357,37.757 319.794 C 38.001 320.231,38.515 320.882,38.900 321.241 C 39.285 321.600,39.600 322.188,39.600 322.547 C 39.600 322.906,39.780 323.200,40.000 323.200 C 40.220 323.200,40.400 324.100,40.400 325.200 C 40.400 326.300,40.580 327.200,40.800 327.200 C 41.321 327.200,41.321 329.878,40.800 330.200 C 40.580 330.336,40.400 331.877,40.400 333.624 C 40.400 335.475,40.233 336.800,40.000 336.800 C 39.780 336.800,39.600 337.430,39.600 338.200 C 39.600 338.970,39.420 339.600,39.200 339.600 C 38.954 339.600,38.800 341.600,38.800 344.800 C 38.800 348.000,38.954 350.000,39.200 350.000 C 39.420 350.000,39.600 350.900,39.600 352.000 C 39.600 353.100,39.780 354.000,40.000 354.000 C 40.220 354.000,40.400 354.540,40.400 355.200 C 40.400 355.860,40.580 356.400,40.800 356.400 C 41.020 356.400,41.200 356.850,41.200 357.400 C 41.200 357.950,41.380 358.400,41.600 358.400 C 41.820 358.400,42.000 358.900,42.000 359.512 C 42.000 360.165,42.330 360.861,42.800 361.200 C 43.240 361.517,43.600 362.009,43.600 362.294 C 43.600 362.900,50.197 369.600,50.794 369.600 C 51.017 369.600,51.200 369.780,51.200 370.000 C 51.200 370.220,51.650 370.400,52.200 370.400 C 52.750 370.400,53.200 370.580,53.200 370.800 C 53.200 371.020,53.819 371.200,54.576 371.200 C 55.333 371.200,56.064 371.380,56.200 371.600 C 56.522 372.121,61.478 372.121,61.800 371.600 C 61.936 371.380,63.027 371.200,64.224 371.200 C 65.421 371.200,66.400 371.020,66.400 370.800 C 66.400 370.580,67.131 370.400,68.024 370.400 C 69.004 370.400,69.549 370.242,69.400 370.000 C 69.251 369.758,69.796 369.600,70.776 369.600 C 71.669 369.600,72.400 369.440,72.400 369.244 C 72.400 369.048,73.030 368.778,73.800 368.644 C 74.570 368.510,75.830 368.290,76.600 368.156 C 77.370 368.022,78.000 367.752,78.000 367.556 C 78.000 367.360,78.720 367.200,79.600 367.200 C 80.480 367.200,81.200 367.020,81.200 366.800 C 81.200 366.580,81.920 366.400,82.800 366.400 C 83.680 366.400,84.400 366.220,84.400 366.000 C 84.400 365.780,85.019 365.600,85.776 365.600 C 86.533 365.600,87.264 365.420,87.400 365.200 C 87.536 364.980,88.177 364.800,88.824 364.800 C 89.471 364.800,90.000 364.620,90.000 364.400 C 90.000 364.180,90.450 364.000,91.000 364.000 C 91.550 364.000,92.000 363.820,92.000 363.600 C 92.000 363.380,92.529 363.200,93.176 363.200 C 93.823 363.200,94.464 363.020,94.600 362.800 C 94.736 362.580,95.467 362.400,96.224 362.400 C 96.981 362.400,97.600 362.220,97.600 362.000 C 97.600 361.780,98.140 361.600,98.800 361.600 C 99.460 361.600,100.000 361.420,100.000 361.200 C 100.000 360.980,100.540 360.800,101.200 360.800 C 101.860 360.800,102.400 360.620,102.400 360.400 C 102.400 360.180,102.940 360.000,103.600 360.000 C 104.260 360.000,104.800 359.820,104.800 359.600 C 104.800 359.380,105.340 359.200,106.000 359.200 C 106.660 359.200,107.200 359.020,107.200 358.800 C 107.200 358.580,107.740 358.400,108.400 358.400 C 109.060 358.400,109.600 358.245,109.600 358.056 C 109.600 357.866,110.544 357.600,111.698 357.463 C 112.851 357.326,113.856 357.031,113.931 356.807 C 114.006 356.583,114.592 356.400,115.233 356.400 C 115.875 356.400,116.400 356.220,116.400 356.000 C 116.400 355.780,116.940 355.600,117.600 355.600 C 118.260 355.600,118.800 355.420,118.800 355.200 C 118.800 354.980,119.340 354.800,120.000 354.800 C 120.660 354.800,121.200 354.620,121.200 354.400 C 121.200 354.180,121.740 354.000,122.400 354.000 C 123.060 354.000,123.600 353.820,123.600 353.600 C 123.600 353.380,124.140 353.200,124.800 353.200 C 125.460 353.200,126.000 353.380,126.000 353.600 C 126.000 353.820,126.360 354.000,126.800 354.000 C 127.240 354.000,127.600 354.180,127.600 354.400 C 127.600 354.620,127.888 354.800,128.240 354.800 C 128.591 354.800,129.383 355.340,130.000 356.000 C 130.617 356.660,131.312 357.200,131.546 357.200 C 132.165 357.200,140.000 365.076,140.000 365.698 C 140.000 365.987,140.360 366.483,140.800 366.800 C 141.240 367.117,141.600 367.562,141.601 367.788 C 141.601 368.015,142.141 368.830,142.800 369.600 C 143.459 370.370,143.999 371.225,143.999 371.500 C 144.000 371.775,144.180 372.000,144.400 372.000 C 144.620 372.000,144.800 372.236,144.800 372.525 C 144.800 372.813,145.160 373.436,145.600 373.908 C 146.040 374.380,146.400 375.044,146.400 375.383 C 146.400 375.722,146.580 376.000,146.800 376.000 C 147.020 376.000,147.200 376.270,147.200 376.600 C 147.200 376.930,147.380 377.200,147.600 377.200 C 147.820 377.200,148.000 377.560,148.000 378.000 C 148.000 378.440,148.180 378.800,148.400 378.800 C 148.620 378.800,148.800 379.160,148.800 379.600 C 148.800 380.040,148.980 380.400,149.200 380.400 C 149.420 380.400,149.600 380.701,149.600 381.069 C 149.600 381.436,149.869 382.035,150.199 382.399 C 150.528 382.762,150.837 383.542,150.886 384.130 C 150.935 384.719,151.115 385.200,151.287 385.200 C 151.459 385.200,151.600 385.560,151.600 386.000 C 151.600 386.440,151.780 386.800,152.000 386.800 C 152.220 386.800,152.400 387.160,152.400 387.600 C 152.400 388.040,152.580 388.400,152.800 388.400 C 153.020 388.400,153.200 388.760,153.200 389.200 C 153.200 389.640,153.380 390.000,153.600 390.000 C 153.820 390.000,154.000 390.439,154.000 390.976 C 154.000 391.513,154.180 392.064,154.400 392.200 C 154.620 392.336,154.800 392.876,154.800 393.400 C 154.800 393.924,154.980 394.464,155.200 394.600 C 155.420 394.736,155.600 395.287,155.600 395.824 C 155.600 396.361,155.780 396.800,156.000 396.800 C 156.220 396.800,156.400 397.340,156.400 398.000 C 156.400 398.660,156.580 399.200,156.800 399.200 C 157.020 399.200,157.200 399.740,157.200 400.400 C 157.200 401.060,157.380 401.600,157.600 401.600 C 157.820 401.600,158.000 402.140,158.000 402.800 C 158.000 403.460,158.180 404.000,158.400 404.000 C 158.620 404.000,158.800 404.450,158.800 405.000 L 158.800 406.000 247.400 406.000 C 325.889 406.000,336.000 405.932,336.000 405.400 C 336.000 405.070,335.820 404.800,335.600 404.800 C 335.380 404.800,335.200 404.440,335.200 404.000 C 335.200 403.560,335.020 403.200,334.800 403.200 C 334.580 403.200,334.400 402.840,334.400 402.400 C 334.400 401.960,334.220 401.600,334.000 401.600 C 333.780 401.600,333.600 401.240,333.600 400.800 C 333.600 400.360,333.420 400.000,333.200 400.000 C 332.980 400.000,332.800 399.640,332.800 399.200 C 332.800 398.760,332.620 398.400,332.400 398.400 C 332.180 398.400,332.000 398.040,332.000 397.600 C 332.000 397.160,331.820 396.800,331.600 396.800 C 331.380 396.800,331.200 396.607,331.200 396.371 C 331.200 396.136,330.930 395.673,330.600 395.343 C 330.270 395.013,330.000 394.396,330.000 393.971 C 330.000 393.547,329.820 393.200,329.600 393.200 C 329.380 393.200,329.200 392.964,329.200 392.675 C 329.200 392.387,328.840 391.764,328.400 391.292 C 327.960 390.820,327.600 390.156,327.600 389.817 C 327.600 389.478,327.420 389.200,327.200 389.200 C 326.980 389.200,326.800 388.880,326.800 388.488 C 326.800 388.097,326.440 387.517,326.000 387.200 C 325.560 386.883,325.200 386.303,325.200 385.912 C 325.200 385.520,325.020 385.200,324.800 385.200 C 324.580 385.200,324.400 384.851,324.400 384.424 C 324.400 383.997,324.220 383.536,324.000 383.400 C 323.780 383.264,323.600 382.713,323.600 382.176 C 323.600 381.639,323.420 381.200,323.200 381.200 C 322.980 381.200,322.800 380.840,322.800 380.400 C 322.800 379.960,322.665 379.599,322.500 379.597 C 322.094 379.593,321.200 377.614,321.200 376.720 C 321.200 376.324,321.020 376.000,320.800 376.000 C 320.580 376.000,320.400 375.640,320.400 375.200 C 320.400 374.760,320.220 374.400,320.000 374.400 C 319.780 374.400,319.600 373.860,319.600 373.200 C 319.600 372.540,319.420 372.000,319.200 372.000 C 318.980 372.000,318.800 371.460,318.800 370.800 C 318.800 370.140,318.620 369.600,318.400 369.600 C 318.180 369.600,318.000 369.060,318.000 368.400 C 318.000 367.740,317.820 367.200,317.600 367.200 C 317.380 367.200,317.200 366.761,317.200 366.224 C 317.200 365.687,317.020 365.136,316.800 365.000 C 316.580 364.864,316.400 364.223,316.400 363.576 C 316.400 362.929,316.220 362.400,316.000 362.400 C 315.780 362.400,315.600 361.860,315.600 361.200 C 315.600 360.540,315.420 360.000,315.200 360.000 C 314.980 360.000,314.800 359.370,314.800 358.600 C 314.800 357.830,314.620 357.200,314.400 357.200 C 314.180 357.200,314.000 356.480,314.000 355.600 C 314.000 354.720,313.820 354.000,313.600 354.000 C 313.380 354.000,313.200 353.280,313.200 352.400 C 313.200 351.520,313.020 350.800,312.800 350.800 C 312.580 350.800,312.400 350.001,312.400 349.024 C 312.400 348.047,312.220 347.136,312.000 347.000 C 311.780 346.864,311.600 346.043,311.600 345.176 C 311.600 344.309,311.420 343.600,311.200 343.600 C 310.980 343.600,310.800 342.711,310.800 341.624 C 310.800 340.537,310.637 339.547,310.439 339.424 C 310.240 339.301,309.949 337.265,309.792 334.900 C 309.635 332.535,309.364 330.420,309.190 330.200 C 308.842 329.760,308.515 326.441,308.184 320.000 C 308.065 317.690,307.787 315.437,307.566 314.992 C 306.911 313.677,307.632 293.451,308.393 291.800 C 308.595 291.360,308.851 290.100,308.960 289.000 C 309.476 283.825,310.100 279.765,310.433 279.420 C 310.635 279.211,310.800 278.446,310.800 277.720 C 310.800 276.994,310.980 276.400,311.200 276.400 C 311.420 276.400,311.600 275.680,311.600 274.800 C 311.600 273.920,311.780 273.200,312.000 273.200 C 312.220 273.200,312.400 272.671,312.400 272.024 C 312.400 271.377,312.580 270.736,312.800 270.600 C 313.020 270.464,313.200 269.834,313.200 269.200 C 313.200 268.566,313.380 267.936,313.600 267.800 C 313.820 267.664,314.000 267.023,314.000 266.376 C 314.000 265.729,314.180 265.200,314.400 265.200 C 314.620 265.200,314.800 264.840,314.800 264.400 C 314.800 263.960,314.980 263.600,315.200 263.600 C 315.420 263.600,315.600 263.060,315.600 262.400 C 315.600 261.740,315.735 261.199,315.900 261.197 C 316.306 261.193,317.200 259.214,317.200 258.320 C 317.200 257.924,317.380 257.600,317.600 257.600 C 317.820 257.600,318.000 257.240,318.000 256.800 C 318.000 256.360,318.180 256.000,318.400 256.000 C 318.620 256.000,318.800 255.640,318.800 255.200 C 318.800 254.760,318.980 254.400,319.200 254.400 C 319.420 254.400,319.600 254.040,319.600 253.600 C 319.600 253.160,319.780 252.800,320.000 252.800 C 320.220 252.800,320.400 252.440,320.400 252.000 C 320.400 251.560,320.580 251.200,320.800 251.200 C 321.020 251.200,321.200 250.840,321.200 250.400 C 321.200 249.960,321.380 249.600,321.600 249.600 C 321.820 249.600,322.000 249.280,322.000 248.888 C 322.000 248.497,322.360 247.917,322.800 247.600 C 323.240 247.283,323.600 246.703,323.600 246.312 C 323.600 245.920,323.780 245.600,324.000 245.600 C 324.220 245.600,324.400 245.280,324.400 244.888 C 324.400 244.497,324.760 243.917,325.200 243.600 C 325.640 243.283,326.000 242.746,326.000 242.408 C 326.000 242.069,326.360 241.568,326.800 241.293 C 327.240 241.018,327.600 240.525,327.600 240.197 C 327.600 239.868,327.758 239.600,327.951 239.600 C 328.145 239.600,328.527 239.060,328.800 238.400 C 329.073 237.740,329.452 237.200,329.641 237.200 C 329.830 237.200,330.108 236.705,330.260 236.100 C 330.411 235.495,331.044 234.523,331.667 233.940 C 332.290 233.356,332.800 232.680,332.800 232.436 C 332.800 232.192,333.340 231.428,334.000 230.737 C 334.660 230.046,335.200 229.278,335.200 229.029 C 335.200 228.780,335.560 228.317,336.000 228.000 C 336.440 227.683,336.800 227.220,336.800 226.971 C 336.800 226.722,337.340 225.954,338.000 225.263 C 338.660 224.572,339.200 223.736,339.200 223.404 C 339.200 223.072,339.352 222.800,339.539 222.800 C 340.128 222.800,341.600 221.330,341.600 220.741 C 341.600 220.431,341.960 219.917,342.400 219.600 C 342.840 219.283,343.200 218.743,343.200 218.400 C 343.200 218.057,343.560 217.517,344.000 217.200 C 344.440 216.883,344.800 216.420,344.800 216.171 C 344.800 215.922,345.340 215.154,346.000 214.463 C 346.660 213.772,347.200 212.975,347.200 212.692 C 347.200 212.409,347.560 211.917,348.000 211.600 C 348.440 211.283,348.800 210.703,348.800 210.312 C 348.800 209.920,348.977 209.600,349.192 209.600 C 349.408 209.600,349.707 209.105,349.856 208.500 C 350.006 207.895,350.459 207.109,350.864 206.753 C 351.269 206.397,351.600 205.812,351.600 205.453 C 351.600 205.094,351.780 204.800,352.000 204.800 C 352.220 204.800,352.400 204.440,352.400 204.000 C 352.400 203.560,352.580 203.200,352.800 203.200 C 353.020 203.200,353.200 202.930,353.200 202.600 C 353.200 202.270,353.380 202.000,353.600 202.000 C 353.820 202.000,354.000 201.640,354.000 201.200 C 354.000 200.760,354.180 200.400,354.400 200.400 C 354.620 200.400,354.800 200.145,354.800 199.833 C 354.800 199.522,354.935 199.207,355.100 199.133 C 355.599 198.912,357.200 195.578,357.200 194.762 C 357.200 194.343,357.380 194.000,357.600 194.000 C 357.820 194.000,358.000 193.640,358.000 193.200 C 358.000 192.760,358.180 192.400,358.400 192.400 C 358.620 192.400,358.800 192.051,358.800 191.624 C 358.800 191.197,358.980 190.736,359.200 190.600 C 359.420 190.464,359.600 189.913,359.600 189.376 C 359.600 188.839,359.780 188.400,360.000 188.400 C 360.220 188.400,360.400 188.008,360.400 187.528 C 360.400 186.608,361.060 184.272,361.649 183.105 C 361.842 182.723,362.000 181.868,362.000 181.205 C 362.000 180.542,362.180 180.000,362.400 180.000 C 362.620 180.000,362.800 179.381,362.800 178.624 C 362.800 177.867,362.980 177.136,363.200 177.000 C 363.420 176.864,363.600 176.043,363.600 175.176 C 363.600 174.309,363.780 173.600,364.000 173.600 C 364.220 173.600,364.400 172.700,364.400 171.600 C 364.400 170.500,364.580 169.600,364.800 169.600 C 365.033 169.600,365.200 168.267,365.200 166.400 C 365.200 164.533,365.367 163.200,365.600 163.200 C 365.845 163.200,366.000 161.324,366.000 158.371 C 366.000 153.545,365.695 152.400,364.412 152.400 C 364.167 152.400,363.580 152.040,363.108 151.600 C 362.636 151.160,362.013 150.800,361.725 150.800 C 361.436 150.800,361.200 150.642,361.200 150.449 C 361.200 150.255,360.660 149.873,360.000 149.600 C 359.340 149.327,358.800 148.945,358.800 148.751 C 358.800 148.558,358.440 148.400,358.000 148.400 C 357.560 148.400,357.200 148.220,357.200 148.000 C 357.200 147.780,356.660 147.600,356.000 147.600 C 355.067 147.600,354.800 147.778,354.800 148.400 C 354.800 148.840,354.620 149.200,354.400 149.200 C 354.180 149.200,354.000 149.483,354.000 149.829 C 354.000 150.559,353.062 151.600,352.405 151.600 C 352.156 151.600,352.064 151.780,352.200 152.000 C 352.336 152.220,352.249 152.400,352.007 152.400 C 351.765 152.400,351.180 152.760,350.708 153.200 C 350.236 153.640,349.613 154.000,349.325 154.000 C 349.036 154.000,348.800 154.180,348.800 154.400 C 348.800 154.620,348.260 154.800,347.600 154.800 C 346.940 154.800,346.400 154.980,346.400 155.200 C 346.400 155.420,345.500 155.600,344.400 155.600 C 343.300 155.600,342.400 155.780,342.400 156.000 C 342.400 156.220,341.601 156.400,340.624 156.400 C 339.647 156.400,338.736 156.580,338.600 156.800 C 338.464 157.020,337.553 157.200,336.576 157.200 C 335.599 157.200,334.800 157.380,334.800 157.600 C 334.800 157.820,334.091 158.000,333.224 158.000 C 332.357 158.000,331.536 158.180,331.400 158.400 C 331.264 158.620,330.353 158.800,329.376 158.800 C 328.399 158.800,327.600 158.980,327.600 159.200 C 327.600 159.420,327.137 159.600,326.571 159.600 C 325.259 159.600,324.400 160.459,324.400 161.771 C 324.400 162.337,324.220 162.800,324.000 162.800 C 323.780 162.800,323.600 163.340,323.600 164.000 C 323.600 164.660,323.420 165.200,323.200 165.200 C 322.980 165.200,322.800 165.470,322.800 165.800 C 322.800 166.130,322.620 166.400,322.400 166.400 C 322.180 166.400,322.000 166.760,322.000 167.200 C 322.000 167.640,321.820 168.000,321.600 168.000 C 321.380 168.000,321.200 168.439,321.200 168.976 C 321.200 169.513,321.020 170.064,320.800 170.200 C 320.098 170.634,320.359 172.594,321.200 173.200 C 321.640 173.517,322.000 174.057,322.000 174.400 C 322.000 174.743,322.360 175.283,322.800 175.600 C 323.240 175.917,323.600 176.457,323.600 176.800 C 323.600 177.143,323.960 177.683,324.400 178.000 C 324.840 178.317,325.200 178.857,325.200 179.200 C 325.200 179.543,325.560 180.083,326.000 180.400 C 326.440 180.717,326.800 181.257,326.800 181.600 C 326.800 181.943,327.160 182.483,327.600 182.800 C 328.040 183.117,328.400 183.607,328.400 183.888 C 328.400 184.170,328.541 184.400,328.714 184.400 C 328.886 184.400,329.561 185.477,330.214 186.793 C 330.866 188.110,331.535 189.190,331.700 189.193 C 331.865 189.197,332.000 189.560,332.000 190.000 C 332.000 190.440,332.135 190.801,332.300 190.803 C 332.814 190.808,333.600 192.897,333.600 194.256 C 333.600 194.969,333.780 195.664,334.000 195.800 C 334.220 195.936,334.400 196.667,334.400 197.424 C 334.400 198.181,334.220 198.800,334.000 198.800 C 333.780 198.800,333.600 199.520,333.600 200.400 C 333.600 201.280,333.420 202.000,333.200 202.000 C 332.980 202.000,332.800 202.236,332.800 202.525 C 332.800 202.814,332.266 203.562,331.614 204.186 C 330.962 204.811,330.515 205.463,330.621 205.634 C 330.879 206.051,317.774 219.200,317.102 219.200 C 316.813 219.200,316.317 219.560,316.000 220.000 C 315.683 220.440,315.103 220.800,314.712 220.800 C 314.320 220.800,314.000 220.980,314.000 221.200 C 314.000 221.420,313.291 221.600,312.424 221.600 C 311.557 221.600,310.736 221.780,310.600 222.000 C 310.278 222.521,307.600 222.521,307.600 222.000 C 307.600 221.780,306.970 221.600,306.200 221.600 C 305.430 221.600,304.800 221.420,304.800 221.200 C 304.800 220.980,304.440 220.800,304.000 220.800 C 303.560 220.800,303.200 220.620,303.200 220.400 C 303.200 220.180,302.922 220.000,302.583 220.000 C 302.244 220.000,301.580 219.640,301.108 219.200 C 300.636 218.760,300.013 218.400,299.725 218.400 C 299.436 218.400,299.200 218.242,299.200 218.049 C 299.200 217.855,298.660 217.473,298.000 217.200 C 297.340 216.927,296.800 216.545,296.800 216.351 C 296.800 216.158,296.480 216.000,296.088 216.000 C 295.697 216.000,295.117 215.640,294.800 215.200 C 294.483 214.760,293.943 214.400,293.600 214.400 C 293.257 214.400,292.717 214.040,292.400 213.600 C 292.083 213.160,291.515 212.800,291.139 212.800 C 290.762 212.800,290.340 212.440,290.200 212.000 C 290.060 211.560,289.638 211.200,289.261 211.200 C 288.885 211.200,288.317 210.840,288.000 210.400 C 287.683 209.960,287.143 209.600,286.800 209.600 C 286.457 209.600,285.917 209.240,285.600 208.800 C 285.006 207.976,282.800 207.661,282.800 208.400 C 282.800 208.620,282.260 208.800,281.600 208.800 C 280.940 208.800,280.400 208.980,280.400 209.200 C 280.400 209.420,280.040 209.600,279.600 209.600 C 279.160 209.600,278.800 209.780,278.800 210.000 C 278.800 210.220,278.361 210.400,277.824 210.400 C 277.287 210.400,276.736 210.580,276.600 210.800 C 276.464 211.020,276.003 211.200,275.576 211.200 C 275.149 211.200,274.800 211.380,274.800 211.600 C 274.800 211.820,274.337 212.000,273.771 212.000 C 272.614 212.000,271.600 212.827,271.600 213.771 C 271.600 214.117,271.442 214.400,271.248 214.400 C 270.903 214.400,270.380 217.933,270.286 220.900 C 270.260 221.725,270.095 222.400,269.919 222.400 C 269.744 222.400,269.600 223.210,269.600 224.200 C 269.600 225.190,269.420 226.000,269.200 226.000 C 268.980 226.000,268.800 226.900,268.800 228.000 C 268.800 229.100,268.620 230.000,268.400 230.000 C 268.180 230.000,268.000 230.900,268.000 232.000 C 268.000 233.100,267.820 234.000,267.600 234.000 C 267.380 234.000,267.200 234.540,267.200 235.200 C 267.200 235.860,267.020 236.400,266.800 236.400 C 266.580 236.400,266.400 236.720,266.400 237.112 C 266.400 237.503,266.040 238.083,265.600 238.400 C 265.160 238.717,264.800 239.215,264.800 239.506 C 264.800 240.203,262.889 242.102,262.457 241.835 C 262.272 241.721,261.779 241.941,261.361 242.324 C 260.651 242.974,259.079 243.560,256.200 244.249 C 254.169 244.736,237.520 244.880,237.055 244.415 C 236.827 244.187,235.866 244.000,234.920 244.000 C 233.974 244.000,233.200 243.820,233.200 243.600 C 233.200 243.380,232.928 243.200,232.595 243.200 C 231.233 243.200,226.400 238.999,226.400 237.816 C 226.400 237.477,226.220 237.200,226.000 237.200 C 225.780 237.200,225.600 236.660,225.600 236.000 C 225.600 235.340,225.420 234.800,225.200 234.800 C 224.980 234.800,224.800 234.206,224.800 233.480 C 224.800 232.754,224.638 231.989,224.441 231.780 C 224.244 231.571,223.974 230.635,223.841 229.700 C 223.708 228.765,223.492 227.235,223.359 226.300 C 223.226 225.365,222.956 224.429,222.759 224.220 C 222.562 224.011,222.400 222.976,222.400 221.920 C 222.400 220.864,222.220 220.000,222.000 220.000 C 221.780 220.000,221.600 219.100,221.600 218.000 C 221.600 216.900,221.420 216.000,221.200 216.000 C 220.980 216.000,220.800 215.309,220.800 214.464 C 220.800 212.915,219.828 212.000,218.181 212.000 C 217.862 212.000,217.600 211.820,217.600 211.600 C 217.600 211.380,217.060 211.200,216.400 211.200 C 215.740 211.200,215.200 211.020,215.200 210.800 C 215.200 210.580,214.840 210.400,214.400 210.400 C 213.960 210.400,213.600 210.220,213.600 210.000 C 213.600 209.780,213.321 209.600,212.981 209.600 C 212.640 209.600,211.616 209.240,210.706 208.800 C 209.795 208.360,208.583 208.000,208.013 208.000 C 207.435 208.000,206.721 208.354,206.400 208.800 C 206.083 209.240,205.543 209.600,205.200 209.600 C 204.857 209.600,204.317 209.960,204.000 210.400 C 203.683 210.840,203.143 211.200,202.800 211.200 C 202.457 211.200,201.917 211.560,201.600 212.000 C 201.283 212.440,200.793 212.800,200.512 212.800 C 200.230 212.800,200.000 212.980,200.000 213.200 C 200.000 213.420,199.770 213.600,199.488 213.600 C 199.207 213.600,198.717 213.960,198.400 214.400 C 198.083 214.840,197.543 215.200,197.200 215.200 C 196.857 215.200,196.317 215.560,196.000 216.000 C 195.683 216.440,195.143 216.800,194.800 216.800 C 194.457 216.800,193.917 217.160,193.600 217.600 C 193.283 218.040,192.743 218.400,192.400 218.400 C 192.057 218.400,191.517 218.760,191.200 219.200 C 190.883 219.640,190.393 220.000,190.112 220.000 C 189.830 220.000,189.600 220.180,189.600 220.400 C 189.600 220.620,189.240 220.800,188.800 220.800 C 188.360 220.800,188.000 220.980,188.000 221.200 C 188.000 221.420,187.460 221.600,186.800 221.600 C 186.140 221.600,185.600 221.780,185.600 222.000 C 185.600 222.220,184.700 222.400,183.600 222.400 C 182.500 222.400,181.600 222.220,181.600 222.000 C 181.600 221.780,180.880 221.600,180.000 221.600 C 179.120 221.600,178.400 221.420,178.400 221.200 C 178.400 220.980,178.040 220.800,177.600 220.800 C 177.160 220.800,176.800 220.620,176.800 220.400 C 176.800 220.180,176.485 219.989,176.100 219.975 C 175.715 219.960,174.230 218.696,172.800 217.164 C 171.370 215.633,168.023 212.165,165.363 209.457 C 162.703 206.750,160.274 203.964,159.966 203.267 C 159.657 202.570,159.269 202.000,159.102 202.000 C 158.936 202.000,158.800 201.561,158.800 201.024 C 158.800 200.487,158.620 199.936,158.400 199.800 C 158.180 199.664,158.000 198.303,158.000 196.776 C 158.000 195.192,158.172 194.000,158.400 194.000 C 158.620 194.000,158.800 193.460,158.800 192.800 C 158.800 192.140,158.980 191.600,159.200 191.600 C 159.420 191.600,159.600 191.280,159.600 190.888 C 159.600 190.497,159.960 189.917,160.400 189.600 C 160.840 189.283,161.200 188.743,161.200 188.400 C 161.200 188.057,161.560 187.517,162.000 187.200 C 162.440 186.883,162.800 186.343,162.800 186.000 C 162.800 185.657,163.160 185.117,163.600 184.800 C 164.040 184.483,164.400 183.993,164.400 183.712 C 164.400 183.430,164.580 183.200,164.800 183.200 C 165.020 183.200,165.200 182.930,165.200 182.600 C 165.200 182.270,165.380 182.000,165.600 182.000 C 165.820 182.000,166.000 181.730,166.000 181.400 C 166.000 181.070,166.180 180.800,166.400 180.800 C 166.620 180.800,166.800 180.564,166.800 180.275 C 166.800 179.987,167.160 179.364,167.600 178.892 C 168.040 178.420,168.400 177.891,168.400 177.717 C 168.401 177.543,168.851 176.877,169.400 176.238 C 169.950 175.599,170.400 174.783,170.400 174.426 C 170.400 174.069,170.760 173.517,171.200 173.200 C 172.024 172.606,172.339 170.400,171.600 170.400 C 171.380 170.400,171.200 170.040,171.200 169.600 C 171.200 169.160,171.020 168.800,170.800 168.800 C 170.580 168.800,170.400 168.518,170.400 168.174 C 170.400 167.830,169.950 166.565,169.400 165.363 C 168.850 164.160,168.400 162.912,168.400 162.588 C 168.400 162.265,168.220 162.000,168.000 162.000 C 167.780 162.000,167.600 161.460,167.600 160.800 C 167.600 159.739,167.464 159.600,166.424 159.600 C 165.777 159.600,165.136 159.420,165.000 159.200 C 164.864 158.980,163.953 158.800,162.976 158.800 C 161.999 158.800,161.200 158.620,161.200 158.400 C 161.200 158.180,160.300 158.000,159.200 158.000 C 158.100 158.000,157.200 157.820,157.200 157.600 C 157.200 157.380,156.300 157.200,155.200 157.200 C 154.100 157.200,153.200 157.020,153.200 156.800 C 153.200 156.580,152.401 156.400,151.424 156.400 C 150.447 156.400,149.536 156.220,149.400 156.000 C 149.264 155.780,148.443 155.600,147.576 155.600 C 146.709 155.600,146.000 155.420,146.000 155.200 C 146.000 154.980,145.494 154.800,144.875 154.800 C 144.257 154.800,143.364 154.440,142.892 154.000 C 142.420 153.560,141.841 153.200,141.606 153.200 C 140.948 153.200,137.600 149.699,137.600 149.011 C 137.600 148.675,137.420 148.400,137.200 148.400 C 136.980 148.400,136.800 148.040,136.800 147.600 C 136.800 147.160,136.620 146.800,136.400 146.800 C 136.180 146.800,136.000 146.350,136.000 145.800 C 136.000 145.250,135.820 144.800,135.600 144.800 C 135.343 144.800,135.200 141.000,135.200 134.200 C 135.200 127.400,135.343 123.600,135.600 123.600 C 135.820 123.600,136.000 123.186,136.000 122.680 C 136.000 121.626,136.853 119.608,137.300 119.603 C 137.465 119.601,137.600 119.326,137.600 118.991 C 137.600 118.199,141.799 114.000,142.591 114.000 C 142.926 114.000,143.200 113.820,143.200 113.600 C 143.200 113.380,143.740 113.200,144.400 113.200 C 145.060 113.200,145.600 113.020,145.600 112.800 C 145.600 112.580,146.320 112.400,147.200 112.400 C 148.080 112.400,148.800 112.220,148.800 112.000 C 148.800 111.780,149.610 111.600,150.600 111.600 C 151.590 111.600,152.400 111.420,152.400 111.200 C 152.400 110.980,153.300 110.800,154.400 110.800 C 155.500 110.800,156.400 110.620,156.400 110.400 C 156.400 110.180,157.300 110.000,158.400 110.000 C 159.500 110.000,160.400 109.820,160.400 109.600 C 160.400 109.380,161.300 109.200,162.400 109.200 C 163.500 109.200,164.400 109.020,164.400 108.800 C 164.400 108.580,165.120 108.400,166.000 108.400 C 167.333 108.400,167.600 108.267,167.600 107.600 C 167.600 107.160,167.780 106.800,168.000 106.800 C 168.220 106.800,168.400 106.361,168.400 105.824 C 168.400 105.287,168.580 104.736,168.800 104.600 C 169.020 104.464,169.200 104.003,169.200 103.576 C 169.200 103.149,169.360 102.800,169.555 102.800 C 169.750 102.800,170.031 101.990,170.179 101.000 C 170.328 100.010,170.618 99.200,170.825 99.200 C 171.031 99.200,171.200 98.840,171.200 98.400 C 171.200 97.960,171.380 97.600,171.600 97.600 C 171.820 97.600,172.000 97.060,172.000 96.400 C 172.000 95.740,171.820 95.200,171.600 95.200 C 171.380 95.200,171.200 94.840,171.200 94.400 C 171.200 93.960,171.055 93.600,170.877 93.600 C 170.699 93.600,170.236 92.880,169.848 92.000 C 169.460 91.120,168.975 90.400,168.771 90.400 C 168.567 90.400,168.400 90.164,168.400 89.875 C 168.400 89.587,168.040 88.964,167.600 88.492 C 167.160 88.020,166.800 87.486,166.800 87.305 C 166.800 87.124,166.440 86.717,166.000 86.400 C 165.560 86.083,165.200 85.543,165.200 85.200 C 165.200 84.857,164.840 84.317,164.400 84.000 C 163.960 83.683,163.600 83.238,163.600 83.012 C 163.599 82.785,163.154 82.083,162.611 81.451 C 162.067 80.819,161.516 79.964,161.384 79.551 C 161.253 79.138,160.978 78.800,160.773 78.800 C 160.568 78.800,160.400 78.564,160.400 78.275 C 160.400 77.987,160.040 77.364,159.600 76.892 C 159.118 76.374,158.800 75.481,158.800 74.640 C 158.800 73.874,158.620 73.136,158.400 73.000 C 158.180 72.864,158.000 71.773,158.000 70.576 C 158.000 69.379,158.180 68.400,158.400 68.400 C 158.620 68.400,158.800 67.770,158.800 67.000 C 158.800 66.230,158.950 65.600,159.132 65.600 C 159.315 65.600,159.720 65.109,160.032 64.509 C 160.345 63.910,162.760 61.215,165.400 58.522 C 168.040 55.829,171.190 52.551,172.400 51.238 C 173.660 49.871,175.326 48.541,176.299 48.126 C 177.233 47.726,177.998 47.265,177.999 47.100 C 177.999 46.935,178.439 46.800,178.976 46.800 C 179.513 46.800,180.064 46.620,180.200 46.400 C 180.336 46.180,181.787 46.000,183.424 46.000 C 185.141 46.000,186.400 46.169,186.400 46.400 C 186.400 46.620,186.874 46.800,187.453 46.800 C 188.032 46.800,188.829 47.172,189.223 47.626 C 189.617 48.081,190.039 48.456,190.161 48.461 C 191.016 48.495,191.954 48.951,191.772 49.245 C 191.651 49.440,191.923 49.600,192.376 49.600 C 192.829 49.600,193.200 49.750,193.200 49.932 C 193.200 50.115,193.695 50.519,194.300 50.830 C 194.905 51.140,195.691 51.711,196.047 52.097 C 196.403 52.484,196.948 52.800,197.259 52.800 C 197.569 52.800,198.083 53.160,198.400 53.600 C 198.717 54.040,199.257 54.400,199.600 54.400 C 199.943 54.400,200.483 54.760,200.800 55.200 C 201.117 55.640,201.657 56.000,202.000 56.000 C 202.343 56.000,202.883 56.360,203.200 56.800 C 203.517 57.240,204.057 57.600,204.400 57.600 C 204.743 57.600,205.283 57.960,205.600 58.400 C 205.917 58.840,206.497 59.200,206.888 59.200 C 207.280 59.200,207.600 59.380,207.600 59.600 C 207.600 59.820,208.140 60.000,208.800 60.000 C 209.460 60.000,210.000 59.820,210.000 59.600 C 210.000 59.380,210.270 59.200,210.600 59.200 C 210.930 59.200,211.200 59.020,211.200 58.800 C 211.200 58.580,211.560 58.400,212.000 58.400 C 212.440 58.400,212.800 58.220,212.800 58.000 C 212.800 57.780,213.149 57.600,213.576 57.600 C 214.003 57.600,214.464 57.420,214.600 57.200 C 214.736 56.980,215.287 56.800,215.824 56.800 C 216.361 56.800,216.800 56.620,216.800 56.400 C 216.800 56.180,217.340 56.000,218.000 56.000 C 218.660 56.000,219.200 55.820,219.200 55.600 C 219.200 55.380,219.542 55.200,219.960 55.200 C 220.551 55.200,220.770 54.823,220.947 53.500 C 221.552 48.984,221.708 48.173,222.041 47.820 C 222.238 47.611,222.400 46.677,222.400 45.744 C 222.400 44.811,222.580 43.936,222.800 43.800 C 223.020 43.664,223.200 42.663,223.200 41.576 C 223.200 40.489,223.380 39.600,223.600 39.600 C 223.820 39.600,224.000 38.700,224.000 37.600 C 224.000 36.500,224.180 35.600,224.400 35.600 C 224.620 35.600,224.800 35.237,224.800 34.794 C 224.800 33.667,225.731 30.800,226.097 30.800 C 226.264 30.800,226.400 30.527,226.400 30.193 C 226.400 29.314,231.074 24.800,231.984 24.800 C 232.407 24.800,232.864 24.620,233.000 24.400 C 233.136 24.180,233.777 24.000,234.424 24.000 C 235.071 24.000,235.600 23.820,235.600 23.600 C 235.600 23.344,239.204 23.200,245.612 23.200 L 255.624 23.200 260.400 18.400 C 263.027 15.760,265.452 13.600,265.788 13.600 C 266.125 13.600,266.400 13.420,266.400 13.200 C 266.400 12.980,266.839 12.800,267.376 12.800 C 267.913 12.800,268.464 12.620,268.600 12.400 C 268.736 12.180,269.287 12.000,269.824 12.000 C 270.533 12.000,270.800 11.782,270.800 11.200 C 270.800 10.618,270.533 10.400,269.824 10.400 C 269.287 10.400,268.742 10.230,268.614 10.023 C 268.486 9.816,267.576 9.525,266.591 9.378 C 265.606 9.230,264.800 8.950,264.800 8.755 C 264.800 8.560,264.260 8.400,263.600 8.400 C 262.940 8.400,262.400 8.220,262.400 8.000 C 262.400 7.780,261.860 7.600,261.200 7.600 C 260.540 7.600,260.000 7.420,260.000 7.200 C 260.000 6.980,259.460 6.800,258.800 6.800 C 258.140 6.800,257.600 6.620,257.600 6.400 C 257.600 6.180,257.060 6.000,256.400 6.000 C 255.740 6.000,255.200 5.820,255.200 5.600 C 255.200 5.380,254.480 5.200,253.600 5.200 C 252.720 5.200,252.000 5.020,252.000 4.800 C 252.000 4.580,251.370 4.400,250.600 4.400 C 249.830 4.400,249.200 4.220,249.200 4.000 C 249.200 3.780,248.480 3.600,247.600 3.600 C 246.720 3.600,246.000 3.420,246.000 3.200 C 246.000 2.980,245.100 2.800,244.000 2.800 C 242.900 2.800,242.000 2.620,242.000 2.400 C 242.000 2.178,240.933 2.000,239.600 2.000 C 238.267 2.000,237.200 1.822,237.200 1.600 C 237.200 1.372,236.011 1.200,234.433 1.200 C 232.811 1.200,231.607 1.022,231.523 0.769 C 231.373 0.319,206.547 -0.049,197.806 0.269 M326.000 56.609 C 326.000 56.943,326.945 58.193,328.100 59.385 C 330.558 61.921,330.814 62.240,331.568 63.700 C 331.880 64.305,332.285 64.800,332.468 64.800 C 332.650 64.800,332.800 65.160,332.800 65.600 C 332.800 66.040,332.980 66.400,333.200 66.400 C 333.420 66.400,333.600 66.929,333.600 67.576 C 333.600 68.223,333.780 68.864,334.000 69.000 C 334.220 69.136,334.400 69.946,334.400 70.800 C 334.400 71.654,334.220 72.464,334.000 72.600 C 333.780 72.736,333.600 73.467,333.600 74.224 C 333.600 74.981,333.420 75.600,333.200 75.600 C 332.980 75.600,332.800 75.960,332.800 76.400 C 332.800 76.840,332.620 77.200,332.400 77.200 C 332.180 77.200,332.000 77.560,332.000 78.000 C 332.000 78.440,331.847 78.800,331.661 78.800 C 331.474 78.800,330.997 79.520,330.600 80.400 C 330.203 81.280,329.726 82.000,329.539 82.000 C 329.353 82.000,329.200 82.320,329.200 82.712 C 329.200 83.103,328.840 83.683,328.400 84.000 C 327.960 84.317,327.600 84.857,327.600 85.200 C 327.600 85.543,327.240 86.083,326.800 86.400 C 326.360 86.717,326.000 87.167,326.000 87.400 C 326.000 87.633,325.640 88.083,325.200 88.400 C 324.760 88.717,324.400 89.257,324.400 89.600 C 324.400 89.943,324.040 90.483,323.600 90.800 C 323.160 91.117,322.800 91.657,322.800 92.000 C 322.800 92.343,322.440 92.883,322.000 93.200 C 321.560 93.517,321.200 94.097,321.200 94.488 C 321.200 94.880,321.020 95.200,320.800 95.200 C 320.580 95.200,320.400 95.819,320.400 96.576 C 320.400 97.333,320.580 98.064,320.800 98.200 C 321.020 98.336,321.200 98.797,321.200 99.224 C 321.200 99.651,321.380 100.000,321.600 100.000 C 321.820 100.000,322.000 100.360,322.000 100.800 C 322.000 101.240,322.180 101.600,322.400 101.600 C 322.620 101.600,322.800 101.960,322.800 102.400 C 322.800 102.840,322.980 103.200,323.200 103.200 C 323.420 103.200,323.600 103.740,323.600 104.400 C 323.600 105.060,323.780 105.600,324.000 105.600 C 324.220 105.600,324.400 105.973,324.400 106.429 C 324.400 107.556,325.330 108.400,326.571 108.400 C 327.137 108.400,327.600 108.580,327.600 108.800 C 327.600 109.020,328.410 109.200,329.400 109.200 C 330.390 109.200,331.200 109.380,331.200 109.600 C 331.200 109.822,332.267 110.000,333.600 110.000 C 334.933 110.000,336.000 109.822,336.000 109.600 C 336.000 109.380,336.360 109.200,336.800 109.200 C 337.240 109.200,337.600 109.020,337.600 108.800 C 337.600 108.580,337.878 108.400,338.218 108.400 C 338.558 108.400,339.270 107.995,339.799 107.500 C 341.415 105.989,341.948 105.600,342.401 105.600 C 342.978 105.600,344.800 103.761,344.800 103.179 C 344.800 102.927,345.340 102.217,346.000 101.600 C 346.660 100.983,347.200 100.231,347.200 99.928 C 347.200 99.625,347.560 99.117,348.000 98.800 C 348.440 98.483,348.800 97.903,348.800 97.512 C 348.800 97.120,348.974 96.800,349.186 96.800 C 349.399 96.800,349.692 95.900,349.838 94.800 C 349.984 93.700,350.260 92.800,350.452 92.800 C 350.643 92.800,350.800 92.080,350.800 91.200 C 350.800 90.320,350.980 89.600,351.200 89.600 C 351.447 89.600,351.600 87.533,351.600 84.200 C 351.600 80.867,351.447 78.800,351.200 78.800 C 350.980 78.800,350.800 78.181,350.800 77.424 C 350.800 76.667,350.620 75.936,350.400 75.800 C 350.180 75.664,350.000 75.086,350.000 74.516 C 350.000 73.097,348.091 69.241,346.723 67.897 C 346.105 67.290,345.600 66.611,345.600 66.388 C 345.600 65.793,341.307 61.600,340.697 61.600 C 340.411 61.600,339.917 61.240,339.600 60.800 C 339.283 60.360,338.703 60.000,338.312 60.000 C 337.920 60.000,337.600 59.820,337.600 59.600 C 337.600 59.380,337.240 59.200,336.800 59.200 C 336.360 59.200,336.000 59.020,336.000 58.800 C 336.000 58.580,335.640 58.400,335.200 58.400 C 334.760 58.400,334.400 58.220,334.400 58.000 C 334.400 57.780,334.051 57.600,333.624 57.600 C 333.197 57.600,332.736 57.420,332.600 57.200 C 332.464 56.980,331.823 56.800,331.176 56.800 C 330.529 56.800,330.000 56.620,330.000 56.400 C 330.000 56.180,329.100 56.000,328.000 56.000 C 326.476 56.000,326.000 56.145,326.000 56.609 M242.200 98.000 C 242.064 98.220,240.703 98.400,239.176 98.400 C 237.592 98.400,236.400 98.572,236.400 98.800 C 236.400 99.020,235.860 99.200,235.200 99.200 C 234.540 99.200,234.000 99.380,234.000 99.600 C 234.000 99.820,233.460 100.000,232.800 100.000 C 232.140 100.000,231.600 100.146,231.600 100.325 C 231.600 100.504,230.970 100.898,230.200 101.200 C 229.430 101.502,228.800 101.896,228.800 102.075 C 228.800 102.254,228.440 102.400,228.000 102.400 C 227.560 102.400,227.200 102.580,227.200 102.800 C 227.200 103.020,226.916 103.200,226.569 103.200 C 226.221 103.200,225.246 103.920,224.400 104.800 C 223.554 105.680,222.593 106.400,222.264 106.400 C 221.551 106.400,218.400 109.336,218.400 110.000 C 218.400 110.254,217.680 111.154,216.800 112.000 C 215.920 112.846,215.200 113.821,215.200 114.169 C 215.200 114.516,215.020 114.800,214.800 114.800 C 214.580 114.800,214.400 115.160,214.400 115.600 C 214.400 116.040,214.220 116.400,214.000 116.400 C 213.780 116.400,213.600 116.760,213.600 117.200 C 213.600 117.640,213.420 118.000,213.200 118.000 C 212.980 118.000,212.800 118.360,212.800 118.800 C 212.800 119.240,212.620 119.600,212.400 119.600 C 212.180 119.600,212.000 119.960,212.000 120.400 C 212.000 120.840,211.857 121.200,211.682 121.200 C 211.507 121.200,211.319 121.866,211.264 122.681 C 211.209 123.495,210.947 124.423,210.682 124.742 C 209.991 125.575,210.013 141.373,210.706 142.066 C 210.977 142.337,211.200 142.963,211.200 143.456 C 211.200 143.949,211.380 144.464,211.600 144.600 C 211.820 144.736,212.000 145.287,212.000 145.824 C 212.000 146.361,212.180 146.800,212.400 146.800 C 212.620 146.800,212.800 147.160,212.800 147.600 C 212.800 148.040,212.980 148.400,213.200 148.400 C 213.420 148.400,213.600 148.760,213.600 149.200 C 213.600 149.640,213.780 150.000,214.000 150.000 C 214.220 150.000,214.400 150.360,214.400 150.800 C 214.400 151.240,214.568 151.600,214.773 151.600 C 214.978 151.600,215.262 151.966,215.404 152.413 C 215.546 152.860,216.098 153.662,216.631 154.195 C 217.164 154.728,217.600 155.328,217.600 155.528 C 217.600 156.074,221.859 160.400,222.397 160.400 C 222.653 160.400,223.554 161.120,224.400 162.000 C 225.246 162.880,226.221 163.600,226.569 163.600 C 226.916 163.600,227.200 163.764,227.200 163.965 C 227.200 164.166,227.920 164.451,228.800 164.600 C 229.680 164.749,230.400 165.034,230.400 165.235 C 230.400 165.436,230.670 165.600,231.000 165.600 C 231.330 165.600,231.600 165.780,231.600 166.000 C 231.600 166.220,232.230 166.400,233.000 166.400 C 233.770 166.400,234.400 166.580,234.400 166.800 C 234.400 167.020,234.850 167.200,235.400 167.200 C 235.950 167.200,236.400 167.380,236.400 167.600 C 236.400 167.829,237.600 168.000,239.200 168.000 C 240.800 168.000,242.000 168.171,242.000 168.400 C 242.000 168.640,243.600 168.800,246.000 168.800 C 248.400 168.800,250.000 168.640,250.000 168.400 C 250.000 168.180,250.810 168.000,251.800 168.000 C 252.790 168.000,253.600 167.820,253.600 167.600 C 253.600 167.380,254.320 167.200,255.200 167.200 C 256.080 167.200,256.800 167.020,256.800 166.800 C 256.800 166.580,257.340 166.400,258.000 166.400 C 258.660 166.400,259.200 166.220,259.200 166.000 C 259.200 165.780,259.560 165.600,260.000 165.600 C 260.440 165.600,260.800 165.436,260.800 165.235 C 260.800 165.034,261.488 164.754,262.328 164.612 C 263.169 164.470,264.109 164.004,264.417 163.577 C 264.725 163.150,265.207 162.800,265.488 162.800 C 265.769 162.800,266.741 162.080,267.648 161.200 C 268.555 160.320,269.424 159.600,269.581 159.600 C 269.737 159.600,270.120 159.105,270.432 158.500 C 270.745 157.895,271.855 156.557,272.900 155.526 C 273.945 154.495,274.800 153.410,274.800 153.114 C 274.800 152.819,275.160 152.317,275.600 152.000 C 276.040 151.683,276.400 151.103,276.400 150.712 C 276.400 150.320,276.580 150.000,276.800 150.000 C 277.020 150.000,277.200 149.640,277.200 149.200 C 277.200 148.760,277.380 148.400,277.600 148.400 C 277.820 148.400,278.000 148.040,278.000 147.600 C 278.000 147.160,278.180 146.800,278.400 146.800 C 278.620 146.800,278.800 146.361,278.800 145.824 C 278.800 145.287,278.980 144.736,279.200 144.600 C 279.420 144.464,279.600 143.733,279.600 142.976 C 279.600 142.219,279.780 141.600,280.000 141.600 C 280.220 141.600,280.400 140.711,280.400 139.624 C 280.400 138.537,280.580 137.536,280.800 137.400 C 281.020 137.264,281.200 135.723,281.200 133.976 C 281.200 132.125,281.033 130.800,280.800 130.800 C 280.571 130.800,280.400 129.600,280.400 128.000 C 280.400 126.400,280.229 125.200,280.000 125.200 C 279.780 125.200,279.600 124.660,279.600 124.000 C 279.600 123.340,279.420 122.800,279.200 122.800 C 278.980 122.800,278.800 122.260,278.800 121.600 C 278.800 120.940,278.620 120.400,278.400 120.400 C 278.180 120.400,278.000 119.860,278.000 119.200 C 278.000 118.540,277.865 117.999,277.700 117.997 C 277.363 117.993,276.400 116.075,276.400 115.409 C 276.400 115.171,276.040 114.717,275.600 114.400 C 275.160 114.083,274.800 113.575,274.800 113.272 C 274.800 112.969,274.260 112.217,273.600 111.600 C 272.940 110.983,272.400 110.277,272.400 110.031 C 272.400 109.391,268.565 105.600,267.918 105.600 C 267.620 105.600,267.117 105.240,266.800 104.800 C 266.483 104.360,265.943 104.000,265.600 104.000 C 265.257 104.000,264.717 103.640,264.400 103.200 C 264.083 102.760,263.503 102.400,263.112 102.400 C 262.720 102.400,262.400 102.220,262.400 102.000 C 262.400 101.780,262.040 101.600,261.600 101.600 C 261.160 101.600,260.800 101.420,260.800 101.200 C 260.800 100.980,260.440 100.800,260.000 100.800 C 259.560 100.800,259.200 100.620,259.200 100.400 C 259.200 100.180,258.660 100.000,258.000 100.000 C 257.340 100.000,256.800 99.820,256.800 99.600 C 256.800 99.380,256.260 99.200,255.600 99.200 C 254.940 99.200,254.400 99.020,254.400 98.800 C 254.400 98.580,253.511 98.400,252.424 98.400 C 251.337 98.400,250.336 98.220,250.200 98.000 C 250.064 97.779,248.270 97.600,246.200 97.600 C 244.130 97.600,242.336 97.779,242.200 98.000 " stroke="none" fill="#fbd304" fill-rule="evenodd"></path></g></svg>