<svg id="svg" version="1.1" xmlns="http://www.w3.org/2000/svg" xmlns:xlink="http://www.w3.org/1999/xlink" width="400" height="298.60031104199066" viewBox="0, 0, 400,298.60031104199066"><g id="svgg"><path id="path0" d="M196.415 34.419 C 195.101 34.883,193.302 36.269,192.549 37.399 C 191.514 38.951,187.770 46.263,186.995 48.245 C 186.610 49.231,185.532 51.449,184.600 53.174 C 183.667 54.899,181.857 58.462,180.577 61.090 C 179.297 63.719,176.322 69.740,173.965 74.469 C 171.607 79.199,169.679 83.279,169.679 83.536 C 169.679 83.793,168.950 85.300,168.058 86.886 C 167.167 88.471,166.066 90.537,165.611 91.476 C 164.652 93.458,164.710 93.426,161.347 93.808 C 159.932 93.969,157.834 94.231,156.684 94.390 C 155.534 94.549,153.585 94.817,152.353 94.986 C 151.120 95.154,149.171 95.432,148.021 95.604 C 146.871 95.775,145.056 96.040,143.988 96.191 C 139.826 96.782,129.211 98.452,126.662 98.917 C 125.758 99.082,124.145 99.336,123.077 99.483 C 122.009 99.629,120.329 99.896,119.343 100.075 C 116.563 100.580,111.090 101.335,106.497 101.847 C 98.365 102.753,94.645 108.871,98.131 115.605 C 98.565 116.442,100.550 118.705,100.231 117.999 C 100.120 117.752,100.292 117.847,100.612 118.210 C 100.933 118.573,101.279 118.785,101.382 118.683 C 101.484 118.580,101.568 118.762,101.568 119.086 C 101.568 119.464,104.318 122.350,109.231 127.127 C 113.446 131.225,118.313 136.023,120.047 137.789 C 121.781 139.556,123.340 141.005,123.512 141.011 C 123.862 141.022,125.168 142.048,125.168 142.313 C 125.168 142.511,131.647 149.036,138.403 155.641 L 143.125 160.257 142.800 162.354 C 142.091 166.933,141.939 167.825,141.477 170.127 C 141.214 171.441,140.858 173.323,140.687 174.309 C 140.516 175.295,140.251 176.774,140.099 177.595 C 139.947 178.417,139.753 179.559,139.668 180.134 C 139.584 180.709,139.372 181.987,139.197 182.972 C 139.023 183.958,138.761 185.504,138.615 186.408 C 138.469 187.311,138.202 188.790,138.023 189.694 C 137.843 190.597,137.491 192.479,137.240 193.876 C 136.988 195.273,136.656 197.020,136.500 197.760 C 136.345 198.499,135.945 201.187,135.613 203.734 C 135.280 206.281,134.734 209.843,134.400 211.650 C 133.305 217.576,133.210 218.198,133.042 220.486 C 132.454 228.524,140.071 232.828,147.633 228.731 C 148.668 228.170,151.665 226.599,154.294 225.241 C 156.923 223.882,159.208 222.670,159.373 222.547 C 159.537 222.424,162.629 220.810,166.243 218.960 C 169.858 217.110,173.555 215.161,174.459 214.627 C 175.362 214.094,179.000 212.182,182.541 210.379 C 186.083 208.576,189.511 206.771,190.159 206.368 C 192.106 205.158,199.201 201.643,199.696 201.643 C 200.258 201.643,206.417 204.710,211.501 207.522 C 213.555 208.657,216.781 210.346,218.671 211.274 C 220.560 212.201,222.845 213.389,223.749 213.913 C 224.653 214.438,227.072 215.742,229.126 216.812 C 231.180 217.883,234.339 219.530,236.146 220.472 C 237.954 221.414,240.978 223.010,242.868 224.019 C 254.945 230.463,257.114 231.148,260.917 229.713 C 265.931 227.820,267.457 223.412,265.901 215.310 C 265.533 213.393,265.181 211.405,264.696 208.514 C 264.517 207.446,264.233 205.833,264.064 204.929 C 263.896 204.025,263.627 202.278,263.468 201.046 C 263.308 199.813,263.104 198.606,263.014 198.364 C 262.923 198.121,262.728 197.045,262.580 195.974 C 262.240 193.516,261.816 190.947,261.370 188.648 C 261.179 187.662,260.908 186.117,260.768 185.213 C 260.628 184.309,260.370 182.763,260.194 181.777 C 259.880 180.014,259.576 178.227,259.013 174.832 C 258.856 173.887,258.589 172.375,258.418 171.471 C 258.248 170.568,257.980 169.022,257.823 168.036 C 257.666 167.050,257.385 165.504,257.198 164.600 C 257.010 163.697,256.787 162.297,256.701 161.489 L 256.545 160.020 263.505 153.199 C 267.333 149.447,270.574 146.378,270.707 146.378 C 270.840 146.378,270.948 146.239,270.948 146.070 C 270.948 145.901,271.450 145.329,272.064 144.800 C 272.677 144.271,275.675 141.376,278.725 138.367 C 281.775 135.358,284.429 132.797,284.623 132.678 C 286.557 131.482,300.994 116.492,301.750 114.894 C 304.826 108.393,301.017 102.776,292.905 101.852 C 291.591 101.703,289.440 101.437,288.125 101.263 C 286.811 101.088,284.996 100.878,284.093 100.795 C 283.189 100.713,282.181 100.523,281.852 100.373 C 281.524 100.224,280.448 100.026,279.462 99.934 C 274.954 99.514,274.348 99.435,273.786 99.192 C 273.236 98.953,271.240 98.586,267.065 97.955 C 266.161 97.818,264.481 97.562,263.331 97.385 C 262.181 97.209,260.299 96.926,259.149 96.757 C 257.999 96.588,256.217 96.324,255.190 96.171 C 246.115 94.817,242.322 94.290,238.237 93.815 C 234.706 93.405,235.325 93.939,232.850 89.171 C 229.964 83.615,229.477 82.632,226.556 76.475 C 225.114 73.435,223.580 70.344,223.148 69.604 C 222.716 68.865,222.104 67.655,221.789 66.916 C 218.760 59.809,206.925 37.009,205.709 35.939 C 203.680 34.153,199.231 33.425,196.415 34.419 M61.837 40.016 C 61.591 40.183,60.525 40.322,59.469 40.324 C 57.792 40.328,56.888 40.497,54.966 41.166 C 54.720 41.252,54.451 41.335,54.369 41.349 C 52.677 41.654,46.742 44.479,46.124 45.274 C 45.944 45.506,45.730 45.630,45.649 45.550 C 45.244 45.144,42.121 48.981,42.121 49.885 C 42.121 52.246,46.274 58.779,49.407 61.346 C 50.164 61.967,50.784 62.416,50.784 62.345 C 50.784 62.273,51.272 62.675,51.868 63.237 C 53.817 65.075,60.158 67.828,64.644 68.784 C 67.528 69.398,78.245 69.097,78.999 68.380 C 79.155 68.232,79.569 68.111,79.919 68.111 C 83.287 68.111,92.905 61.784,92.905 59.569 C 92.905 54.736,84.809 45.577,78.209 42.944 C 75.632 41.916,72.483 40.926,71.791 40.926 C 71.475 40.926,71.090 40.801,70.934 40.648 C 70.777 40.496,69.507 40.299,68.111 40.212 C 66.714 40.125,64.832 39.977,63.928 39.884 C 63.005 39.788,62.089 39.846,61.837 40.016 M328.902 40.647 C 328.491 40.787,326.831 41.315,325.213 41.820 C 320.012 43.443,314.859 46.571,313.562 48.892 C 313.393 49.193,312.438 50.246,311.438 51.232 C 309.662 52.983,307.451 56.787,306.972 58.915 C 306.798 59.689,309.912 63.630,310.698 63.630 C 310.829 63.630,311.719 64.142,312.675 64.769 C 317.195 67.732,321.219 68.874,328.305 69.203 C 331.859 69.368,332.530 69.279,337.981 67.919 C 345.854 65.955,353.643 59.955,356.543 53.620 C 356.993 52.635,357.479 51.596,357.621 51.311 C 358.652 49.241,353.779 44.185,349.480 42.864 C 349.088 42.744,348.633 42.552,348.469 42.439 C 348.305 42.325,347.162 41.928,345.930 41.557 C 344.698 41.186,343.276 40.758,342.772 40.606 C 341.636 40.263,329.927 40.297,328.902 40.647 M47.199 98.869 C 46.460 99.004,45.317 99.210,44.660 99.326 C 43.204 99.584,40.327 100.520,38.614 101.295 C 37.918 101.609,37.202 101.867,37.023 101.867 C 36.517 101.867,32.805 104.131,31.889 104.997 C 31.438 105.425,31.068 105.673,31.068 105.549 C 31.068 104.570,26.371 110.366,24.666 113.448 C 22.978 116.499,22.971 116.965,24.577 118.847 C 33.211 128.962,52.550 130.782,64.556 122.608 C 69.788 119.047,74.981 112.674,74.981 109.816 C 74.981 107.928,70.017 103.617,65.917 101.944 C 64.905 101.532,63.540 100.961,62.883 100.676 C 61.029 99.873,59.637 99.477,58.664 99.477 C 58.175 99.477,57.621 99.323,57.433 99.136 C 57.014 98.716,49.147 98.511,47.199 98.869 M342.793 98.905 C 342.136 99.042,341.128 99.236,340.553 99.336 C 339.978 99.436,339.238 99.631,338.910 99.768 C 338.581 99.906,336.865 100.584,335.097 101.276 C 333.329 101.967,331.814 102.644,331.730 102.779 C 331.647 102.915,330.840 103.448,329.938 103.964 C 328.922 104.545,328.375 105.035,328.499 105.251 C 328.609 105.444,328.589 105.501,328.454 105.379 C 328.146 105.100,325.067 108.049,324.699 108.975 C 324.144 110.369,327.190 115.300,330.933 119.067 C 342.179 130.383,363.127 130.519,374.442 119.349 C 376.980 116.844,377.015 116.731,375.883 114.604 C 373.123 109.414,368.750 104.950,364.152 102.629 C 363.249 102.173,362.276 101.681,361.991 101.535 C 361.705 101.389,361.228 101.270,360.930 101.270 C 360.632 101.270,360.261 101.159,360.105 101.023 C 359.948 100.887,359.216 100.603,358.476 100.391 C 357.737 100.180,356.863 99.898,356.535 99.764 C 355.939 99.523,355.352 99.384,352.801 98.882 C 351.131 98.553,344.406 98.568,342.793 98.905 M220.399 114.063 C 220.938 114.337,221.745 115.087,222.191 115.731 L 223.002 116.901 223.087 133.081 L 223.171 149.260 222.326 150.881 C 220.495 154.394,216.143 154.562,213.815 151.210 L 212.845 149.813 212.845 133.532 C 212.845 115.360,212.746 116.254,214.959 114.566 C 216.721 113.222,218.428 113.064,220.399 114.063 M184.520 114.379 C 186.933 116.127,186.856 115.493,186.856 133.532 L 186.856 149.515 186.154 151.023 C 184.550 154.469,178.600 154.321,177.115 150.799 C 176.776 149.997,176.699 146.724,176.699 133.210 L 176.699 116.608 177.525 115.525 C 179.206 113.320,182.348 112.806,184.520 114.379 M180.605 116.281 C 177.358 121.243,179.162 134.313,182.963 133.359 C 185.996 132.597,186.914 121.059,184.325 116.222 C 183.830 115.296,181.222 115.337,180.605 116.281 M217.014 116.416 C 214.770 119.830,215.666 132.715,218.191 133.349 C 221.190 134.101,222.881 127.829,221.767 120.090 C 221.174 115.970,218.609 113.988,217.014 116.416 M334.130 154.140 C 326.635 154.937,325.056 156.750,326.370 163.047 C 329.153 176.386,337.777 185.215,351.008 188.273 C 353.014 188.736,361.365 188.893,362.957 188.497 C 365.939 187.755,366.714 187.533,367.210 187.275 C 367.496 187.127,367.927 187.005,368.170 187.005 C 369.696 187.005,370.344 183.536,369.494 179.915 C 367.162 169.986,363.620 164.834,355.057 158.914 C 349.657 155.181,341.604 153.344,334.130 154.140 M55.863 154.586 C 52.858 155.250,50.808 155.942,48.319 157.133 C 43.660 159.361,38.747 163.147,36.497 166.243 C 32.814 171.310,30.166 178.601,30.176 183.649 C 30.182 186.681,30.477 186.939,35.698 188.481 C 37.141 188.907,47.180 188.754,49.440 188.272 C 61.031 185.799,71.143 175.782,73.186 164.750 C 73.369 163.764,73.646 162.309,73.802 161.516 C 74.684 157.031,73.723 156.060,66.837 154.473 C 64.988 154.047,57.973 154.119,55.863 154.586 M81.255 195.875 C 79.012 196.251,73.058 198.975,71.676 200.257 C 71.274 200.629,70.684 201.080,70.364 201.259 C 70.044 201.438,68.600 202.909,67.156 204.527 C 58.161 214.600,56.478 229.914,63.113 241.301 C 65.406 245.235,66.537 245.411,72.225 242.723 C 79.241 239.407,83.600 234.997,87.141 227.633 C 88.712 224.365,89.099 223.066,90.236 217.236 C 91.366 211.443,88.597 200.519,85.042 196.750 C 84.004 195.649,83.413 195.513,81.255 195.875 M314.895 196.529 C 309.897 201.879,307.804 214.625,310.572 222.853 C 313.853 232.605,320.186 240.083,327.483 242.821 C 328.428 243.175,329.937 243.743,330.837 244.082 C 334.075 245.304,335.892 243.798,338.160 238.012 C 338.993 235.887,339.271 234.832,340.271 230.020 C 340.786 227.545,340.315 220.738,339.383 217.177 C 338.115 212.335,333.986 205.051,332.183 204.479 C 331.857 204.376,331.591 204.161,331.591 204.001 C 331.591 203.842,331.087 203.196,330.471 202.566 C 325.656 197.647,316.989 194.287,314.895 196.529 M103.607 229.735 C 103.022 230.076,99.477 234.654,99.477 235.068 C 99.477 235.223,99.373 235.395,99.246 235.449 C 98.196 235.902,95.404 243.307,94.927 246.901 C 94.430 250.653,94.692 258.179,95.334 258.575 C 95.477 258.663,95.594 259.030,95.595 259.390 C 95.605 263.937,102.394 274.200,107.602 277.540 C 112.971 280.984,114.389 281.230,116.467 279.076 C 122.955 272.354,125.843 260.495,123.431 250.485 C 122.251 245.587,118.111 237.614,117.079 238.252 C 116.919 238.350,116.808 238.320,116.832 238.185 C 117.298 235.502,106.046 228.312,103.607 229.735 M291.884 230.339 C 277.626 236.934,270.964 257.785,278.526 272.143 C 279.175 273.376,280.048 275.028,280.465 275.814 C 282.780 280.173,285.548 281.298,289.215 279.368 C 303.373 271.921,309.034 252.767,301.592 237.491 C 298.116 230.354,295.700 228.574,291.884 230.339 " stroke="none" fill="#fcd304" fill-rule="evenodd"></path><path id="path1" d="M46.814 0.683 C 45.199 1.581,39.134 6.869,39.134 7.379 C 39.134 7.470,38.697 8.052,38.163 8.671 C 35.627 11.613,33.981 15.280,33.570 18.903 C 33.462 19.852,33.258 20.701,33.117 20.788 C 32.976 20.875,32.860 21.804,32.860 22.853 C 32.860 23.901,32.726 24.842,32.562 24.944 C 32.392 25.049,32.263 26.534,32.263 28.379 C 32.263 30.224,32.392 31.710,32.562 31.815 C 32.726 31.916,32.860 32.857,32.860 33.906 C 32.860 34.954,32.995 35.895,33.159 35.997 C 33.323 36.099,33.458 36.523,33.458 36.940 C 33.458 41.352,36.411 43.429,39.045 40.868 C 40.802 39.159,45.191 36.129,47.498 35.031 C 51.165 33.286,51.679 33.125,56.717 32.152 C 60.498 31.422,61.198 30.834,61.227 28.364 C 61.234 27.781,61.380 27.163,61.552 26.991 C 61.925 26.618,61.752 17.515,61.320 14.787 C 60.687 10.788,58.181 5.532,54.733 0.971 L 53.999 0.000 50.973 0.026 C 48.484 0.048,47.745 0.165,46.814 0.683 M344.995 0.822 C 344.583 1.273,343.987 2.033,343.669 2.509 C 343.352 2.985,342.858 3.725,342.572 4.152 C 339.458 8.804,338.387 13.307,338.371 21.807 C 338.353 31.269,338.339 31.242,344.137 32.400 C 346.864 32.945,348.751 33.506,349.963 34.131 C 350.948 34.641,352.686 35.518,353.825 36.080 C 355.935 37.123,357.650 38.208,357.829 38.612 C 357.884 38.735,358.670 39.328,359.575 39.929 C 360.480 40.529,361.288 41.197,361.371 41.413 C 362.167 43.488,365.432 41.479,366.046 38.536 C 366.132 38.125,366.359 37.252,366.552 36.594 C 367.678 32.747,367.950 28.430,367.342 24.048 C 366.711 19.503,366.531 18.764,365.611 16.957 C 365.466 16.672,365.347 16.228,365.347 15.972 C 365.347 15.266,362.547 9.529,361.731 8.562 C 359.787 6.259,357.142 3.585,356.809 3.585 C 356.604 3.585,356.390 3.482,356.336 3.356 C 356.166 2.965,353.598 0.996,352.591 0.485 C 350.816 -0.416,345.924 -0.199,344.995 0.822 M307.095 60.437 C 307.095 60.488,307.523 60.925,308.047 61.408 L 308.998 62.285 308.271 61.331 C 307.652 60.520,307.095 60.096,307.095 60.437 M13.341 67.877 C 10.334 71.049,8.777 73.590,7.765 76.975 C 6.295 81.888,6.181 82.758,6.176 89.022 C 6.172 94.940,6.306 96.052,7.432 99.441 C 7.781 100.490,8.066 101.533,8.066 101.760 C 8.066 103.107,11.288 108.370,13.134 110.037 C 14.620 111.380,16.307 111.501,16.898 110.308 C 17.081 109.940,17.453 109.391,17.726 109.090 C 17.999 108.788,18.223 108.453,18.223 108.344 C 18.223 108.127,18.767 107.424,20.239 105.742 C 20.773 105.132,21.210 104.509,21.210 104.359 C 21.210 103.627,27.815 97.685,28.629 97.685 C 28.769 97.685,29.128 97.416,29.425 97.087 C 29.722 96.759,30.126 96.490,30.321 96.490 C 30.517 96.490,30.911 96.231,31.197 95.915 C 31.483 95.598,32.445 94.984,33.335 94.548 C 34.519 93.969,34.960 93.584,34.985 93.107 C 35.079 91.263,34.868 88.240,34.628 87.991 C 34.477 87.835,34.354 87.204,34.354 86.590 C 34.354 85.975,34.220 85.389,34.055 85.288 C 33.891 85.186,33.757 84.783,33.757 84.391 C 33.757 84.000,33.640 83.608,33.497 83.519 C 33.354 83.431,33.146 82.788,33.035 82.089 C 32.824 80.770,31.329 77.597,29.933 75.507 C 29.489 74.842,28.971 74.032,28.781 73.705 C 27.575 71.635,24.133 68.868,19.632 66.352 C 17.242 65.016,15.698 65.390,13.341 67.877 M379.232 66.872 C 376.265 68.413,371.852 72.171,371.347 73.588 C 371.279 73.779,370.863 74.273,370.422 74.685 C 367.729 77.204,365.071 85.228,365.056 90.883 L 365.049 93.789 366.169 94.405 C 366.785 94.743,367.711 95.317,368.227 95.680 C 368.743 96.043,369.549 96.576,370.019 96.864 C 371.613 97.840,373.560 99.293,374.100 99.909 C 374.396 100.247,375.911 101.867,377.467 103.510 C 381.304 107.564,381.608 107.926,382.186 109.144 C 383.325 111.546,385.085 111.880,386.732 110.007 C 389.419 106.953,392.163 101.928,392.890 98.730 C 393.040 98.073,393.312 96.931,393.495 96.191 C 393.917 94.488,393.926 83.705,393.507 81.703 C 393.041 79.472,392.329 77.499,390.705 73.936 C 389.725 71.784,386.806 67.728,385.366 66.517 C 383.960 65.333,381.976 65.448,379.232 66.872 M327.259 105.751 C 326.787 106.243,326.507 106.647,326.637 106.647 C 326.768 106.647,327.140 106.309,327.464 105.897 C 327.788 105.485,328.198 105.237,328.375 105.346 C 328.565 105.463,328.609 105.404,328.483 105.199 C 328.201 104.743,328.242 104.724,327.259 105.751 M99.969 117.927 C 99.859 118.106,100.174 118.540,100.669 118.892 C 101.475 119.467,101.568 119.479,101.568 119.015 C 101.568 118.730,101.484 118.580,101.382 118.683 C 101.279 118.785,100.965 118.584,100.683 118.236 C 100.355 117.831,100.098 117.720,99.969 117.927 M374.722 119.001 C 373.838 119.892,373.254 120.687,373.483 120.687 C 373.540 120.687,374.181 120.082,374.907 119.343 C 375.632 118.603,376.097 118.013,375.940 118.030 C 375.782 118.047,375.234 118.484,374.722 119.001 M296.172 121.359 L 295.295 122.330 296.266 121.453 C 296.800 120.970,297.237 120.533,297.237 120.482 C 297.237 120.251,296.990 120.454,296.172 121.359 M291.252 126.288 L 289.619 128.006 291.337 126.373 C 292.282 125.475,293.055 124.702,293.055 124.655 C 293.055 124.434,292.769 124.692,291.252 126.288 M124.136 141.911 C 124.616 142.412,125.057 142.679,125.115 142.504 C 125.174 142.329,124.907 141.923,124.523 141.603 C 123.430 140.692,123.169 140.901,124.136 141.911 M394.025 142.479 C 393.615 142.619,392.539 142.748,391.636 142.765 C 390.732 142.783,389.607 142.998,389.137 143.243 C 388.666 143.489,388.093 143.689,387.863 143.689 C 387.633 143.689,387.212 143.810,386.926 143.957 C 386.641 144.105,385.415 144.537,384.201 144.918 C 382.987 145.299,381.709 145.821,381.363 146.078 C 381.016 146.336,380.214 146.811,379.582 147.134 C 378.129 147.877,370.724 155.602,370.724 156.374 C 370.724 156.497,370.388 156.997,369.978 157.485 C 368.896 158.771,369.254 161.656,370.618 162.653 C 370.855 162.826,371.210 163.251,371.409 163.596 C 371.608 163.942,372.316 165.036,372.982 166.027 C 373.649 167.018,374.370 168.413,374.585 169.127 C 374.799 169.841,375.288 171.165,375.670 172.069 C 376.773 174.677,377.540 177.993,377.857 181.527 C 378.112 184.378,378.448 184.914,379.982 184.914 C 381.142 184.914,384.979 183.197,385.664 182.371 C 385.867 182.127,386.197 181.927,386.398 181.927 C 386.599 181.927,387.007 181.658,387.304 181.329 C 387.601 181.001,388.000 180.732,388.190 180.732 C 388.553 180.732,394.201 175.036,394.854 174.010 C 395.276 173.349,396.243 171.866,396.706 171.173 C 397.157 170.496,398.367 167.678,399.143 165.497 C 399.920 163.312,400.368 149.844,399.752 147.192 C 399.441 145.857,398.343 142.829,398.070 142.556 C 397.786 142.272,394.799 142.215,394.025 142.479 M1.598 143.232 C 0.224 144.194,-0.000 145.942,0.000 155.710 C 0.000 160.698,0.111 164.907,0.247 165.063 C 0.383 165.220,0.676 165.952,0.898 166.692 C 1.528 168.784,4.198 173.703,5.329 174.855 C 5.679 175.212,6.866 176.547,7.966 177.821 C 9.066 179.096,10.439 180.440,11.018 180.809 C 11.597 181.177,12.413 181.707,12.831 181.986 C 15.200 183.564,18.282 184.914,19.516 184.914 C 21.360 184.914,21.689 184.407,21.923 181.200 C 22.312 175.875,24.181 170.318,27.072 165.894 C 27.627 165.045,28.081 164.228,28.081 164.079 C 28.081 163.930,28.433 163.483,28.863 163.084 C 30.826 161.268,30.993 158.738,29.285 156.684 C 29.012 156.355,28.539 155.683,28.234 155.190 C 27.266 153.627,22.340 148.795,20.317 147.426 C 17.954 145.826,14.168 144.287,12.596 144.287 C 12.236 144.287,11.708 144.169,11.422 144.024 C 8.952 142.773,2.944 142.289,1.598 143.232 M272.056 144.734 C 271.447 145.309,270.948 145.874,270.948 145.990 C 270.948 146.106,271.486 145.675,272.143 145.034 C 273.259 143.945,273.469 143.689,273.251 143.689 C 273.203 143.689,272.666 144.160,272.056 144.734 M267.567 149.134 C 266.119 150.608,264.983 151.864,265.044 151.924 C 265.104 151.985,266.421 150.762,267.971 149.206 C 269.520 147.651,270.656 146.395,270.494 146.416 C 270.333 146.438,269.016 147.661,267.567 149.134 M184.931 152.185 C 184.280 152.878,184.277 152.905,184.859 152.752 C 185.195 152.664,185.550 152.385,185.647 152.131 C 185.933 151.386,185.663 151.406,184.931 152.185 M138.760 156.236 C 139.569 157.058,140.299 157.730,140.381 157.730 C 140.463 157.730,139.868 157.058,139.059 156.236 C 138.250 155.414,137.521 154.742,137.438 154.742 C 137.356 154.742,137.951 155.414,138.760 156.236 M330.396 202.482 C 330.396 202.666,330.665 202.961,330.993 203.137 C 331.322 203.313,331.591 203.653,331.591 203.894 C 331.591 204.135,331.730 204.332,331.900 204.332 C 332.103 204.332,332.112 204.150,331.928 203.805 C 331.529 203.060,330.396 202.082,330.396 202.482 M30.620 219.866 C 30.518 220.030,29.846 220.164,29.126 220.164 C 28.406 220.164,27.734 220.299,27.633 220.463 C 27.531 220.627,27.118 220.762,26.715 220.762 C 26.311 220.762,25.748 220.886,25.463 221.039 C 25.177 221.191,24.205 221.540,23.301 221.813 C 22.397 222.086,21.456 222.483,21.210 222.696 C 20.963 222.908,20.199 223.365,19.512 223.710 C 17.518 224.712,16.875 226.149,17.594 227.992 C 17.741 228.369,18.038 229.283,18.254 230.022 C 18.959 232.434,21.167 236.699,22.704 238.616 C 24.923 241.385,28.216 244.482,29.906 245.390 C 31.311 246.145,36.349 248.627,36.893 248.833 C 38.431 249.414,39.691 249.739,40.407 249.739 C 40.837 249.739,41.273 249.873,41.374 250.037 C 41.476 250.202,42.331 250.336,43.274 250.336 C 44.217 250.336,45.132 250.479,45.306 250.654 C 45.975 251.322,55.069 250.599,56.581 249.757 C 58.092 248.916,57.989 248.238,55.743 244.212 C 52.979 239.259,52.480 237.948,51.113 232.035 C 50.932 231.252,50.784 229.074,50.784 227.194 C 50.784 225.315,50.643 223.467,50.470 223.088 C 50.099 222.274,46.467 220.762,44.881 220.762 C 44.532 220.762,44.164 220.627,44.063 220.463 C 43.961 220.299,43.155 220.164,42.270 220.164 C 41.386 220.164,40.580 220.030,40.478 219.866 C 40.367 219.687,38.390 219.567,35.549 219.567 C 32.708 219.567,30.730 219.687,30.620 219.866 M359.223 219.866 C 359.122 220.030,358.382 220.164,357.580 220.164 C 356.778 220.164,356.048 220.285,355.957 220.431 C 355.866 220.578,355.287 220.762,354.670 220.840 C 349.875 221.446,348.917 222.372,348.917 226.402 C 348.917 233.212,346.981 239.560,342.759 246.602 C 341.409 248.852,342.472 250.271,345.539 250.314 C 346.392 250.326,347.173 250.471,347.274 250.635 C 347.381 250.808,349.014 250.934,351.158 250.934 C 353.301 250.934,354.934 250.808,355.041 250.635 C 355.143 250.471,356.084 250.336,357.132 250.336 C 358.181 250.336,359.122 250.202,359.223 250.037 C 359.325 249.873,359.863 249.739,360.418 249.739 C 360.974 249.739,361.512 249.604,361.613 249.440 C 361.715 249.276,362.053 249.141,362.364 249.141 C 362.676 249.141,363.615 248.738,364.451 248.245 C 365.287 247.752,366.186 247.349,366.450 247.349 C 366.713 247.349,367.682 246.862,368.602 246.268 C 374.578 242.411,377.416 239.355,379.948 234.055 C 382.424 228.872,382.906 225.987,381.512 224.697 C 379.780 223.094,378.328 222.274,376.102 221.641 C 375.362 221.431,374.630 221.147,374.473 221.010 C 374.317 220.874,373.754 220.762,373.222 220.762 C 372.689 220.762,372.170 220.627,372.069 220.463 C 371.967 220.299,371.362 220.164,370.724 220.164 C 370.087 220.164,369.482 220.030,369.380 219.866 C 369.269 219.686,367.242 219.567,364.302 219.567 C 361.361 219.567,359.334 219.686,359.223 219.866 M114.264 234.802 C 114.906 235.459,115.498 235.997,115.581 235.997 C 115.663 235.997,115.205 235.459,114.563 234.802 C 113.921 234.145,113.329 233.607,113.247 233.607 C 113.165 233.607,113.623 234.145,114.264 234.802 M86.333 270.566 C 85.922 270.640,85.459 270.823,85.302 270.974 C 85.146 271.124,84.583 271.247,84.050 271.247 C 83.518 271.247,82.999 271.382,82.898 271.546 C 82.796 271.710,82.393 271.845,82.001 271.845 C 81.610 271.845,81.207 271.979,81.105 272.143 C 81.004 272.308,80.661 272.442,80.343 272.442 C 79.598 272.442,75.609 274.184,74.832 274.849 C 74.503 275.131,73.965 275.442,73.635 275.541 C 72.888 275.767,67.473 281.531,66.816 282.801 C 66.550 283.316,66.154 283.918,65.937 284.139 C 64.981 285.111,63.928 287.822,63.928 289.315 C 63.928 292.226,70.184 296.853,76.035 298.270 C 79.044 298.999,95.176 298.852,96.789 298.081 C 97.364 297.806,98.842 297.152,100.075 296.628 C 107.588 293.433,111.402 288.811,107.884 287.166 C 107.286 286.886,106.662 286.493,106.497 286.293 C 106.333 286.093,105.636 285.641,104.949 285.290 C 104.262 284.938,103.533 284.450,103.329 284.204 C 103.125 283.958,102.255 283.290,101.396 282.720 C 99.980 281.780,95.522 277.234,94.403 275.590 C 94.154 275.224,93.451 274.177,92.840 273.264 C 90.955 270.447,89.760 269.952,86.333 270.566 M308.979 270.544 C 308.547 270.638,307.906 271.419,307.099 272.834 C 305.220 276.131,304.407 277.143,301.175 280.209 C 298.031 283.193,296.581 284.391,296.116 284.391 C 295.962 284.391,295.592 284.660,295.295 284.989 C 294.998 285.317,294.590 285.586,294.389 285.586 C 294.188 285.586,293.858 285.786,293.656 286.030 C 293.453 286.274,292.684 286.775,291.945 287.144 C 290.544 287.844,289.768 288.675,289.768 289.478 C 289.768 290.308,293.838 293.951,294.765 293.951 C 294.934 293.951,295.224 294.133,295.409 294.357 C 295.773 294.795,300.035 296.958,302.465 297.938 C 303.824 298.486,304.788 298.551,313.221 298.657 L 322.485 298.774 325.340 297.860 C 327.074 297.304,328.852 296.485,329.865 295.776 C 330.783 295.133,331.799 294.522,332.122 294.420 C 332.446 294.317,333.467 293.440,334.391 292.471 C 336.493 290.268,336.549 289.570,334.901 286.086 C 332.268 280.517,327.293 275.753,321.583 273.335 C 320.269 272.778,319.066 272.215,318.910 272.083 C 318.754 271.952,318.325 271.845,317.956 271.845 C 317.588 271.845,317.204 271.710,317.102 271.546 C 317.001 271.382,316.482 271.247,315.950 271.247 C 315.417 271.247,314.854 271.123,314.698 270.971 C 314.374 270.657,309.969 270.327,308.979 270.544 " stroke="none" fill="#04c3cb" fill-rule="evenodd"></path></g></svg>