<svg id="svg" version="1.1" xmlns="http://www.w3.org/2000/svg" xmlns:xlink="http://www.w3.org/1999/xlink" width="400" height="460.75949367088606" viewBox="0, 0, 400,460.75949367088606"><g id="svgg"><path id="path0" d="M239.600 4.225 C 239.600 4.717,239.158 4.887,238.170 4.774 C 238.043 4.759,237.638 5.079,237.270 5.485 C 236.901 5.891,235.834 6.818,234.898 7.546 C 233.962 8.275,233.291 9.023,233.407 9.211 C 233.522 9.398,233.372 9.697,233.073 9.875 C 232.405 10.274,231.600 12.535,231.600 14.014 C 231.600 14.616,231.331 15.624,231.002 16.254 C 230.674 16.884,230.404 17.949,230.402 18.620 C 230.401 19.291,230.188 20.052,229.928 20.312 C 229.669 20.571,229.408 21.606,229.349 22.611 C 229.289 23.617,228.888 25.015,228.456 25.720 C 228.024 26.424,227.540 27.881,227.381 28.959 C 227.222 30.036,226.847 31.386,226.548 31.959 C 226.249 32.531,226.004 33.495,226.002 34.100 C 226.001 34.705,225.850 35.200,225.667 35.200 C 225.483 35.200,225.324 35.425,225.312 35.700 C 225.175 38.911,224.229 45.195,223.778 45.886 C 223.460 46.373,223.200 47.668,223.200 48.762 C 223.200 49.857,223.046 50.848,222.857 50.965 C 222.669 51.081,222.403 52.127,222.267 53.288 C 221.936 56.110,221.614 57.315,220.771 58.895 C 220.567 59.277,220.400 59.952,220.400 60.395 C 220.400 60.838,220.231 61.200,220.025 61.200 C 219.819 61.200,219.634 61.515,219.615 61.900 C 219.500 64.220,219.078 66.800,218.814 66.800 C 218.643 66.800,218.515 67.115,218.528 67.500 C 218.585 69.128,217.879 73.600,217.566 73.600 C 217.378 73.600,217.329 73.870,217.455 74.200 C 217.582 74.530,217.499 74.800,217.272 74.800 C 217.044 74.800,216.734 75.792,216.582 77.005 C 216.430 78.218,216.145 79.311,215.947 79.433 C 215.749 79.555,215.695 79.831,215.828 80.045 C 215.960 80.260,215.895 80.652,215.682 80.918 C 215.469 81.183,215.216 82.539,215.120 83.932 C 215.009 85.536,214.735 86.593,214.373 86.816 C 213.909 87.103,213.802 88.684,213.801 95.265 L 213.800 103.360 214.800 103.607 C 216.860 104.116,218.571 102.175,219.404 98.384 C 219.547 97.733,219.815 97.200,220.001 97.200 C 220.186 97.200,220.555 96.541,220.821 95.735 C 221.087 94.930,221.801 93.786,222.408 93.193 C 223.091 92.524,223.619 91.474,223.795 90.429 C 223.952 89.503,224.332 88.648,224.640 88.529 C 224.982 88.398,225.200 87.731,225.200 86.813 C 225.200 85.697,225.445 85.128,226.157 84.594 C 226.683 84.199,227.352 83.138,227.644 82.238 C 227.937 81.337,228.406 80.362,228.688 80.071 C 228.970 79.781,229.200 79.232,229.200 78.851 C 229.200 78.471,229.369 77.989,229.575 77.780 C 229.908 77.443,230.273 75.931,230.367 74.500 C 230.385 74.225,230.647 74.000,230.948 74.000 C 231.305 74.000,231.590 73.299,231.762 72.000 C 231.908 70.900,232.164 70.000,232.331 70.000 C 232.498 70.000,232.853 69.181,233.121 68.179 C 233.389 67.177,233.772 66.459,233.972 66.582 C 234.171 66.706,234.463 66.223,234.620 65.509 C 234.777 64.796,235.131 63.849,235.408 63.406 C 235.684 62.963,236.033 61.899,236.184 61.043 C 236.335 60.186,236.715 59.228,237.029 58.914 C 237.343 58.600,237.600 58.015,237.600 57.614 C 237.600 57.213,237.870 56.782,238.200 56.655 C 238.530 56.529,238.800 55.991,238.800 55.462 C 238.800 54.932,239.049 54.292,239.353 54.039 C 239.663 53.782,239.980 52.553,240.075 51.240 C 240.175 49.852,240.497 48.645,240.867 48.276 C 241.210 47.933,241.609 46.753,241.755 45.652 C 241.901 44.552,242.285 43.145,242.608 42.526 C 242.931 41.907,243.196 41.085,243.198 40.700 C 243.199 40.315,243.400 40.000,243.645 40.000 C 243.933 40.000,244.000 39.525,243.835 38.646 C 243.642 37.617,243.733 37.235,244.216 37.049 C 244.565 36.915,244.742 36.629,244.609 36.414 C 244.476 36.199,244.624 35.613,244.938 35.111 C 245.253 34.610,245.629 33.525,245.773 32.700 C 245.918 31.875,246.208 31.200,246.418 31.200 C 246.628 31.200,246.800 30.840,246.800 30.400 C 246.800 29.960,246.607 29.600,246.371 29.600 C 246.136 29.600,246.226 29.317,246.571 28.971 C 246.917 28.626,247.200 28.006,247.200 27.595 C 247.200 27.184,247.380 26.736,247.600 26.600 C 248.279 26.180,248.064 23.540,247.300 22.919 C 246.766 22.485,246.724 22.299,247.124 22.134 C 248.762 21.458,249.521 20.144,249.805 17.493 C 249.963 16.012,250.252 14.800,250.447 14.800 C 250.990 14.800,250.865 13.297,250.300 13.033 C 249.900 12.847,249.900 12.753,250.300 12.567 C 251.366 12.069,250.475 9.600,249.229 9.600 C 248.993 9.600,248.800 9.054,248.800 8.387 C 248.800 6.373,246.523 4.419,244.229 4.465 C 243.226 4.485,242.178 4.330,241.902 4.121 C 241.100 3.514,239.600 3.582,239.600 4.225 M168.800 155.235 C 168.800 155.436,168.362 155.600,167.827 155.600 C 167.205 155.600,166.762 155.889,166.600 156.400 C 166.460 156.840,166.034 157.200,165.653 157.200 C 165.272 157.200,164.744 157.416,164.480 157.680 C 164.216 157.944,164.000 158.006,164.000 157.819 C 164.000 157.631,163.654 157.877,163.230 158.365 C 162.807 158.853,162.349 159.231,162.212 159.204 C 161.929 159.149,159.261 161.255,157.530 162.900 C 156.893 163.505,156.199 164.000,155.986 164.000 C 155.774 164.000,155.600 164.180,155.600 164.400 C 155.600 164.620,155.442 164.755,155.249 164.700 C 155.057 164.645,154.377 165.060,153.740 165.622 C 153.102 166.185,152.270 166.764,151.890 166.910 C 151.511 167.056,151.200 167.361,151.200 167.587 C 151.200 167.814,151.007 168.000,150.771 168.000 C 150.536 168.000,150.118 168.225,149.842 168.500 C 149.567 168.775,148.658 169.540,147.822 170.200 C 146.987 170.860,145.740 171.892,145.052 172.494 C 144.363 173.095,143.584 173.590,143.320 173.594 C 141.984 173.611,140.750 176.253,141.282 177.958 C 141.564 178.861,141.993 179.600,142.236 179.600 C 142.479 179.600,143.110 179.979,143.639 180.442 C 144.907 181.554,147.872 183.600,148.215 183.600 C 148.363 183.600,148.839 184.050,149.271 184.600 C 149.704 185.150,150.386 185.600,150.786 185.600 C 151.187 185.600,151.615 185.862,151.738 186.183 C 151.930 186.682,153.113 187.587,155.944 189.400 C 156.288 189.620,157.085 190.295,157.715 190.900 C 158.346 191.505,159.291 192.108,159.817 192.240 C 160.342 192.372,160.870 192.789,160.990 193.168 C 161.110 193.546,161.836 194.155,162.604 194.521 C 163.372 194.888,164.000 195.338,164.000 195.522 C 164.000 197.310,171.155 198.900,172.408 197.390 C 172.686 197.055,172.990 196.856,173.082 196.949 C 173.175 197.042,173.921 196.440,174.741 195.613 C 175.560 194.785,176.629 193.981,177.115 193.827 C 177.602 193.672,178.000 193.284,178.000 192.963 C 178.000 192.642,178.498 192.280,179.106 192.159 C 179.776 192.025,180.567 191.397,181.110 190.569 C 181.604 189.816,182.321 189.197,182.704 189.193 C 183.087 189.189,183.831 188.732,184.358 188.176 C 184.886 187.620,186.101 186.603,187.058 185.915 C 188.016 185.227,188.800 184.423,188.800 184.128 C 188.800 183.833,189.160 183.284,189.600 182.907 C 190.040 182.530,190.400 181.902,190.400 181.511 C 190.400 181.120,190.649 180.800,190.953 180.800 C 191.528 180.800,191.985 179.630,191.995 178.133 C 191.998 177.657,192.187 177.204,192.415 177.128 C 192.644 177.052,192.938 175.714,193.068 174.155 C 193.344 170.864,192.905 165.888,192.368 166.220 C 192.165 166.345,192.000 166.087,192.000 165.647 C 192.000 165.207,191.817 164.734,191.593 164.596 C 191.370 164.458,191.279 164.196,191.391 164.014 C 191.504 163.833,191.326 163.581,190.998 163.454 C 190.669 163.328,190.400 162.976,190.400 162.671 C 190.400 162.366,189.995 161.659,189.500 161.100 C 189.005 160.541,188.175 159.524,187.655 158.842 C 187.135 158.159,186.365 157.600,185.942 157.600 C 185.520 157.600,185.072 157.331,184.946 157.002 C 184.819 156.674,184.574 156.493,184.400 156.600 C 184.226 156.707,183.981 156.526,183.854 156.198 C 183.728 155.869,183.259 155.600,182.813 155.600 C 182.366 155.600,182.000 155.413,182.000 155.185 C 182.000 154.912,179.730 154.786,175.400 154.820 C 171.727 154.848,168.800 155.032,168.800 155.235 M218.636 185.076 C 217.996 185.180,217.081 185.521,216.604 185.834 C 216.127 186.147,215.616 186.282,215.468 186.135 C 215.321 185.987,215.200 186.077,215.200 186.333 C 215.200 186.590,214.930 186.800,214.600 186.800 C 214.270 186.800,214.000 186.977,214.000 187.192 C 214.000 187.408,213.550 187.698,213.000 187.836 C 212.450 187.974,212.000 188.247,212.000 188.443 C 212.000 188.640,211.644 188.800,211.209 188.800 C 210.774 188.800,210.124 189.250,209.763 189.800 C 209.403 190.350,208.884 190.800,208.610 190.800 C 208.336 190.800,207.502 191.428,206.756 192.196 C 206.010 192.963,205.055 193.593,204.633 193.596 C 204.212 193.598,203.975 193.708,204.106 193.840 C 204.430 194.164,202.108 196.400,201.448 196.400 C 201.159 196.400,200.274 197.030,199.481 197.800 C 198.688 198.570,197.851 199.200,197.620 199.200 C 197.389 199.200,197.200 199.380,197.200 199.600 C 197.200 199.820,196.940 200.000,196.623 200.000 C 196.305 200.000,195.794 200.359,195.487 200.797 C 195.180 201.236,194.826 201.492,194.701 201.367 C 194.575 201.242,194.361 201.492,194.225 201.922 C 194.076 202.389,193.472 202.806,192.724 202.955 C 192.036 203.093,191.580 203.313,191.712 203.445 C 191.992 203.725,190.212 205.600,189.666 205.600 C 188.547 205.600,186.114 208.734,186.156 210.122 C 186.199 211.524,189.403 215.600,190.463 215.600 C 190.674 215.600,191.512 216.239,192.324 217.021 C 195.714 220.285,198.319 222.400,198.947 222.400 C 199.316 222.400,199.822 222.850,200.073 223.400 C 200.323 223.950,200.857 224.400,201.258 224.400 C 201.957 224.400,204.266 226.530,206.533 229.266 C 207.120 229.975,207.600 230.420,207.600 230.257 C 207.600 229.935,209.368 231.748,210.190 232.912 C 211.435 234.677,217.182 233.948,217.817 231.945 C 217.956 231.510,218.558 231.068,219.186 230.943 C 219.810 230.818,220.539 230.287,220.828 229.748 C 221.113 229.215,221.768 228.673,222.284 228.543 C 222.799 228.414,223.403 227.969,223.625 227.554 C 223.847 227.139,224.292 226.800,224.614 226.800 C 224.936 226.800,225.200 226.550,225.200 226.243 C 225.200 225.937,225.650 225.574,226.200 225.436 C 226.750 225.298,227.200 225.004,227.200 224.782 C 227.200 224.561,227.650 224.209,228.200 224.000 C 228.750 223.791,229.200 223.447,229.200 223.237 C 229.200 223.026,229.592 222.730,230.071 222.578 C 230.550 222.426,231.403 221.873,231.967 221.351 C 232.530 220.828,233.208 220.400,233.473 220.400 C 233.738 220.400,234.190 220.085,234.477 219.700 C 234.765 219.315,235.451 218.768,236.003 218.484 C 236.555 218.201,237.455 217.301,238.003 216.484 C 238.551 215.668,239.269 214.790,239.599 214.533 C 239.929 214.276,240.075 213.941,239.923 213.790 C 239.771 213.638,240.071 213.058,240.588 212.500 C 241.213 211.826,241.683 210.600,241.989 208.843 C 242.843 203.947,242.879 202.851,242.269 200.321 C 241.934 198.934,241.542 197.214,241.398 196.499 C 241.254 195.783,240.610 194.672,239.968 194.029 C 239.326 193.387,238.800 192.578,238.800 192.231 C 238.800 191.884,238.590 191.600,238.333 191.600 C 238.077 191.600,237.967 191.499,238.091 191.376 C 238.439 191.027,234.598 187.600,233.859 187.600 C 233.496 187.600,233.200 187.420,233.200 187.200 C 233.200 186.980,232.930 186.800,232.600 186.800 C 232.270 186.800,232.000 186.609,232.000 186.376 C 232.000 186.143,231.835 186.055,231.632 186.180 C 231.430 186.305,231.025 186.172,230.732 185.885 C 230.440 185.597,229.840 185.319,229.400 185.266 C 227.523 185.041,219.703 184.903,218.636 185.076 M79.012 191.874 C 77.130 191.970,75.699 192.234,75.518 192.518 C 75.298 192.865,75.207 192.832,75.193 192.400 C 75.177 191.887,75.104 191.893,74.687 192.440 C 74.393 192.826,73.351 193.161,72.057 193.285 C 70.879 193.398,69.799 193.668,69.657 193.884 C 69.516 194.100,68.905 194.398,68.300 194.546 C 67.695 194.694,67.200 195.073,67.200 195.388 C 67.200 195.703,66.885 196.144,66.500 196.368 C 66.115 196.592,65.926 196.781,66.081 196.788 C 66.235 196.795,65.920 197.276,65.381 197.858 C 64.841 198.441,64.400 199.154,64.400 199.444 C 64.400 199.734,64.047 200.161,63.615 200.392 C 63.156 200.638,62.924 201.058,63.056 201.403 C 63.184 201.735,63.006 202.099,62.651 202.236 C 61.909 202.520,60.715 204.739,61.030 205.249 C 61.149 205.442,60.986 205.600,60.666 205.600 C 60.112 205.600,59.403 206.667,59.536 207.300 C 59.571 207.465,59.420 207.600,59.200 207.600 C 58.980 207.600,58.800 207.872,58.800 208.204 C 58.800 208.536,58.440 209.116,58.000 209.493 C 57.560 209.870,57.200 210.498,57.200 210.890 C 57.200 211.282,56.840 212.275,56.400 213.096 C 55.960 213.916,55.600 214.773,55.600 214.999 C 55.600 215.225,55.143 215.754,54.583 216.174 C 54.024 216.593,53.657 217.170,53.766 217.456 C 53.875 217.741,53.813 218.068,53.628 218.183 C 53.442 218.297,53.170 219.033,53.023 219.817 C 52.876 220.601,52.496 221.342,52.178 221.464 C 51.860 221.586,51.600 222.032,51.600 222.455 C 51.600 222.879,51.343 223.324,51.030 223.444 C 50.716 223.564,50.340 224.369,50.195 225.231 C 50.049 226.094,49.766 226.800,49.565 226.800 C 49.364 226.800,49.200 227.329,49.200 227.976 C 49.200 228.623,49.017 229.266,48.793 229.404 C 48.570 229.542,48.491 229.823,48.617 230.028 C 48.744 230.232,48.589 230.400,48.274 230.400 C 47.954 230.400,47.592 230.942,47.455 231.627 C 47.287 232.463,47.049 232.761,46.705 232.562 C 46.427 232.403,46.333 232.419,46.497 232.599 C 46.660 232.779,46.593 233.168,46.348 233.463 C 46.103 233.758,46.022 234.000,46.168 234.000 C 46.314 234.000,45.996 234.765,45.461 235.700 C 44.926 236.635,44.265 238.120,43.992 239.000 C 43.719 239.880,43.341 240.797,43.151 241.037 C 42.962 241.277,42.921 241.588,43.061 241.727 C 43.200 241.867,43.019 242.095,42.657 242.233 C 42.296 242.372,42.000 242.839,42.000 243.271 C 42.000 243.704,41.755 244.302,41.455 244.602 C 41.156 244.901,40.794 245.878,40.651 246.773 C 40.468 247.915,40.193 248.400,39.729 248.400 C 39.365 248.400,39.179 248.513,39.317 248.651 C 39.455 248.789,39.298 249.424,38.968 250.062 C 38.637 250.701,38.475 251.398,38.607 251.612 C 38.739 251.825,38.657 252.000,38.424 252.000 C 38.191 252.000,38.000 252.294,38.000 252.653 C 38.000 253.012,37.627 253.909,37.172 254.645 C 36.716 255.382,36.445 256.150,36.570 256.351 C 36.694 256.552,36.548 256.811,36.245 256.927 C 35.532 257.201,35.195 259.175,34.937 264.600 C 34.821 267.020,34.554 269.210,34.343 269.466 C 34.131 269.723,33.890 270.844,33.807 271.959 C 33.724 273.073,33.527 274.195,33.368 274.452 C 33.209 274.709,33.023 275.477,32.955 276.160 C 32.846 277.251,32.379 281.261,31.784 286.200 C 31.679 287.080,31.409 288.880,31.187 290.200 C 30.964 291.520,30.747 292.902,30.705 293.271 C 30.663 293.639,30.508 293.867,30.361 293.776 C 30.214 293.685,30.093 294.103,30.091 294.705 C 30.086 296.698,29.542 302.190,29.290 302.800 C 29.153 303.130,28.996 303.940,28.942 304.600 C 28.561 309.190,28.248 311.461,27.941 311.849 C 27.746 312.096,27.710 312.621,27.861 313.015 C 28.030 313.454,27.980 313.635,27.732 313.482 C 27.489 313.331,27.299 313.901,27.254 314.916 C 27.213 315.842,26.994 317.680,26.767 319.000 C 26.323 321.584,26.201 322.498,25.804 326.200 C 25.553 328.546,24.309 333.384,23.536 335.022 C 23.323 335.474,23.190 336.014,23.241 336.222 C 23.448 337.060,22.679 339.866,21.963 340.884 C 21.543 341.480,21.200 342.324,21.200 342.760 C 21.200 343.196,21.015 343.667,20.789 343.807 C 20.564 343.946,20.420 344.272,20.470 344.530 C 20.632 345.362,19.495 349.363,18.938 349.919 C 18.642 350.215,18.400 350.894,18.400 351.429 C 18.400 351.963,18.251 352.400,18.069 352.400 C 17.699 352.400,16.800 355.942,16.800 357.397 C 16.800 357.912,16.663 358.393,16.496 358.467 C 16.030 358.671,13.200 364.531,13.200 365.291 C 13.200 365.659,12.967 366.104,12.681 366.280 C 12.018 366.689,10.400 369.472,10.400 370.203 C 10.400 370.509,10.085 370.944,9.700 371.168 C 9.315 371.392,9.169 371.581,9.375 371.588 C 9.581 371.595,9.283 372.095,8.714 372.700 C 8.144 373.305,7.605 374.160,7.515 374.600 C 7.426 375.040,7.149 375.359,6.901 375.308 C 6.652 375.258,6.329 375.594,6.182 376.056 C 6.036 376.518,5.305 377.489,4.558 378.215 C 3.811 378.940,3.200 379.716,3.200 379.940 C 3.200 380.163,2.858 380.455,2.440 380.587 C 2.022 380.720,1.566 381.280,1.428 381.831 C 1.290 382.382,1.021 382.736,0.830 382.619 C 0.313 382.299,-0.000 383.428,-0.000 385.613 C 0.000 386.874,0.199 387.673,0.566 387.880 C 0.877 388.056,1.946 388.965,2.942 389.900 C 3.938 390.835,4.868 391.600,5.009 391.600 C 5.150 391.600,6.034 392.230,6.974 393.000 C 7.914 393.770,8.979 394.400,9.341 394.400 C 9.704 394.400,10.000 394.650,10.000 394.957 C 10.000 395.263,10.419 395.618,10.931 395.747 C 11.835 395.974,14.353 398.000,13.732 398.000 C 13.364 398.000,14.862 399.088,15.308 399.144 C 15.477 399.166,16.006 399.547,16.483 399.992 C 16.960 400.436,17.485 400.800,17.648 400.800 C 17.812 400.800,18.059 401.156,18.197 401.592 C 18.336 402.027,18.573 402.344,18.724 402.295 C 19.229 402.133,20.800 403.466,20.497 403.800 C 20.334 403.981,20.418 404.003,20.685 403.850 C 20.952 403.696,21.498 403.892,21.898 404.285 C 22.297 404.678,23.159 405.270,23.812 405.599 C 24.465 405.929,25.144 406.424,25.320 406.699 C 25.496 406.975,25.901 407.200,26.220 407.200 C 26.539 407.200,26.800 407.335,26.801 407.500 C 26.801 407.665,27.656 408.329,28.701 408.976 C 29.745 409.622,31.242 410.702,32.027 411.376 C 32.812 412.049,33.982 413.004,34.627 413.498 C 37.372 415.600,38.696 416.745,41.239 419.214 C 42.719 420.652,44.441 422.089,45.065 422.408 C 46.170 422.973,46.615 423.393,48.900 426.031 C 49.505 426.729,50.000 427.172,50.000 427.015 C 50.000 426.858,50.585 427.285,51.300 427.964 C 52.015 428.643,53.974 430.504,55.654 432.099 C 57.333 433.695,59.113 435.270,59.608 435.600 C 60.104 435.930,61.376 437.055,62.436 438.100 C 63.495 439.145,64.525 440.000,64.725 440.000 C 64.924 440.000,65.698 440.719,66.444 441.598 C 67.190 442.477,68.019 443.197,68.286 443.198 C 68.553 443.199,68.965 443.560,69.200 444.000 C 69.435 444.440,69.922 444.800,70.281 444.800 C 70.640 444.800,70.822 444.911,70.686 445.048 C 70.550 445.184,71.195 445.909,72.119 446.659 C 73.044 447.409,74.196 448.356,74.681 448.764 C 75.165 449.172,75.668 449.399,75.798 449.269 C 75.927 449.139,76.521 449.507,77.117 450.087 C 79.455 452.361,80.452 453.200,80.818 453.200 C 81.028 453.200,81.200 453.362,81.200 453.561 C 81.200 453.759,81.740 454.110,82.400 454.340 C 83.060 454.570,83.600 454.928,83.600 455.136 C 83.600 455.343,84.030 455.621,84.555 455.753 C 85.496 455.989,87.296 457.340,89.014 459.101 C 90.547 460.671,97.155 460.745,96.188 459.180 C 96.058 458.971,96.143 458.800,96.376 458.800 C 96.609 458.800,97.517 458.125,98.395 457.300 C 100.745 455.091,101.199 454.734,101.212 455.084 C 101.219 455.258,101.408 455.085,101.632 454.700 C 101.856 454.315,102.282 454.000,102.577 454.000 C 102.873 454.000,103.218 453.730,103.345 453.400 C 103.471 453.070,103.851 452.800,104.187 452.800 C 104.524 452.800,104.800 452.538,104.800 452.218 C 104.800 451.870,105.361 451.531,106.196 451.374 C 106.965 451.230,107.505 450.970,107.397 450.795 C 107.289 450.621,107.741 450.290,108.400 450.060 C 109.060 449.830,109.600 449.433,109.600 449.178 C 109.600 448.923,109.865 448.816,110.189 448.940 C 110.513 449.065,111.011 448.859,111.296 448.483 C 111.581 448.107,112.350 447.517,113.007 447.171 C 114.864 446.192,116.181 445.421,116.400 445.183 C 116.510 445.064,117.365 444.720,118.300 444.419 C 119.235 444.118,120.000 443.710,120.000 443.512 C 120.000 443.315,120.180 443.264,120.400 443.400 C 120.620 443.536,120.800 443.457,120.800 443.224 C 120.800 442.991,121.070 442.800,121.400 442.800 C 121.730 442.800,122.000 442.654,122.000 442.476 C 122.000 442.297,122.945 441.910,124.100 441.615 C 126.312 441.049,127.516 440.499,128.192 439.745 C 128.416 439.494,129.320 439.163,130.200 439.009 C 131.080 438.855,131.980 438.596,132.200 438.434 C 132.420 438.272,133.365 437.921,134.300 437.654 C 135.235 437.387,136.000 437.018,136.000 436.836 C 136.000 436.653,137.080 436.381,138.400 436.232 C 139.720 436.082,140.800 435.810,140.800 435.626 C 140.800 435.443,141.775 435.170,142.967 435.021 C 144.169 434.871,145.223 434.517,145.335 434.225 C 145.456 433.910,146.585 433.588,148.164 433.419 C 149.609 433.264,150.881 432.992,150.991 432.815 C 151.100 432.637,152.002 432.371,152.995 432.222 C 153.988 432.073,154.800 431.812,154.800 431.642 C 154.800 431.472,155.025 431.320,155.300 431.303 C 156.480 431.231,160.000 430.184,160.000 429.905 C 160.000 429.737,160.500 429.600,161.111 429.600 C 161.722 429.600,162.632 429.313,163.133 428.962 C 163.684 428.576,164.422 428.419,165.001 428.564 C 165.573 428.708,166.087 428.602,166.279 428.302 C 166.704 427.636,168.270 426.910,170.000 426.577 C 170.770 426.429,171.625 426.126,171.900 425.905 C 172.175 425.683,172.400 425.627,172.400 425.780 C 172.400 425.932,172.683 425.774,173.029 425.429 C 173.374 425.083,173.914 424.800,174.229 424.800 C 174.543 424.800,174.800 424.649,174.800 424.464 C 174.800 424.279,175.774 423.909,176.965 423.643 C 178.203 423.366,179.232 422.892,179.369 422.538 C 179.503 422.188,179.867 422.017,180.203 422.146 C 180.553 422.280,180.800 422.148,180.800 421.827 C 180.800 421.501,181.608 421.086,182.800 420.800 C 183.900 420.536,184.800 420.158,184.800 419.960 C 184.800 419.762,185.076 419.600,185.413 419.600 C 185.749 419.600,186.127 419.335,186.251 419.011 C 186.376 418.687,187.090 418.307,187.839 418.166 C 188.587 418.026,189.200 417.751,189.200 417.555 C 189.200 417.360,189.560 417.200,190.000 417.200 C 190.440 417.200,191.155 416.845,191.590 416.410 C 192.024 415.976,192.834 415.506,193.390 415.367 C 193.945 415.227,194.400 414.953,194.400 414.757 C 194.400 414.560,194.657 414.400,194.971 414.400 C 195.286 414.400,195.781 414.162,196.071 413.871 C 196.362 413.581,196.751 413.329,196.936 413.313 C 197.120 413.296,197.685 412.923,198.190 412.484 C 198.695 412.044,199.783 411.441,200.608 411.143 C 201.433 410.844,202.279 410.225,202.488 409.767 C 202.736 409.222,203.547 408.760,204.834 408.430 C 205.916 408.153,206.700 407.762,206.577 407.563 C 206.454 407.363,206.531 407.200,206.748 407.200 C 206.965 407.200,207.390 406.953,207.691 406.652 C 207.992 406.350,208.787 405.821,209.456 405.475 C 210.125 405.129,211.106 404.388,211.636 403.830 C 212.166 403.271,212.832 402.811,213.116 402.807 C 213.727 402.799,216.062 401.216,216.520 400.500 C 216.696 400.225,217.106 400.000,217.432 400.000 C 217.758 400.000,218.129 399.730,218.255 399.400 C 218.382 399.070,218.736 398.800,219.043 398.800 C 219.349 398.800,219.600 398.620,219.600 398.400 C 219.600 398.180,219.858 398.000,220.173 398.000 C 220.488 398.000,220.856 397.653,220.991 397.228 C 221.127 396.798,221.753 396.342,222.400 396.200 C 223.040 396.059,223.669 395.614,223.797 395.209 C 223.925 394.805,224.841 394.093,225.832 393.627 C 226.822 393.162,227.734 392.515,227.859 392.190 C 227.984 391.866,228.244 391.600,228.438 391.600 C 228.632 391.600,229.176 391.285,229.648 390.900 C 233.088 388.090,234.262 387.132,234.683 386.791 C 234.949 386.576,235.354 386.400,235.583 386.400 C 235.812 386.400,236.000 386.130,236.000 385.800 C 236.000 385.470,236.145 385.200,236.323 385.200 C 236.500 385.200,237.243 384.705,237.974 384.100 C 238.704 383.495,239.324 383.090,239.352 383.200 C 239.437 383.539,242.000 380.707,242.000 380.274 C 242.000 380.050,242.105 379.972,242.234 380.101 C 242.363 380.230,243.967 378.820,245.798 376.967 C 247.629 375.115,249.250 373.600,249.399 373.600 C 249.774 373.600,254.000 369.375,254.000 369.000 C 254.000 368.832,255.260 367.445,256.800 365.918 C 258.340 364.390,259.704 362.726,259.830 362.221 C 259.957 361.716,260.497 361.069,261.030 360.784 C 261.564 360.498,262.000 359.943,262.000 359.551 C 262.000 359.158,262.450 358.386,263.000 357.836 C 263.550 357.286,264.000 356.652,264.000 356.426 C 264.000 355.818,261.876 355.372,261.687 355.939 C 261.602 356.195,261.357 356.297,261.145 356.166 C 260.932 356.034,260.434 356.300,260.038 356.756 C 259.643 357.212,259.215 357.481,259.087 357.354 C 258.960 357.226,258.620 357.500,258.331 357.961 C 258.043 358.422,257.491 358.800,257.104 358.800 C 256.717 358.800,256.400 358.980,256.400 359.200 C 256.400 359.420,256.162 359.600,255.872 359.600 C 255.581 359.600,254.842 360.230,254.228 361.000 C 253.614 361.770,252.870 362.400,252.575 362.400 C 252.280 362.400,251.445 363.000,250.719 363.733 C 249.994 364.466,249.085 365.180,248.700 365.320 C 248.315 365.460,248.000 365.761,248.000 365.987 C 248.000 366.214,247.764 366.400,247.475 366.400 C 247.187 366.400,246.564 366.760,246.092 367.200 C 245.620 367.640,245.136 368.000,245.018 368.000 C 244.899 368.000,243.925 368.630,242.853 369.400 C 241.781 370.170,240.746 370.805,240.552 370.811 C 240.359 370.818,239.124 371.538,237.809 372.411 C 236.493 373.285,234.929 374.000,234.332 374.000 C 233.735 374.000,233.136 374.180,233.000 374.400 C 232.646 374.974,230.501 374.895,230.286 374.300 C 230.141 373.900,229.935 373.900,229.258 374.300 C 228.286 374.874,220.000 375.009,220.000 374.452 C 220.000 374.260,218.575 373.979,216.833 373.827 C 214.767 373.647,213.595 373.365,213.461 373.015 C 213.348 372.721,212.522 372.356,211.626 372.204 C 210.730 372.053,210.089 371.780,210.202 371.597 C 210.315 371.414,209.865 371.146,209.203 371.001 C 208.542 370.855,208.000 370.571,208.000 370.368 C 208.000 370.166,207.865 370.031,207.700 370.070 C 206.994 370.234,204.488 368.776,203.283 367.500 C 202.920 367.115,202.392 366.800,202.111 366.800 C 201.830 366.800,201.600 366.530,201.600 366.200 C 201.600 365.870,201.336 365.600,201.014 365.600 C 200.692 365.600,200.228 365.226,199.983 364.768 C 199.303 363.497,198.291 362.420,197.965 362.621 C 197.805 362.721,196.818 361.496,195.773 359.901 C 194.727 358.305,193.743 356.910,193.586 356.800 C 193.429 356.690,193.174 356.015,193.018 355.300 C 192.863 354.585,192.560 354.000,192.345 354.000 C 192.129 354.000,192.056 353.832,192.183 353.628 C 192.309 353.423,192.230 353.142,192.007 353.004 C 191.783 352.866,191.600 352.303,191.600 351.753 C 191.600 351.188,191.426 350.860,191.200 351.000 C 190.980 351.136,190.800 351.171,190.800 351.078 C 190.800 350.985,190.628 350.005,190.419 348.899 C 190.209 347.794,189.995 346.160,189.942 345.269 C 189.889 344.377,189.701 343.738,189.523 343.847 C 189.345 343.957,189.200 342.057,189.200 339.624 C 189.200 337.191,189.354 335.200,189.542 335.200 C 189.730 335.200,189.991 333.924,190.122 332.366 C 190.252 330.807,190.533 329.322,190.746 329.066 C 190.958 328.809,191.169 328.420,191.214 328.200 C 191.259 327.980,191.454 327.383,191.648 326.874 C 192.219 325.371,192.057 323.533,191.300 322.938 C 190.508 322.317,187.412 320.802,186.922 320.796 C 186.196 320.788,182.808 318.925,183.060 318.673 C 183.210 318.523,183.121 318.400,182.863 318.400 C 182.312 318.400,178.658 315.925,177.178 314.550 C 176.616 314.027,175.955 313.600,175.710 313.600 C 175.464 313.600,175.151 313.086,175.013 312.457 C 174.875 311.829,174.323 311.080,173.787 310.793 C 173.252 310.507,172.696 309.896,172.552 309.436 C 172.408 308.976,171.957 308.174,171.550 307.653 C 171.144 307.132,170.909 306.547,171.029 306.353 C 171.149 306.159,170.962 306.000,170.614 306.000 C 170.229 306.000,169.885 305.526,169.738 304.792 C 169.605 304.127,169.348 303.491,169.166 303.379 C 168.984 303.266,168.948 302.881,169.085 302.522 C 169.253 302.085,169.181 301.965,168.868 302.158 C 168.567 302.344,168.376 302.117,168.332 301.524 C 168.294 301.016,168.243 300.306,168.219 299.946 C 168.194 299.586,167.910 298.974,167.587 298.585 C 166.965 297.835,166.908 297.572,166.555 293.800 C 166.431 292.480,166.165 291.229,165.965 291.020 C 165.473 290.507,165.500 288.800,166.000 288.800 C 166.220 288.800,166.400 287.930,166.400 286.867 C 166.400 285.803,166.520 284.814,166.666 284.667 C 166.813 284.521,166.959 283.636,166.991 282.700 C 167.028 281.621,167.223 281.037,167.524 281.100 C 167.786 281.155,167.963 281.065,167.917 280.900 C 167.726 280.210,168.473 277.002,168.883 276.749 C 169.797 276.184,169.755 272.289,168.823 271.221 C 167.980 270.254,167.755 270.155,165.400 269.710 C 164.740 269.585,163.840 269.261,163.400 268.989 C 162.960 268.717,162.084 268.375,161.453 268.228 C 160.822 268.081,160.416 267.851,160.550 267.716 C 160.685 267.582,160.391 267.247,159.898 266.973 C 157.373 265.572,155.368 264.625,155.100 264.708 C 154.935 264.758,154.800 264.654,154.800 264.476 C 154.800 264.299,154.517 263.804,154.170 263.376 C 153.824 262.949,153.655 262.825,153.794 263.100 C 153.933 263.375,153.934 263.600,153.795 263.600 C 153.656 263.600,153.304 263.375,153.012 263.100 C 152.720 262.825,151.806 262.060,150.982 261.400 C 150.158 260.740,148.834 259.595,148.042 258.854 C 144.781 255.812,140.828 255.999,140.872 259.195 C 140.884 260.072,141.044 260.696,141.227 260.583 C 141.410 260.470,141.682 261.058,141.832 261.889 C 141.982 262.720,142.240 263.580,142.406 263.800 C 142.572 264.020,142.839 264.830,143.000 265.600 C 143.161 266.370,143.474 267.225,143.695 267.500 C 143.917 267.775,143.964 268.000,143.800 268.000 C 143.636 268.000,143.681 268.225,143.901 268.500 C 144.396 269.122,144.997 272.629,144.857 274.083 C 144.800 274.679,144.971 275.849,145.238 276.683 C 145.808 278.468,146.297 284.347,146.412 290.800 C 146.471 294.161,146.573 294.969,146.790 293.800 C 146.984 292.755,147.088 294.073,147.091 297.600 C 147.093 300.570,146.976 302.370,146.832 301.600 C 146.682 300.802,146.435 303.815,146.258 308.600 C 146.087 313.220,145.779 317.060,145.574 317.133 C 145.368 317.207,145.200 317.781,145.200 318.410 C 145.200 319.038,145.020 319.664,144.800 319.800 C 144.580 319.936,144.400 320.836,144.400 321.800 C 144.400 322.764,144.243 323.650,144.052 323.768 C 143.719 323.974,143.380 325.196,142.933 327.800 C 142.820 328.460,142.564 329.060,142.364 329.133 C 142.164 329.207,142.000 329.420,142.000 329.607 C 142.000 329.795,141.791 330.455,141.535 331.074 C 141.280 331.693,141.100 332.335,141.135 332.500 C 141.171 332.665,141.020 332.800,140.800 332.800 C 140.580 332.800,140.400 333.185,140.400 333.656 C 140.400 334.460,138.892 337.961,138.357 338.400 C 138.223 338.510,137.871 339.275,137.576 340.100 C 137.281 340.925,136.895 341.600,136.720 341.600 C 136.544 341.600,136.400 341.951,136.400 342.380 C 136.400 342.809,136.085 343.344,135.700 343.568 C 135.315 343.792,135.157 343.981,135.349 343.988 C 135.541 343.995,135.474 344.270,135.200 344.600 C 134.926 344.930,134.845 345.200,135.021 345.200 C 135.196 345.200,134.985 345.605,134.551 346.100 C 132.945 347.932,132.533 348.588,133.200 348.247 C 133.733 347.975,133.733 348.000,133.200 348.478 C 132.870 348.774,132.375 349.417,132.100 349.908 C 131.825 350.399,131.375 351.205,131.100 351.700 C 130.355 353.040,127.980 356.096,127.031 356.935 C 126.574 357.339,126.470 357.529,126.800 357.358 C 127.333 357.081,127.333 357.133,126.800 357.823 C 125.684 359.267,124.064 360.800,123.653 360.800 C 123.429 360.800,122.981 361.178,122.657 361.639 C 120.708 364.423,114.032 364.186,111.698 361.249 C 109.555 358.553,108.870 352.673,110.508 351.035 C 110.888 350.654,111.200 350.080,111.200 349.759 C 111.200 349.438,111.470 349.071,111.800 348.945 C 112.130 348.818,112.400 348.482,112.400 348.199 C 112.400 347.915,113.024 347.135,113.786 346.466 C 114.549 345.796,115.287 344.794,115.426 344.239 C 115.565 343.683,115.977 343.131,116.340 343.012 C 116.703 342.893,117.462 341.851,118.028 340.698 C 118.593 339.544,119.230 338.633,119.444 338.672 C 119.659 338.712,119.860 338.395,119.892 337.968 C 119.925 337.541,120.232 336.911,120.575 336.567 C 120.919 336.224,121.200 335.506,121.200 334.971 C 121.200 334.358,121.430 334.000,121.824 334.000 C 122.167 334.000,122.356 333.852,122.244 333.672 C 122.133 333.491,122.382 332.784,122.797 332.101 C 123.213 331.417,123.673 330.215,123.821 329.429 C 123.968 328.643,124.210 328.000,124.357 328.000 C 124.505 328.000,124.871 327.145,125.171 326.100 C 125.471 325.055,125.856 324.018,126.027 323.796 C 126.199 323.574,126.466 322.269,126.621 320.896 C 126.776 319.523,127.023 318.400,127.169 318.400 C 127.315 318.400,127.681 317.275,127.982 315.900 C 128.283 314.525,128.725 313.272,128.964 313.115 C 129.652 312.664,129.567 281.124,128.876 280.291 C 128.587 279.944,128.394 279.421,128.446 279.130 C 128.539 278.605,127.893 275.929,127.207 274.000 C 127.011 273.450,126.756 272.115,126.639 271.033 C 126.522 269.951,126.240 268.880,126.013 268.653 C 125.786 268.426,125.600 267.657,125.600 266.944 C 125.600 266.231,125.403 265.525,125.162 265.377 C 124.922 265.228,124.805 264.686,124.903 264.173 C 125.009 263.620,124.861 263.156,124.541 263.033 C 124.243 262.918,123.999 262.324,123.998 261.713 C 123.996 261.101,123.743 260.117,123.435 259.527 C 123.127 258.937,122.748 257.857,122.593 257.127 C 122.438 256.397,122.040 255.492,121.708 255.116 C 121.377 254.740,120.985 253.842,120.837 253.121 C 120.371 250.841,116.344 250.463,115.204 252.592 C 114.916 253.132,114.529 253.479,114.344 253.366 C 114.160 253.252,114.116 253.436,114.246 253.776 C 114.385 254.139,114.220 254.494,113.844 254.639 C 113.492 254.773,113.313 255.059,113.446 255.274 C 113.578 255.488,113.127 256.211,112.443 256.879 C 111.759 257.548,111.200 258.414,111.200 258.805 C 111.200 259.195,110.953 259.609,110.651 259.725 C 110.348 259.841,109.981 260.578,109.833 261.363 C 109.686 262.148,109.229 262.970,108.818 263.191 C 108.406 263.411,107.760 264.403,107.380 265.395 C 107.001 266.388,106.553 267.200,106.385 267.200 C 106.216 267.200,105.890 267.740,105.660 268.400 C 105.430 269.060,105.132 269.600,104.997 269.600 C 104.863 269.600,104.881 269.392,105.038 269.138 C 105.215 268.852,105.148 268.785,104.862 268.962 C 104.608 269.119,104.400 269.588,104.400 270.004 C 104.400 270.420,104.161 270.904,103.870 271.080 C 103.578 271.256,103.220 271.726,103.073 272.125 C 102.918 272.546,102.610 272.730,102.341 272.564 C 102.085 272.406,101.982 272.448,102.112 272.657 C 102.593 273.436,99.478 276.219,98.678 275.725 C 98.457 275.588,98.392 275.664,98.534 275.893 C 98.675 276.122,98.388 276.417,97.896 276.549 C 95.920 277.079,92.191 276.661,92.625 275.959 C 92.744 275.767,92.562 275.716,92.221 275.847 C 91.879 275.978,91.600 275.906,91.600 275.686 C 91.600 275.466,91.183 275.182,90.673 275.054 C 90.164 274.926,89.489 274.322,89.174 273.711 C 88.859 273.100,88.440 272.483,88.243 272.341 C 87.194 271.582,87.743 263.147,88.800 263.800 C 88.984 263.914,89.254 263.465,89.399 262.803 C 89.545 262.142,89.810 261.600,89.988 261.600 C 90.167 261.600,90.416 261.191,90.541 260.692 C 90.666 260.193,91.143 259.383,91.600 258.892 C 92.057 258.401,92.306 258.000,92.154 258.000 C 92.001 258.000,92.153 257.685,92.491 257.300 C 92.829 256.915,93.229 256.195,93.380 255.700 C 93.530 255.205,93.822 254.800,94.027 254.800 C 94.232 254.800,94.400 254.575,94.400 254.300 C 94.401 254.025,94.851 253.277,95.400 252.638 C 95.950 251.999,96.400 251.234,96.400 250.938 C 96.400 250.642,96.580 250.400,96.800 250.400 C 97.020 250.400,97.200 250.175,97.200 249.900 C 97.201 249.625,97.651 248.877,98.200 248.238 C 98.750 247.599,99.200 246.834,99.200 246.538 C 99.200 246.242,99.368 246.000,99.573 246.000 C 99.926 246.000,100.431 244.888,100.650 243.630 C 100.705 243.316,101.031 242.902,101.375 242.710 C 101.719 242.518,102.000 242.028,102.000 241.623 C 102.000 241.217,102.270 240.782,102.600 240.655 C 102.930 240.529,103.200 240.158,103.200 239.832 C 103.200 239.506,103.425 239.096,103.700 238.920 C 103.975 238.744,104.554 237.906,104.986 237.058 C 105.905 235.253,108.992 232.000,109.785 232.000 C 110.087 232.000,110.402 231.794,110.486 231.541 C 110.686 230.942,116.189 230.927,116.908 231.524 C 117.200 231.766,118.234 232.092,119.205 232.247 C 120.624 232.474,120.817 232.594,120.185 232.857 C 119.593 233.104,119.746 233.167,120.806 233.111 C 121.579 233.070,122.389 233.145,122.606 233.277 C 122.823 233.409,124.395 233.647,126.100 233.806 C 127.805 233.964,129.200 234.253,129.200 234.447 C 129.200 234.641,129.815 234.800,130.567 234.800 C 131.318 234.800,131.993 234.972,132.067 235.181 C 132.140 235.391,132.830 235.646,133.600 235.747 C 134.370 235.848,135.629 236.126,136.397 236.365 C 137.166 236.604,138.381 236.800,139.097 236.800 C 139.814 236.800,140.400 236.965,140.400 237.166 C 140.400 237.367,141.738 237.657,143.374 237.810 C 145.177 237.979,146.425 238.288,146.543 238.595 C 146.649 238.872,147.741 239.225,148.968 239.379 C 150.196 239.532,151.200 239.812,151.200 240.002 C 151.200 240.191,151.560 240.460,152.000 240.600 C 152.440 240.740,152.800 241.112,152.800 241.427 C 152.800 241.742,152.935 241.971,153.100 241.936 C 153.956 241.755,156.582 243.685,156.115 244.152 C 155.995 244.272,156.340 244.572,156.882 244.819 C 157.978 245.318,159.340 247.326,158.889 247.777 C 158.730 247.936,158.803 248.007,159.052 247.933 C 159.300 247.860,159.967 248.295,160.533 248.900 C 161.099 249.505,161.705 250.000,161.881 250.000 C 162.156 250.001,162.975 250.613,165.083 252.392 C 165.349 252.616,165.745 252.800,165.964 252.800 C 166.672 252.800,168.380 253.709,168.205 253.992 C 168.112 254.143,168.252 254.299,168.518 254.340 C 168.783 254.380,169.765 254.519,170.700 254.648 C 171.635 254.778,172.400 255.045,172.400 255.242 C 172.400 255.703,181.083 255.713,181.368 255.253 C 181.486 255.061,182.306 254.789,183.191 254.648 C 184.076 254.506,184.800 254.213,184.800 253.995 C 184.800 253.778,185.078 253.600,185.418 253.600 C 185.758 253.600,186.486 253.150,187.036 252.600 C 187.586 252.050,188.388 251.600,188.818 251.600 C 189.672 251.600,189.905 251.424,193.306 248.216 C 194.765 246.839,195.701 245.597,195.853 244.834 C 196.194 243.132,195.690 240.800,194.982 240.800 C 194.662 240.800,194.400 240.620,194.400 240.400 C 194.400 240.180,194.265 240.042,194.100 240.094 C 193.935 240.146,193.209 239.606,192.486 238.894 C 191.764 238.182,190.909 237.600,190.586 237.600 C 190.264 237.600,190.045 237.375,190.100 237.100 C 190.155 236.825,189.991 236.640,189.735 236.688 C 189.480 236.737,188.556 236.062,187.682 235.188 C 186.809 234.315,185.916 233.600,185.699 233.600 C 185.481 233.600,184.875 232.971,184.352 232.203 C 183.828 231.434,183.169 230.804,182.887 230.803 C 182.606 230.801,182.271 230.530,182.145 230.200 C 182.018 229.870,181.709 229.600,181.457 229.599 C 181.206 229.599,180.190 228.879,179.200 228.000 C 178.210 227.121,177.106 226.401,176.746 226.401 C 176.386 226.400,175.806 225.964,175.457 225.430 C 175.107 224.897,174.412 224.333,173.911 224.178 C 173.410 224.022,172.534 223.379,171.965 222.749 C 171.396 222.118,170.832 221.701,170.711 221.822 C 170.590 221.943,170.130 221.583,169.688 221.021 C 169.246 220.459,168.717 220.000,168.512 220.000 C 168.307 220.000,167.717 219.550,167.200 219.000 C 166.683 218.450,166.047 218.000,165.786 218.000 C 165.525 218.000,164.644 217.370,163.827 216.600 C 163.011 215.830,162.086 215.200,161.772 215.200 C 161.457 215.200,161.200 215.020,161.200 214.800 C 161.200 214.580,160.996 214.400,160.746 214.400 C 160.496 214.400,159.900 213.995,159.421 213.500 C 158.941 213.005,158.140 212.330,157.639 212.000 C 157.139 211.670,156.286 210.995,155.744 210.500 C 155.202 210.005,154.487 209.600,154.156 209.600 C 153.824 209.600,153.664 209.420,153.800 209.200 C 153.936 208.980,153.883 208.800,153.682 208.800 C 153.481 208.800,152.858 208.395,152.297 207.900 C 150.499 206.314,149.451 205.600,148.919 205.600 C 148.633 205.600,148.400 205.450,148.400 205.268 C 148.400 205.085,147.956 204.698,147.414 204.407 C 146.871 204.117,146.514 203.740,146.619 203.569 C 146.725 203.398,146.419 203.133,145.939 202.981 C 145.460 202.829,144.602 202.206,144.034 201.598 C 143.465 200.990,142.595 200.369,142.100 200.219 C 141.604 200.069,141.010 199.593,140.780 199.162 C 140.549 198.730,140.198 198.478,140.000 198.600 C 139.802 198.722,139.445 198.457,139.206 198.011 C 138.950 197.533,138.367 197.200,137.786 197.200 C 137.244 197.200,136.800 197.014,136.800 196.787 C 136.800 196.561,136.485 196.257,136.100 196.112 C 135.715 195.968,135.220 195.614,135.000 195.326 C 134.780 195.038,133.520 194.688,132.200 194.548 C 130.880 194.408,129.690 194.123,129.556 193.914 C 129.422 193.706,126.092 193.433,122.156 193.309 C 117.611 193.166,114.896 192.922,114.715 192.642 C 114.300 191.998,87.756 191.427,79.012 191.874 M246.400 233.565 C 244.884 233.783,242.334 234.865,241.600 235.601 C 241.490 235.711,240.917 236.050,240.327 236.354 C 239.737 236.658,238.611 237.512,237.826 238.253 C 237.041 238.994,236.219 239.600,235.999 239.600 C 235.780 239.600,235.600 239.780,235.600 240.000 C 235.600 240.220,235.465 240.363,235.300 240.317 C 235.135 240.272,234.375 240.831,233.611 241.561 C 232.847 242.291,231.801 243.048,231.287 243.243 C 230.773 243.439,230.455 243.766,230.582 243.970 C 230.708 244.175,230.405 244.472,229.908 244.629 C 229.411 244.787,228.400 245.520,227.662 246.258 C 226.427 247.493,225.907 247.775,225.100 247.647 C 224.935 247.621,224.800 247.849,224.800 248.153 C 224.800 248.458,224.422 248.806,223.960 248.926 C 223.493 249.048,223.238 249.337,223.385 249.576 C 223.531 249.812,223.338 250.126,222.956 250.272 C 222.251 250.543,221.732 250.936,219.829 252.644 C 219.245 253.168,218.225 253.877,217.563 254.219 C 216.901 254.562,216.259 255.102,216.137 255.421 C 216.014 255.739,215.664 256.000,215.357 256.000 C 215.051 256.000,214.800 256.177,214.800 256.392 C 214.800 256.608,214.370 256.893,213.844 257.025 C 213.318 257.157,212.384 257.790,211.769 258.432 C 211.154 259.075,210.414 259.600,210.125 259.600 C 209.836 259.600,209.600 259.758,209.600 259.951 C 209.600 260.145,209.062 260.526,208.405 260.798 C 207.748 261.070,207.296 261.432,207.402 261.603 C 207.507 261.773,207.010 262.190,206.296 262.529 C 205.583 262.868,204.383 263.698,203.628 264.373 C 202.873 265.048,202.008 265.600,201.704 265.600 C 201.401 265.600,201.253 265.763,201.376 265.962 C 201.500 266.161,200.835 266.773,199.900 267.321 C 198.965 267.870,197.611 268.967,196.890 269.759 C 196.170 270.552,195.398 271.200,195.175 271.200 C 194.953 271.200,194.008 271.984,193.077 272.942 C 192.146 273.900,190.781 274.996,190.045 275.377 C 189.309 275.757,188.619 276.407,188.510 276.821 C 188.402 277.235,187.973 277.682,187.557 277.814 C 187.141 277.946,186.800 278.324,186.800 278.654 C 186.800 278.983,186.350 279.843,185.800 280.564 C 185.250 281.286,184.800 282.331,184.800 282.889 C 184.800 283.446,184.530 284.126,184.200 284.400 C 183.728 284.792,183.600 285.915,183.600 289.662 C 183.600 293.527,183.713 294.469,184.200 294.655 C 184.530 294.782,184.801 295.271,184.802 295.743 C 184.804 296.214,185.074 297.116,185.402 297.746 C 185.731 298.376,186.000 299.120,186.000 299.399 C 186.000 299.678,186.315 299.989,186.700 300.090 C 187.085 300.191,187.662 300.797,187.983 301.437 C 188.855 303.177,189.642 304.000,190.435 304.000 C 190.826 304.000,191.254 304.341,191.387 304.758 C 191.540 305.242,192.165 305.617,193.114 305.794 C 193.931 305.947,194.853 306.280,195.161 306.536 C 196.125 307.333,206.728 307.134,208.200 306.292 C 208.860 305.914,209.532 305.604,209.692 305.602 C 209.853 305.601,210.969 304.970,212.173 304.200 C 213.377 303.430,214.505 302.792,214.681 302.783 C 214.856 302.774,215.442 302.234,215.981 301.583 C 216.521 300.932,217.151 300.394,217.381 300.387 C 217.612 300.380,218.515 299.660,219.389 298.787 C 220.263 297.914,221.208 297.200,221.489 297.200 C 221.770 297.200,222.000 297.020,222.000 296.800 C 222.000 296.580,222.258 296.400,222.573 296.400 C 222.888 296.400,223.260 296.040,223.400 295.600 C 223.540 295.160,223.930 294.800,224.267 294.800 C 224.604 294.800,225.510 294.170,226.280 293.400 C 227.050 292.630,227.814 292.000,227.978 292.000 C 228.142 292.000,228.787 291.560,229.413 291.023 C 230.038 290.485,230.724 290.153,230.937 290.285 C 231.150 290.416,231.195 290.316,231.038 290.062 C 230.881 289.808,230.903 289.600,231.087 289.600 C 231.405 289.600,232.613 288.606,235.489 285.978 C 236.198 285.330,236.963 284.800,237.189 284.800 C 237.415 284.800,237.600 284.620,237.600 284.400 C 237.600 284.180,237.858 284.000,238.173 284.000 C 238.488 284.000,238.860 283.640,239.000 283.200 C 239.163 282.686,239.605 282.400,240.236 282.400 C 240.891 282.400,241.367 282.072,241.667 281.413 C 241.915 280.869,242.272 280.521,242.461 280.638 C 242.651 280.755,242.914 280.569,243.046 280.225 C 243.178 279.881,243.508 279.600,243.781 279.600 C 244.053 279.600,244.602 279.240,245.000 278.800 C 245.398 278.360,245.977 278.000,246.286 278.000 C 246.594 278.000,246.736 277.820,246.600 277.600 C 246.464 277.380,246.509 277.200,246.701 277.200 C 246.892 277.200,247.484 276.795,248.015 276.300 C 248.547 275.805,249.127 275.400,249.305 275.400 C 249.483 275.400,249.800 275.130,250.008 274.800 C 250.217 274.470,250.391 274.342,250.394 274.515 C 250.397 274.689,251.134 274.104,252.032 273.215 C 252.929 272.327,253.853 271.600,254.086 271.600 C 254.318 271.600,254.917 271.195,255.416 270.700 C 255.916 270.205,256.567 269.620,256.863 269.400 C 261.540 265.922,261.920 265.623,263.277 264.331 C 263.895 263.743,264.400 263.351,264.400 263.459 C 264.400 263.895,265.536 262.484,266.165 261.267 C 266.533 260.556,266.987 260.068,267.173 260.183 C 267.360 260.299,267.628 259.778,267.769 259.026 C 267.910 258.274,268.193 257.600,268.398 257.529 C 269.989 256.978,269.762 242.823,268.148 241.880 C 267.846 241.704,267.600 241.199,267.600 240.757 C 267.600 240.314,267.420 240.064,267.200 240.200 C 266.980 240.336,266.800 240.294,266.800 240.107 C 266.800 239.604,263.458 236.000,262.992 236.000 C 262.772 236.000,262.363 235.633,262.083 235.184 C 261.803 234.736,261.400 234.477,261.187 234.608 C 260.974 234.740,260.800 234.694,260.800 234.507 C 260.800 233.420,251.597 232.819,246.400 233.565 M276.351 283.058 C 275.986 283.498,275.446 283.599,274.422 283.419 C 270.907 282.801,270.000 282.737,270.000 283.106 C 270.000 283.321,269.100 283.616,268.000 283.762 C 266.900 283.908,266.000 284.201,266.000 284.414 C 266.000 284.626,265.730 284.800,265.400 284.800 C 265.070 284.800,264.471 285.129,264.069 285.531 C 263.668 285.932,263.038 286.377,262.669 286.518 C 262.301 286.659,262.000 286.971,262.000 287.211 C 262.000 287.451,261.831 287.543,261.624 287.415 C 261.417 287.287,260.531 287.906,259.655 288.791 C 258.779 289.676,257.869 290.400,257.631 290.400 C 257.394 290.400,257.200 290.610,257.200 290.867 C 257.200 291.123,257.088 291.221,256.951 291.085 C 256.814 290.948,256.171 291.368,255.521 292.018 C 254.870 292.668,254.187 293.200,254.003 293.200 C 253.818 293.200,252.797 294.011,251.734 295.003 C 250.670 295.995,249.485 296.907,249.100 297.030 C 248.715 297.153,248.400 297.512,248.400 297.827 C 248.400 298.142,248.080 298.400,247.688 298.400 C 247.297 298.400,246.717 298.760,246.400 299.200 C 246.083 299.640,245.516 300.000,245.141 300.000 C 244.765 300.000,244.130 300.406,243.729 300.902 C 243.328 301.398,242.460 302.144,241.800 302.560 C 241.140 302.976,240.092 303.921,239.471 304.658 C 238.850 305.396,238.040 306.001,237.671 306.001 C 237.302 306.002,236.640 306.541,236.200 307.200 C 235.760 307.859,235.169 308.398,234.887 308.399 C 234.604 308.399,233.743 309.030,232.973 309.800 C 232.203 310.570,231.346 311.200,231.068 311.200 C 230.790 311.200,230.121 311.732,229.581 312.383 C 229.042 313.034,228.375 313.574,228.100 313.583 C 227.825 313.592,227.600 313.747,227.600 313.926 C 227.600 314.106,226.894 314.650,226.031 315.135 C 225.167 315.620,224.402 316.148,224.331 316.308 C 224.259 316.469,223.435 317.119,222.500 317.754 C 221.565 318.389,220.800 319.064,220.800 319.254 C 220.800 319.444,220.575 319.606,220.300 319.613 C 219.616 319.630,217.600 321.448,217.600 322.047 C 217.600 322.315,217.491 322.424,217.357 322.291 C 217.099 322.033,216.820 322.232,214.485 324.341 C 213.669 325.079,212.490 325.947,211.865 326.270 C 211.195 326.616,210.417 327.564,209.965 328.586 C 209.545 329.536,208.953 330.409,208.650 330.525 C 208.348 330.641,207.985 331.336,207.844 332.068 C 207.703 332.801,207.464 333.850,207.312 334.400 C 206.795 336.270,206.950 346.118,207.500 346.300 C 207.775 346.392,208.000 346.992,208.000 347.633 C 208.000 348.404,208.204 348.800,208.600 348.800 C 208.930 348.800,209.200 349.151,209.200 349.579 C 209.200 350.904,212.508 354.342,214.100 354.672 C 214.705 354.797,215.200 355.105,215.200 355.356 C 215.200 355.835,217.997 357.200,218.979 357.200 C 219.295 357.200,219.653 357.362,219.776 357.561 C 219.899 357.760,221.284 357.827,222.854 357.711 C 224.906 357.560,225.631 357.627,225.431 357.949 C 225.232 358.272,225.439 358.289,226.174 358.010 C 226.734 357.797,227.465 357.727,227.797 357.854 C 228.128 357.981,228.400 357.909,228.400 357.694 C 228.400 357.478,229.115 357.188,229.989 357.048 C 230.972 356.891,232.046 356.337,232.803 355.597 C 233.477 354.939,234.285 354.400,234.600 354.400 C 234.915 354.400,235.725 353.860,236.400 353.200 C 237.075 352.540,237.800 352.000,238.010 352.000 C 238.221 352.000,238.618 351.640,238.893 351.200 C 239.168 350.760,239.619 350.400,239.896 350.400 C 240.173 350.400,240.400 350.174,240.400 349.898 C 240.400 349.621,240.895 349.174,241.500 348.904 C 242.105 348.633,243.296 347.790,244.146 347.030 C 244.996 346.270,246.301 345.358,247.046 345.005 C 247.791 344.652,248.400 344.101,248.400 343.781 C 248.400 343.462,248.592 343.200,248.827 343.200 C 249.260 343.200,251.544 341.597,253.000 340.271 C 253.440 339.870,254.318 339.150,254.951 338.671 C 255.583 338.192,256.407 337.516,256.781 337.169 C 257.553 336.454,258.838 335.837,259.330 335.946 C 259.511 335.987,259.562 335.863,259.444 335.670 C 259.150 335.195,260.685 333.600,261.435 333.600 C 261.768 333.600,262.688 332.970,263.481 332.200 C 264.274 331.430,265.072 330.800,265.254 330.800 C 265.436 330.800,266.234 330.170,267.027 329.400 C 267.820 328.630,268.639 328.000,268.847 328.000 C 269.055 328.000,269.329 327.730,269.455 327.400 C 269.582 327.070,269.904 326.800,270.171 326.800 C 270.437 326.800,271.047 326.350,271.525 325.800 C 272.003 325.250,272.600 324.800,272.851 324.800 C 273.332 324.800,275.199 322.813,275.200 322.300 C 275.200 322.135,275.547 322.000,275.971 322.000 C 276.395 322.000,277.096 321.550,277.529 321.000 C 277.961 320.450,278.520 320.000,278.771 320.000 C 279.022 320.000,279.857 319.370,280.627 318.600 C 281.397 317.830,282.169 317.200,282.344 317.200 C 282.518 317.200,283.083 316.750,283.600 316.200 C 284.117 315.650,284.879 315.200,285.293 315.200 C 285.708 315.200,285.936 315.020,285.800 314.800 C 285.664 314.580,285.805 314.400,286.112 314.400 C 286.420 314.400,286.877 313.950,287.127 313.400 C 287.378 312.850,287.857 312.400,288.191 312.400 C 288.526 312.400,288.755 312.175,288.700 311.900 C 288.645 311.625,288.806 311.439,289.058 311.486 C 289.310 311.533,289.640 310.912,289.791 310.106 C 289.943 309.299,290.333 308.444,290.660 308.206 C 290.986 307.967,291.355 307.013,291.479 306.086 C 291.604 305.159,291.862 304.400,292.053 304.400 C 292.541 304.400,292.490 296.503,292.000 296.200 C 291.780 296.064,291.596 295.468,291.591 294.876 C 291.586 294.284,291.230 293.350,290.800 292.800 C 290.370 292.250,290.014 291.479,290.009 291.087 C 290.004 290.696,289.730 290.271,289.400 290.145 C 289.070 290.018,288.800 289.682,288.800 289.399 C 288.800 288.697,284.329 284.809,283.497 284.787 C 283.224 284.780,282.651 284.510,282.224 284.187 C 281.796 283.864,280.671 283.600,279.724 283.600 C 278.776 283.600,278.000 283.439,278.000 283.243 C 278.000 282.573,276.860 282.446,276.351 283.058 M207.783 389.972 C 208.079 390.451,207.326 390.925,206.793 390.596 C 206.346 390.319,206.640 389.600,207.200 389.600 C 207.394 389.600,207.656 389.768,207.783 389.972 " stroke="none" fill="#f4dc04" fill-rule="evenodd"></path><path id="path1" d="M154.800 3.354 C 154.800 3.439,155.069 4.024,155.398 4.654 C 156.021 5.850,156.159 5.633,155.748 4.100 C 155.552 3.370,154.800 2.778,154.800 3.354 M248.800 7.724 C 248.800 8.334,249.971 9.995,249.982 9.400 C 249.986 9.180,249.881 8.595,249.748 8.100 C 249.489 7.133,248.800 6.860,248.800 7.724 M247.878 21.880 C 247.017 22.103,247.189 22.946,248.133 23.129 C 248.583 23.217,248.800 22.989,248.800 22.429 C 248.800 21.973,248.755 21.621,248.700 21.646 C 248.645 21.672,248.275 21.777,247.878 21.880 M158.453 27.000 C 158.402 28.006,159.055 29.079,159.467 28.667 C 159.637 28.496,159.578 28.231,159.335 28.078 C 159.092 27.925,158.803 27.440,158.693 27.000 L 158.493 26.200 158.453 27.000 M242.267 43.467 C 241.852 43.882,241.953 45.200,242.400 45.200 C 242.620 45.200,242.800 44.750,242.800 44.200 C 242.800 43.153,242.708 43.026,242.267 43.467 M240.400 49.600 C 240.400 50.040,240.580 50.400,240.800 50.400 C 241.020 50.400,241.200 50.040,241.200 49.600 C 241.200 49.160,241.020 48.800,240.800 48.800 C 240.580 48.800,240.400 49.160,240.400 49.600 M321.022 55.422 C 320.645 55.998,320.416 56.549,320.514 56.647 C 320.612 56.745,321.000 56.354,321.378 55.778 C 321.755 55.202,321.984 54.651,321.886 54.553 C 321.788 54.455,321.400 54.846,321.022 55.422 M312.744 65.223 C 311.850 66.002,311.846 66.023,312.678 65.620 C 313.160 65.387,313.666 65.017,313.801 64.798 C 314.195 64.162,313.763 64.335,312.744 65.223 M331.253 69.635 C 330.341 70.614,329.869 72.030,330.545 71.755 C 330.992 71.574,332.552 68.800,332.207 68.800 C 332.110 68.800,331.681 69.176,331.253 69.635 M302.494 76.412 C 301.775 77.065,301.337 77.600,301.519 77.600 C 301.701 77.600,302.368 77.060,303.000 76.400 C 304.470 74.865,304.186 74.872,302.494 76.412 M298.873 80.487 C 298.313 81.047,298.255 81.600,298.757 81.600 C 299.124 81.600,299.727 80.394,299.483 80.149 C 299.408 80.075,299.134 80.226,298.873 80.487 M225.467 85.467 C 225.079 85.855,225.140 86.800,225.553 86.800 C 225.748 86.800,226.001 86.440,226.116 86.000 C 226.322 85.214,225.991 84.942,225.467 85.467 M313.295 91.066 C 313.018 91.178,312.599 91.628,312.365 92.065 C 311.985 92.776,312.023 92.816,312.723 92.441 C 313.311 92.127,314.375 90.655,313.887 90.832 C 313.839 90.849,313.573 90.955,313.295 91.066 M280.000 102.200 C 280.000 102.530,279.790 102.800,279.533 102.800 C 279.277 102.800,279.161 102.894,279.276 103.009 C 279.611 103.344,280.718 102.791,280.957 102.169 C 281.084 101.836,280.931 101.600,280.587 101.600 C 280.264 101.600,280.000 101.870,280.000 102.200 M298.171 105.906 C 297.766 106.184,297.080 107.600,297.351 107.600 C 297.609 107.600,299.200 106.097,299.200 105.853 C 299.200 105.517,298.702 105.542,298.171 105.906 M285.999 118.602 C 285.483 119.151,285.189 119.600,285.347 119.600 C 285.798 119.600,287.365 118.031,287.139 117.806 C 287.028 117.694,286.514 118.052,285.999 118.602 M283.052 121.009 C 282.861 121.506,282.964 121.541,283.609 121.195 C 284.536 120.699,284.624 120.400,283.843 120.400 C 283.536 120.400,283.180 120.674,283.052 121.009 M358.600 219.600 C 358.450 219.843,355.470 220.000,351.000 220.000 C 346.956 220.000,343.554 220.152,343.439 220.337 C 343.325 220.522,338.698 220.782,333.158 220.914 C 327.477 221.050,322.914 221.326,322.694 221.546 C 322.479 221.761,322.056 221.843,321.755 221.727 C 321.273 221.542,318.544 222.283,316.200 223.234 C 315.760 223.413,315.042 223.615,314.605 223.684 C 313.322 223.886,313.293 227.200,314.574 227.200 C 314.882 227.200,315.197 227.390,315.274 227.622 C 315.359 227.878,317.735 228.139,321.307 228.284 C 325.465 228.452,327.200 228.663,327.200 228.999 C 327.200 229.338,329.177 229.553,334.081 229.745 C 337.866 229.894,341.066 230.184,341.193 230.389 C 341.320 230.594,343.803 230.887,346.712 231.040 C 349.620 231.194,352.000 231.473,352.000 231.660 C 352.000 231.847,353.245 232.000,354.767 232.000 C 356.575 232.000,357.589 232.168,357.695 232.484 C 357.864 232.993,367.595 233.937,373.100 233.978 C 374.752 233.991,376.000 234.172,376.000 234.400 C 376.000 234.656,379.467 234.800,385.600 234.800 C 391.733 234.800,395.200 234.656,395.200 234.400 C 395.200 234.180,395.726 234.000,396.369 234.000 C 399.050 234.000,400.000 232.416,400.000 227.946 C 400.000 222.100,398.811 221.110,391.500 220.870 C 388.915 220.785,386.800 220.555,386.800 220.358 C 386.800 220.161,384.640 220.000,382.000 220.000 C 379.067 220.000,377.200 219.844,377.200 219.600 C 377.200 219.345,373.875 219.200,368.024 219.200 C 362.337 219.200,358.753 219.352,358.600 219.600 M111.600 360.400 C 111.835 360.840,112.230 361.200,112.476 361.200 C 112.722 361.200,112.598 360.840,112.200 360.400 C 111.802 359.960,111.408 359.600,111.324 359.600 C 111.240 359.600,111.365 359.960,111.600 360.400 M117.103 363.263 C 117.441 363.601,117.921 363.612,118.883 363.304 L 120.200 362.882 118.420 362.841 C 117.072 362.810,116.752 362.912,117.103 363.263 M33.400 413.200 C 33.798 413.640,34.304 414.000,34.523 414.000 C 34.743 414.000,34.507 413.640,34.000 413.200 C 33.493 412.760,32.987 412.400,32.877 412.400 C 32.766 412.400,33.002 412.760,33.400 413.200 M97.300 458.377 C 96.388 459.138,96.154 459.610,96.700 459.587 C 96.865 459.581,97.323 459.131,97.719 458.587 C 98.573 457.414,98.499 457.377,97.300 458.377 " stroke="none" fill="#744c9c" fill-rule="evenodd"></path><path id="path2" d="M366.100 131.125 C 365.385 131.194,364.800 131.408,364.800 131.599 C 364.800 131.791,364.170 132.176,363.400 132.454 C 362.630 132.733,362.000 133.105,362.000 133.280 C 362.000 133.456,361.685 133.601,361.300 133.602 C 360.915 133.604,360.084 133.874,359.454 134.202 C 358.824 134.531,357.800 134.800,357.178 134.800 C 356.556 134.800,355.936 134.980,355.800 135.200 C 355.664 135.420,355.113 135.600,354.576 135.600 C 354.039 135.600,353.600 135.780,353.600 136.000 C 353.600 136.220,353.343 136.400,353.029 136.400 C 352.714 136.400,352.212 136.625,351.913 136.900 C 351.302 137.462,349.984 138.258,348.200 139.142 C 347.540 139.470,346.910 139.842,346.800 139.970 C 346.326 140.521,343.248 142.403,341.500 143.210 C 340.455 143.693,339.600 144.248,339.600 144.444 C 339.600 144.640,339.338 144.800,339.018 144.800 C 338.327 144.800,331.708 148.665,330.800 149.598 C 330.690 149.711,329.475 150.343,328.101 151.002 C 326.726 151.661,325.601 152.335,325.601 152.500 C 325.600 152.665,325.418 152.800,325.196 152.800 C 324.974 152.800,323.939 153.389,322.896 154.109 C 321.853 154.829,320.550 155.641,320.000 155.913 C 319.450 156.186,318.460 156.761,317.800 157.192 C 317.140 157.623,316.105 158.256,315.500 158.598 C 314.895 158.940,314.400 159.384,314.400 159.583 C 314.400 159.783,314.008 160.071,313.528 160.223 C 313.048 160.375,311.055 161.658,309.098 163.074 C 307.141 164.490,305.203 165.773,304.790 165.925 C 303.709 166.325,302.032 167.725,297.767 171.791 C 293.630 175.734,292.967 177.341,294.794 178.995 C 295.675 179.792,303.868 179.717,304.901 178.903 C 305.176 178.687,305.895 178.392,306.500 178.248 C 307.105 178.103,307.600 177.808,307.600 177.592 C 307.600 177.377,307.910 177.200,308.289 177.200 C 309.498 177.200,314.583 175.498,315.044 174.939 C 315.288 174.643,315.801 174.400,316.184 174.400 C 317.056 174.400,321.600 172.337,321.600 171.941 C 321.600 171.781,322.419 171.526,323.420 171.376 C 324.421 171.226,325.464 170.879,325.738 170.604 C 326.013 170.330,326.634 169.980,327.119 169.826 C 327.603 169.672,328.000 169.399,328.000 169.220 C 328.000 168.766,332.244 166.800,333.223 166.800 C 333.664 166.800,334.129 166.530,334.255 166.200 C 334.382 165.870,334.793 165.600,335.168 165.600 C 335.543 165.600,336.595 165.240,337.506 164.800 C 338.416 164.360,339.307 164.000,339.485 164.000 C 339.663 164.000,340.256 163.589,340.804 163.086 C 341.352 162.584,342.756 161.954,343.925 161.688 C 345.094 161.421,346.624 160.777,347.325 160.257 C 348.026 159.737,349.635 158.831,350.900 158.244 C 352.165 157.657,353.200 157.010,353.200 156.806 C 353.200 156.603,353.875 156.314,354.700 156.164 C 356.965 155.752,359.180 154.694,359.430 153.904 C 359.558 153.503,360.047 153.200,360.566 153.200 C 361.067 153.200,361.893 152.840,362.400 152.400 C 362.907 151.960,363.462 151.600,363.633 151.600 C 363.803 151.600,364.181 151.366,364.471 151.079 C 364.762 150.793,365.855 150.147,366.900 149.644 C 367.945 149.140,368.800 148.475,368.800 148.164 C 368.800 147.854,369.116 147.600,369.502 147.600 C 370.167 147.600,374.400 143.588,374.400 142.958 C 374.400 142.796,374.686 142.347,375.035 141.961 C 375.975 140.922,376.327 136.400,375.468 136.400 C 375.071 136.400,374.910 136.178,375.047 135.821 C 375.789 133.888,369.837 130.765,366.100 131.125 " stroke="none" fill="#049cd3" fill-rule="evenodd"></path><path id="path3" d="M63.895 37.831 C 62.883 38.380,61.407 40.248,60.072 42.669 C 59.403 43.882,59.107 46.695,59.615 47.009 C 59.827 47.140,60.000 47.588,60.000 48.004 C 60.000 48.420,60.225 48.904,60.500 49.080 C 60.775 49.256,61.491 50.300,62.092 51.400 C 62.692 52.500,63.355 53.359,63.565 53.309 C 63.775 53.259,64.167 54.204,64.437 55.409 C 64.707 56.614,65.079 57.600,65.264 57.600 C 65.449 57.600,65.600 57.917,65.600 58.304 C 65.600 58.691,65.960 59.232,66.400 59.507 C 66.840 59.782,67.200 60.305,67.200 60.670 C 67.200 61.338,67.335 61.525,69.540 63.906 C 70.206 64.624,70.863 65.569,71.002 66.006 C 71.141 66.443,71.872 67.455,72.627 68.256 C 73.382 69.057,74.000 70.052,74.000 70.469 C 74.000 70.885,74.270 71.329,74.600 71.455 C 74.930 71.582,75.200 71.927,75.200 72.223 C 75.200 72.518,75.435 72.904,75.722 73.080 C 76.009 73.256,76.655 74.077,77.158 74.905 C 77.660 75.733,78.415 76.594,78.836 76.819 C 79.256 77.044,79.600 77.427,79.600 77.671 C 79.600 77.914,80.146 78.635,80.813 79.273 C 81.481 79.911,81.920 80.605,81.790 80.816 C 81.659 81.027,81.743 81.200,81.976 81.200 C 82.209 81.200,82.400 81.401,82.400 81.646 C 82.400 82.022,83.295 83.368,85.794 86.749 C 86.017 87.052,86.760 87.900,87.445 88.635 C 88.130 89.370,88.917 90.517,89.194 91.185 C 89.471 91.853,89.868 92.400,90.077 92.400 C 90.647 92.400,91.600 93.465,91.600 94.102 C 91.600 94.768,93.252 96.400,93.926 96.400 C 94.187 96.400,94.400 96.658,94.400 96.973 C 94.400 97.288,94.760 97.660,95.200 97.800 C 95.640 97.940,96.003 98.267,96.007 98.527 C 96.011 98.787,96.461 99.424,97.007 99.942 C 97.553 100.460,98.000 101.028,98.000 101.205 C 98.000 101.523,99.408 103.161,102.700 106.675 C 103.635 107.673,104.400 108.649,104.400 108.845 C 104.400 109.040,104.670 109.200,105.000 109.200 C 105.330 109.200,105.600 109.386,105.600 109.613 C 105.600 109.839,105.910 110.144,106.289 110.289 C 106.667 110.435,107.451 111.039,108.031 111.631 C 108.610 112.224,109.470 112.832,109.942 112.982 C 110.414 113.131,110.800 113.422,110.800 113.627 C 110.800 114.223,114.000 114.057,114.629 113.429 C 115.242 112.816,115.428 110.000,114.856 110.000 C 114.666 110.000,114.406 109.114,114.278 108.031 C 114.150 106.947,113.870 105.732,113.657 105.331 C 112.677 103.483,111.200 100.075,111.200 99.660 C 111.200 99.407,111.020 99.200,110.800 99.200 C 110.580 99.200,110.400 98.840,110.400 98.400 C 110.400 97.960,110.220 97.600,110.000 97.600 C 109.780 97.600,109.600 97.330,109.600 97.000 C 109.600 96.670,109.440 96.400,109.245 96.400 C 109.050 96.400,108.774 95.624,108.632 94.675 C 108.467 93.576,107.942 92.477,107.187 91.650 C 106.534 90.935,106.000 90.181,106.000 89.974 C 106.000 89.767,105.640 88.925,105.200 88.104 C 104.760 87.284,104.400 86.379,104.400 86.093 C 104.400 85.808,104.130 85.471,103.800 85.345 C 103.470 85.218,103.200 84.808,103.200 84.433 C 103.200 84.058,102.666 83.206,102.014 82.539 C 101.362 81.872,100.642 80.892,100.415 80.363 C 100.188 79.833,99.848 79.130,99.660 78.800 C 99.276 78.128,98.344 76.062,97.538 74.100 C 97.245 73.385,96.888 72.800,96.746 72.800 C 96.603 72.800,96.384 72.391,96.259 71.892 C 96.134 71.393,95.709 70.620,95.315 70.175 C 94.922 69.730,94.071 68.316,93.424 67.032 C 92.294 64.789,91.554 63.728,89.780 61.810 C 89.328 61.322,89.028 60.715,89.113 60.461 C 89.197 60.208,89.094 60.000,88.882 60.000 C 88.670 60.000,88.273 59.460,88.000 58.800 C 87.727 58.140,87.365 57.600,87.196 57.600 C 87.027 57.600,86.771 56.970,86.626 56.200 C 86.469 55.362,86.130 54.800,85.782 54.800 C 85.462 54.800,85.200 54.434,85.200 53.987 C 85.200 53.541,84.937 53.074,84.615 52.950 C 84.294 52.827,83.917 52.368,83.778 51.931 C 83.639 51.494,83.002 50.636,82.363 50.025 C 81.723 49.413,81.200 48.739,81.200 48.526 C 81.200 48.314,80.750 47.717,80.200 47.200 C 79.650 46.683,79.200 46.022,79.200 45.730 C 79.200 45.439,79.020 45.200,78.800 45.200 C 78.580 45.200,78.400 44.924,78.400 44.587 C 78.400 44.251,78.130 43.871,77.800 43.745 C 77.470 43.618,77.188 43.309,77.174 43.057 C 77.160 42.806,76.622 42.150,75.979 41.600 C 75.337 41.050,74.175 40.015,73.398 39.300 C 72.621 38.585,71.729 38.000,71.416 38.000 C 71.103 38.000,70.736 37.820,70.600 37.600 C 70.213 36.974,65.153 37.149,63.895 37.831 M144.797 67.118 L 144.993 70.600 145.115 67.438 C 145.181 65.699,145.093 64.132,144.918 63.956 C 144.743 63.780,144.688 65.203,144.797 67.118 " stroke="none" fill="#f40c0c" fill-rule="evenodd"></path><path id="path4" d="M145.238 0.435 C 144.135 0.876,142.800 2.289,142.800 3.015 C 142.800 3.287,142.531 4.024,142.202 4.654 C 141.874 5.284,141.604 6.104,141.602 6.476 C 141.601 6.848,141.420 7.264,141.200 7.400 C 140.691 7.715,140.658 21.482,141.166 21.667 C 141.368 21.740,141.604 23.929,141.692 26.530 C 141.811 30.074,141.995 31.352,142.425 31.624 C 142.824 31.876,142.847 31.990,142.500 31.994 C 141.944 32.001,141.806 33.833,142.338 34.161 C 142.680 34.373,143.023 38.988,143.634 51.600 C 144.048 60.149,144.357 63.282,144.835 63.780 C 145.036 63.989,145.200 65.768,145.200 67.734 C 145.200 69.699,145.394 72.048,145.630 72.954 C 146.918 77.884,147.186 79.247,147.364 81.800 C 147.608 85.296,147.730 85.890,148.324 86.484 C 148.586 86.746,148.800 87.481,148.800 88.118 C 148.800 88.755,149.096 89.844,149.457 90.538 C 149.819 91.232,150.237 92.070,150.388 92.400 C 152.067 96.088,154.132 99.200,154.898 99.200 C 155.096 99.200,155.527 99.470,155.857 99.800 C 156.631 100.574,158.248 100.574,158.545 99.800 C 158.671 99.470,159.011 99.200,159.299 99.200 C 159.764 99.200,160.632 96.813,161.370 93.500 C 161.505 92.895,161.792 92.400,162.008 92.400 C 162.245 92.400,162.400 90.194,162.400 86.800 C 162.400 82.711,162.270 81.200,161.920 81.200 C 161.547 81.200,161.547 81.093,161.920 80.720 C 162.549 80.091,162.585 71.145,161.961 70.521 C 161.677 70.237,161.542 68.019,161.578 64.241 C 161.614 60.423,161.489 58.400,161.217 58.400 C 160.940 58.400,160.800 55.426,160.800 49.574 C 160.800 43.974,160.641 40.450,160.364 39.934 C 160.125 39.486,159.863 36.883,159.782 34.149 C 159.674 30.466,159.484 29.027,159.049 28.591 C 158.594 28.137,158.512 27.341,158.684 25.059 C 158.831 23.119,158.757 22.020,158.467 21.841 C 158.219 21.688,158.125 21.075,158.252 20.440 C 158.380 19.799,158.225 18.811,157.894 18.155 C 157.573 17.520,157.189 15.207,157.041 13.015 C 156.878 10.596,156.581 8.908,156.286 8.721 C 155.922 8.490,155.938 8.411,156.349 8.406 C 156.733 8.402,156.779 8.250,156.501 7.900 C 156.283 7.625,155.983 6.725,155.834 5.900 C 155.685 5.075,155.406 4.400,155.214 4.400 C 155.021 4.400,154.737 3.825,154.583 3.123 C 153.981 0.380,148.976 -1.059,145.238 0.435 M242.400 3.786 C 242.400 3.888,242.756 4.162,243.191 4.395 C 243.836 4.741,243.939 4.706,243.748 4.209 C 243.541 3.669,242.400 3.311,242.400 3.786 " stroke="none" fill="#fb8c14" fill-rule="evenodd"></path><path id="path5" d="M329.600 48.400 C 329.600 48.620,329.105 48.801,328.500 48.802 C 327.001 48.805,320.000 56.145,320.000 57.713 C 320.000 57.799,319.145 58.789,318.100 59.913 C 314.137 64.176,310.817 67.847,309.777 69.118 C 309.184 69.843,306.966 72.219,304.849 74.398 C 300.669 78.701,300.201 79.268,299.515 80.856 C 299.263 81.436,298.550 82.211,297.929 82.578 C 297.308 82.945,296.800 83.393,296.800 83.574 C 296.800 83.755,294.820 85.895,292.400 88.329 C 289.980 90.763,288.000 92.930,288.000 93.144 C 288.000 93.358,287.858 93.593,287.683 93.667 C 287.509 93.740,286.834 94.517,286.183 95.394 C 285.533 96.271,284.505 97.412,283.900 97.930 C 283.295 98.447,282.800 99.119,282.800 99.421 C 282.800 99.724,282.461 100.153,282.046 100.375 C 281.631 100.597,281.181 101.222,281.045 101.763 C 280.909 102.304,280.450 102.857,280.024 102.992 C 279.599 103.127,279.015 103.769,278.727 104.419 C 278.440 105.069,277.979 105.600,277.702 105.600 C 277.426 105.600,277.200 105.772,277.200 105.982 C 277.200 106.582,275.326 109.193,273.377 111.308 C 272.400 112.369,271.600 113.321,271.600 113.422 C 271.600 113.524,271.060 114.352,270.400 115.263 C 269.740 116.175,269.200 117.169,269.200 117.473 C 269.200 117.776,268.948 118.122,268.639 118.240 C 267.790 118.566,263.573 127.231,263.311 129.190 C 263.112 130.669,263.210 131.004,264.016 131.612 C 265.131 132.453,265.623 132.341,270.006 130.252 C 271.219 129.673,272.434 129.200,272.706 129.200 C 272.978 129.200,273.200 129.040,273.200 128.843 C 273.200 128.647,273.650 128.374,274.200 128.236 C 274.750 128.098,275.200 127.808,275.200 127.592 C 275.200 127.377,275.439 127.200,275.730 127.200 C 276.022 127.200,276.683 126.750,277.200 126.200 C 277.717 125.650,278.308 125.200,278.514 125.200 C 278.720 125.200,279.961 124.131,281.272 122.824 C 282.583 121.517,283.809 120.392,283.998 120.324 C 285.325 119.843,296.645 108.600,297.306 107.106 C 297.577 106.492,298.146 105.881,298.569 105.746 C 298.992 105.612,299.712 105.151,300.169 104.722 C 300.626 104.293,301.523 103.550,302.161 103.071 C 304.417 101.379,307.263 98.586,307.838 97.500 C 308.159 96.895,308.689 96.400,309.016 96.400 C 309.344 96.400,309.965 95.815,310.396 95.100 C 312.109 92.262,312.588 91.698,314.556 90.200 C 315.134 89.760,315.866 88.815,316.183 88.100 C 316.500 87.385,316.948 86.800,317.180 86.800 C 317.411 86.800,317.600 86.608,317.600 86.372 C 317.600 86.137,318.995 84.365,320.700 82.434 C 322.405 80.502,324.340 78.234,325.000 77.394 C 325.660 76.553,326.631 75.491,327.157 75.033 C 327.684 74.575,328.272 74.020,328.465 73.800 C 329.828 72.242,330.400 71.412,330.400 70.991 C 330.400 70.724,331.185 69.717,332.145 68.753 C 333.105 67.789,334.012 66.612,334.161 66.137 C 334.309 65.662,334.694 65.173,335.015 65.050 C 335.337 64.926,335.600 64.472,335.600 64.040 C 335.600 63.607,335.941 63.146,336.358 63.013 C 338.928 62.198,338.106 51.429,335.395 50.398 C 334.908 50.213,334.400 49.777,334.267 49.431 C 334.134 49.084,333.569 48.800,333.013 48.800 C 332.456 48.800,332.000 48.620,332.000 48.400 C 332.000 48.180,331.460 48.000,330.800 48.000 C 330.140 48.000,329.600 48.180,329.600 48.400 M79.500 191.882 C 79.995 191.978,80.805 191.978,81.300 191.882 C 81.795 191.787,81.390 191.709,80.400 191.709 C 79.410 191.709,79.005 191.787,79.500 191.882 M107.891 191.889 C 108.601 191.977,109.861 191.979,110.691 191.892 C 111.521 191.805,110.940 191.733,109.400 191.731 C 107.860 191.729,107.181 191.800,107.891 191.889 M242.034 199.600 C 242.046 199.930,242.211 200.560,242.400 201.000 L 242.744 201.800 242.766 201.000 C 242.778 200.560,242.613 199.930,242.400 199.600 C 242.055 199.067,242.015 199.067,242.034 199.600 M242.296 206.533 C 241.803 207.751,241.919 209.181,242.438 208.288 C 242.666 207.897,242.794 207.177,242.723 206.688 C 242.606 205.889,242.563 205.873,242.296 206.533 M144.500 238.276 C 144.885 238.376,145.515 238.376,145.900 238.276 C 146.285 238.175,145.970 238.093,145.200 238.093 C 144.430 238.093,144.115 238.175,144.500 238.276 M269.667 250.200 C 269.673 251.850,269.850 253.200,270.060 253.200 C 270.276 253.200,270.407 251.894,270.363 250.200 C 270.319 248.550,270.142 247.200,269.969 247.200 C 269.796 247.200,269.660 248.550,269.667 250.200 M94.500 276.687 C 95.105 276.778,96.095 276.778,96.700 276.687 C 97.305 276.595,96.810 276.520,95.600 276.520 C 94.390 276.520,93.895 276.595,94.500 276.687 M128.400 279.376 C 128.400 279.693,128.580 280.064,128.800 280.200 C 129.020 280.336,129.200 280.077,129.200 279.624 C 129.200 279.171,129.020 278.800,128.800 278.800 C 128.580 278.800,128.400 279.059,128.400 279.376 M146.781 293.700 C 146.770 294.415,146.686 295.900,146.593 297.000 C 146.500 298.100,146.578 299.900,146.765 301.000 C 147.043 302.632,147.115 302.025,147.153 297.700 C 147.179 294.785,147.110 292.400,147.000 292.400 C 146.890 292.400,146.791 292.985,146.781 293.700 M189.200 335.800 C 189.200 336.130,189.380 336.400,189.600 336.400 C 189.820 336.400,190.000 336.130,190.000 335.800 C 190.000 335.470,189.820 335.200,189.600 335.200 C 189.380 335.200,189.200 335.470,189.200 335.800 M189.200 339.824 C 189.200 341.204,189.352 341.953,189.600 341.800 C 189.820 341.664,190.000 340.663,190.000 339.576 C 190.000 338.489,189.820 337.600,189.600 337.600 C 189.380 337.600,189.200 338.601,189.200 339.824 M222.200 358.000 C 222.336 358.220,223.056 358.400,223.800 358.400 C 224.544 358.400,225.264 358.220,225.400 358.000 C 225.551 357.755,224.930 357.600,223.800 357.600 C 222.670 357.600,222.049 357.755,222.200 358.000 M110.779 359.900 C 111.595 361.303,112.246 361.916,113.801 362.749 C 115.439 363.627,117.438 363.909,117.000 363.200 C 116.864 362.980,116.374 362.800,115.912 362.800 C 114.698 362.800,111.697 360.937,111.400 359.999 C 111.260 359.559,110.972 359.200,110.759 359.200 C 110.517 359.200,110.525 359.463,110.779 359.900 M223.400 374.400 C 223.259 374.628,223.604 374.800,224.200 374.800 C 224.796 374.800,225.141 374.628,225.000 374.400 C 224.864 374.180,224.504 374.000,224.200 374.000 C 223.896 374.000,223.536 374.180,223.400 374.400 M206.617 389.972 C 206.321 390.451,207.074 390.925,207.607 390.596 C 208.054 390.319,207.760 389.600,207.200 389.600 C 207.006 389.600,206.744 389.768,206.617 389.972 M29.774 409.958 C 29.923 410.199,30.416 410.595,30.871 410.838 C 31.462 411.154,31.620 411.156,31.426 410.842 C 31.277 410.601,30.784 410.205,30.329 409.962 C 29.738 409.646,29.580 409.644,29.774 409.958 M45.400 422.985 C 46.060 423.550,46.915 424.311,47.300 424.676 C 47.685 425.041,48.000 425.228,48.000 425.091 C 48.000 424.662,46.244 423.024,45.199 422.479 C 44.338 422.029,44.365 422.099,45.400 422.985 M50.000 427.155 C 50.000 427.595,51.159 428.574,51.398 428.336 C 51.496 428.238,51.221 427.854,50.788 427.483 C 50.355 427.111,50.000 426.964,50.000 427.155 M99.038 456.600 C 98.444 457.150,98.117 457.600,98.310 457.600 C 98.503 457.600,99.083 457.150,99.600 456.600 C 100.117 456.050,100.444 455.600,100.328 455.600 C 100.212 455.600,99.631 456.050,99.038 456.600 " stroke="none" fill="#94c45c" fill-rule="evenodd"></path></g></svg>