<svg width="46" height="46" viewBox="0 0 46 46" fill="none" xmlns="http://www.w3.org/2000/svg">
<path d="M36.4167 5.74996H28.405C27.6 3.52663 25.4917 1.91663 23 1.91663C20.5083 1.91663 18.4 3.52663 17.595 5.74996H9.58333C7.475 5.74996 5.75 7.47496 5.75 9.58329V36.4166C5.75 38.525 7.475 40.25 9.58333 40.25H36.4167C38.525 40.25 40.25 38.525 40.25 36.4166V9.58329C40.25 7.47496 38.525 5.74996 36.4167 5.74996ZM23 5.74996C24.0542 5.74996 24.9167 6.61246 24.9167 7.66663C24.9167 8.72079 24.0542 9.58329 23 9.58329C21.9458 9.58329 21.0833 8.72079 21.0833 7.66663C21.0833 6.61246 21.9458 5.74996 23 5.74996ZM26.8333 32.5833H13.4167V28.75H26.8333V32.5833ZM32.5833 24.9166H13.4167V21.0833H32.5833V24.9166ZM32.5833 17.25H13.4167V13.4166H32.5833V17.25Z" fill="white"/>
</svg>
