<svg width="50" height="50" viewBox="0 0 50 50" fill="none" xmlns="http://www.w3.org/2000/svg">
<circle cx="25" cy="25" r="25" fill="#1C1C1D"/>
<path d="M20.25 16.9737C20.25 19.7158 22.6055 21.9474 25.5 21.9474C28.3945 21.9474 30.75 19.7158 30.75 16.9737C30.75 14.2315 28.3945 12 25.5 12C22.6055 12 20.25 14.2315 20.25 16.9737ZM34.8333 33H34.8947C35.5052 33 36 32.5052 36 31.8947C36 27.6295 32.3355 24.1579 27.8333 24.1579H23.1667C18.6633 24.1579 15 27.6295 15 31.8947C15 32.5052 15.4948 33 16.1053 33H34.8333Z" fill="white" fill-opacity="0.5"/>
</svg>
