<svg width="15" height="16" viewBox="0 0 15 16" fill="none" xmlns="http://www.w3.org/2000/svg">
<path d="M1.6 0H8.8C9.22435 0 9.63131 0.168571 9.93137 0.468629C10.2314 0.768687 10.4 1.17565 10.4 1.6V3.2H8.8V1.6H1.6V14.4H8.8V12.8H10.4V14.4C10.4 14.8243 10.2314 15.2313 9.93137 15.5314C9.63131 15.8314 9.22435 16 8.8 16H1.6C1.17565 16 0.768687 15.8314 0.468629 15.5314C0.168571 15.2313 0 14.8243 0 14.4V1.6C0 1.17565 0.168571 0.768687 0.468629 0.468629C0.768687 0.168571 1.17565 0 1.6 0Z" fill="white"/>
<path d="M9.672 10.872L10.8 12L14.8 8L10.8 4L9.672 5.128L11.736 7.2H4V8.8H11.736L9.672 10.872Z" fill="white"/>
</svg>
