<svg width="135" height="79" viewBox="0 0 155 89" fill="none" xmlns="http://www.w3.org/2000/svg">
<g clip-path="url(#clip0_18_64)">
<rect width="155" height="89" fill="black"/>
<path d="M39 28C39 27.4477 39.4477 27 40 27H57C57.5523 27 58 27.4477 58 28V58.3C58 58.8523 57.5523 59.3 57 59.3H40C39.4477 59.3 39 58.8523 39 58.3V28Z" fill="white"/>
<path d="M84.3579 58.3078C82.7777 58.3078 81.3925 57.9692 80.2022 57.292C79.012 56.6148 78.0885 55.6605 77.4318 54.4292C76.7956 53.1774 76.4776 51.7512 76.4776 50.1505C76.4776 48.5498 76.7956 47.1338 77.4318 45.9025C78.0885 44.6507 79.012 43.6862 80.2022 43.0089C81.3925 42.3317 82.7777 41.9931 84.3579 41.9931C85.9175 41.9931 87.2925 42.3317 88.4827 43.0089C89.673 43.6862 90.5964 44.6507 91.2531 45.9025C91.9098 47.1338 92.2382 48.5498 92.2382 50.1505C92.2382 51.7512 91.9098 53.1774 91.2531 54.4292C90.5964 55.6605 89.673 56.6148 88.4827 57.292C87.2925 57.9692 85.9175 58.3078 84.3579 58.3078ZM84.3579 55.7529C85.1993 55.7529 85.9996 55.5579 86.7589 55.168C87.5387 54.7781 88.1749 54.1625 88.6674 53.3211C89.1804 52.4797 89.437 51.4126 89.437 50.1197C89.437 48.8474 89.1804 47.7905 88.6674 46.9491C88.1749 46.1077 87.5387 45.5023 86.7589 45.1329C85.9996 44.743 85.1993 44.5481 84.3579 44.5481C83.496 44.5481 82.6751 44.743 81.8953 45.1329C81.136 45.5023 80.5101 46.1077 80.0175 46.9491C79.525 47.7905 79.2788 48.8474 79.2788 50.1197C79.2788 51.4126 79.525 52.4797 80.0175 53.3211C80.5101 54.1625 81.136 54.7781 81.8953 55.168C82.6751 55.5579 83.496 55.7529 84.3579 55.7529ZM101.457 58.3078C98.4611 58.3078 96.963 56.9534 96.963 54.2445V44.702H94.7775C94.6133 44.702 94.4697 44.6507 94.3465 44.5481C94.2439 44.4249 94.1926 44.2813 94.1926 44.1171C94.1926 43.9119 94.285 43.7375 94.4697 43.5938L98.6561 39.4997C98.8408 39.3151 99.0152 39.2227 99.1794 39.2227C99.3435 39.2227 99.4769 39.2843 99.5795 39.4074C99.7027 39.5305 99.7642 39.6742 99.7642 39.8384V42.301H103.243C103.592 42.301 103.879 42.4138 104.105 42.6396C104.33 42.8653 104.443 43.1526 104.443 43.5015C104.443 43.8298 104.33 44.1171 104.105 44.3634C103.879 44.5891 103.592 44.702 103.243 44.702H99.7642V53.9983C99.7642 54.7986 99.9489 55.3117 100.318 55.5374C100.708 55.7426 101.19 55.8452 101.765 55.8452C102.176 55.8452 102.586 55.7837 102.996 55.6605C103.078 55.64 103.161 55.6195 103.243 55.599C103.345 55.5784 103.468 55.5682 103.612 55.5682C103.899 55.5682 104.156 55.6811 104.382 55.9068C104.607 56.112 104.72 56.3685 104.72 56.6764C104.72 57.1484 104.484 57.5075 104.012 57.7537C103.212 58.1231 102.36 58.3078 101.457 58.3078ZM109.117 39.0996C108.686 39.0996 108.317 38.9457 108.009 38.6378C107.701 38.33 107.547 37.9606 107.547 37.5297V37.4065C107.547 36.9756 107.701 36.6062 108.009 36.2984C108.317 35.9906 108.686 35.8366 109.117 35.8366H109.302C109.733 35.8366 110.102 35.9906 110.41 36.2984C110.718 36.6062 110.872 36.9756 110.872 37.4065V37.5297C110.872 37.9606 110.718 38.33 110.41 38.6378C110.102 38.9457 109.733 39.0996 109.302 39.0996H109.117ZM109.179 58.1539C108.789 58.1539 108.46 58.0205 108.194 57.7537C107.927 57.487 107.793 57.1586 107.793 56.7687V43.563C107.793 43.1731 107.927 42.8448 108.194 42.578C108.46 42.2907 108.789 42.147 109.179 42.147C109.589 42.147 109.928 42.2804 110.194 42.5472C110.461 42.814 110.595 43.1526 110.595 43.563V56.7687C110.595 57.1586 110.451 57.487 110.164 57.7537C109.897 58.0205 109.569 58.1539 109.179 58.1539Z" fill="white"/>
<path d="M116.875 58.0923C116.403 58.0923 115.993 57.9282 115.644 57.5998C115.315 57.251 115.151 56.8405 115.151 56.3685V56.1838C115.151 55.7118 115.315 55.3117 115.644 54.9833C115.993 54.6345 116.403 54.46 116.875 54.46H117.183C117.655 54.46 118.055 54.6345 118.383 54.9833C118.732 55.3117 118.907 55.7118 118.907 56.1838V56.3685C118.907 56.8405 118.732 57.251 118.383 57.5998C118.055 57.9282 117.655 58.0923 117.183 58.0923H116.875Z" fill="url(#paint0_linear_18_64)"/>
<path d="M74.0289 43.1585C74.0289 52.0826 66.5232 59.317 57.2645 59.317C48.0057 59.317 41.5 52.0826 41.5 43.1585C41.5 34.2344 48.0057 27 57.2645 27C66.5232 27 74.0289 34.2344 74.0289 43.1585Z" fill="url(#paint1_linear_18_64)"/>
</g>
<defs>
<linearGradient id="paint0_linear_18_64" x1="115.5" y1="54" x2="118" y2="59.5" gradientUnits="userSpaceOnUse">
<stop offset="0.985541" stop-color="#FFDB36"/>
</linearGradient>
<linearGradient id="paint1_linear_18_64" x1="45.5" y1="31" x2="65.5" y2="57.5" gradientUnits="userSpaceOnUse">
<stop stop-color="#FCE991"/>
<stop offset="0.443351" stop-color="#FFD100"/>
</linearGradient>
<clipPath id="clip0_18_64">
<rect width="155" height="89" fill="white"/>
</clipPath>
</defs>
</svg>